SplineFontDB: 3.0
FontName: Cardo-Regular
FullName: Cardo
FamilyName: Cardo
Weight: Regular
Copyright: Copyright (c) 2002-2011, David J. Perry (hospes02@scholarsfonts.net)
Version: 1.0451
ItalicAngle: 0
UnderlinePosition: -105
UnderlineWidth: 100
Ascent: 1638
Descent: 410
sfntRevision: 0x00010b8c
LayerCount: 2
Layer: 0 1 "Back"  1
Layer: 1 1 "Fore"  0
XUID: [1021 288 713564382 16406545]
FSType: 0
OS2Version: 3
OS2_WeightWidthSlopeOnly: 0
OS2_UseTypoMetrics: 1
CreationTime: 1130132145
ModificationTime: 1315160157
PfmFamily: 17
TTFWeight: 400
TTFWidth: 5
LineGap: 0
VLineGap: 0
Panose: 2 2 6 0 0 0 0 0 0 0
OS2TypoAscent: 2028
OS2TypoAOffset: 0
OS2TypoDescent: -745
OS2TypoDOffset: 0
OS2TypoLinegap: 0
OS2WinAscent: 2028
OS2WinAOffset: 0
OS2WinDescent: 745
OS2WinDOffset: 0
HheadAscent: 2028
HheadAOffset: 0
HheadDescent: -745
HheadDOffset: 0
OS2SubXSize: 205
OS2SubYSize: 205
OS2SubXOff: 0
OS2SubYOff: 287
OS2SupXSize: 205
OS2SupYSize: 205
OS2SupXOff: 0
OS2SupYOff: 287
OS2StrikeYSize: 102
OS2StrikeYPos: 512
OS2FamilyClass: 258
OS2Vendor: 'FSFS'
OS2CodePages: 200000bb.4d000000
OS2UnicodeRanges: e40008ff.5201e0fb.04608000.00000000
Lookup: 4 0 0 "'dlig' Discretionary Ligatures in Latin lookup 0"  {"'dlig' Discretionary Ligatures in Latin lookup 0 subtable"  } ['dlig' ('latn' <'dflt' > ) ]
Lookup: 6 0 0 "'ccmp' Glyph Composition/Decomposition in Latin lookup 1"  {"'ccmp' Glyph Composition/Decomposition in Latin lookup 1 subtable"  } ['ccmp' ('latn' <'dflt' > ) ]
Lookup: 4 0 1 "'liga' Standard Ligatures in Latin lookup 2"  {"'liga' Standard Ligatures in Latin lookup 2 subtable"  } ['liga' ('latn' <'dflt' > ) ]
Lookup: 1 0 0 "'smcp' Lowercase to Small Capitals in Latin lookup 3"  {"'smcp' Lowercase to Small Capitals in Latin lookup 3 subtable"  } ['smcp' ('latn' <'dflt' > ) ]
Lookup: 1 0 0 "'hist' Historical Forms in Latin lookup 4"  {"'hist' Historical Forms in Latin lookup 4 subtable"  } ['hist' ('latn' <'dflt' > ) ]

StartChar: .notdef
Encoding: 1114112 -1 0
Width: 1078
GlyphClass: 2
Flags: W
LayerCount: 2
Fore
SplineSet
120 1410 m 1,0,-1
 958 1410 l 1,1,-1
 958 0 l 1,2,-1
 120 0 l 1,3,-1
 120 1410 l 1,0,-1
911 47 m 1,4,-1
 911 1363 l 1,5,-1
 167 1363 l 1,6,-1
 167 47 l 1,7,-1
 911 47 l 1,4,-1
389 674 m 256,8,9
 389 736 389 736 433 780 c 128,-1,10
 477 824 477 824 539 824 c 256,11,12
 601 824 601 824 645 780 c 128,-1,13
 689 736 689 736 689 674 c 256,14,15
 689 612 689 612 645 568 c 128,-1,16
 601 524 601 524 539 524 c 256,17,18
 477 524 477 524 433 568 c 128,-1,19
 389 612 389 612 389 674 c 256,8,9
EndSplineSet
EndChar

StartChar: exclam
Encoding: 33 33 4
Width: 489
GlyphClass: 2
Flags: W
LayerCount: 2
Fore
SplineSet
130 92 m 256,0,1
 130 140 130 140 163.5 173.5 c 128,-1,2
 197 207 197 207 244.106060606 207 c 0,3,4
 291.212121212 207 291.212121212 207 325.106060606 170.919354839 c 128,-1,5
 359 134.838709677 359 134.838709677 359 87.9860215054 c 0,6,7
 359 41.1333333333 359 41.1333333333 327 7 c 128,-1,8
 295.125 -27 295.125 -27 246.5625 -27 c 0,9,10
 198 -27 198 -27 164 7 c 128,-1,11
 130 41 130 41 130 92 c 256,0,1
280 1493 m 2,12,13
 300 1493 300 1493 321.166666667 1492 c 128,-1,14
 342.333333333 1491 342.333333333 1491 347 1477 c 1,15,-1
 347 1425 l 1,16,-1
 273 463 l 1,17,18
 268.411764706 424 268.411764706 424 243 424 c 256,19,20
 216.588235294 424 216.588235294 424 212 463 c 1,21,-1
 138 1425 l 1,22,-1
 138 1477 l 2,23,24
 138 1491 138 1491 153 1491 c 2,25,-1
 243 1493 l 1,26,-1
 280 1493 l 2,12,13
EndSplineSet
Substitution2: "'smcp' Lowercase to Small Capitals in Latin lookup 3 subtable" exclam.sc
EndChar

StartChar: quotedbl
Encoding: 34 34 5
Width: 834
GlyphClass: 2
Flags: W
LayerCount: 2
Fore
SplineSet
565 817 m 1,0,1
 561.402985075 888.940298507 561.402985075 888.940298507 549.201492537 969.470149254 c 2,2,3
 529.5 1099.5 l 2,4,5
 500 1294.2 500 1294.2 500 1327.0516129 c 0,6,7
 500 1359.90322581 500 1359.90322581 533.760869565 1384.9516129 c 128,-1,8
 567.52173913 1410 567.52173913 1410 606.565217391 1410 c 0,9,10
 645.608695652 1410 645.608695652 1410 677.304347826 1384.86206897 c 128,-1,11
 709 1359.72413793 709 1359.72413793 709 1327.36206897 c 128,-1,12
 709 1295 709 1295 701 1233 c 128,-1,13
 693 1171 693 1171 682 1098.5 c 128,-1,14
 671 1026 671 1026 659.5 951.5 c 128,-1,15
 648 877 648 877 641 817 c 1,16,-1
 565 817 l 1,0,1
199 816 m 1,17,18
 194.639344262 881.409836066 194.639344262 881.409836066 163.819672131 1087.34128167 c 128,-1,19
 133 1293.27272727 133 1293.27272727 133 1326.3530303 c 0,20,21
 133 1359.43333333 133 1359.43333333 165.97826087 1384.71666667 c 128,-1,22
 198.956521739 1410 198.956521739 1410 239.565217391 1410 c 0,23,24
 280.173913043 1410 280.173913043 1410 311.086956522 1384.60714286 c 128,-1,25
 342 1359.21428571 342 1359.21428571 342 1327.60714286 c 128,-1,26
 342 1296 342 1296 334 1234 c 128,-1,27
 326 1172 326 1172 315 1099 c 128,-1,28
 304 1026 304 1026 292.5 951 c 128,-1,29
 281 876 281 876 274 816 c 1,30,-1
 199 816 l 1,17,18
EndSplineSet
EndChar

StartChar: numbersign
Encoding: 35 35 6
Width: 1188
GlyphClass: 2
Flags: W
LayerCount: 2
Fore
SplineSet
129 1065 m 1,0,-1
 401 1065 l 1,1,-1
 502 1538 l 1,2,-1
 629 1538 l 1,3,-1
 528 1065 l 1,4,-1
 780 1065 l 1,5,-1
 881 1538 l 1,6,-1
 1008 1538 l 1,7,-1
 907 1065 l 1,8,-1
 1180 1065 l 1,9,-1
 1151 944 l 1,10,-1
 881 944 l 1,11,-1
 809 594 l 1,12,-1
 1085 594 l 1,13,-1
 1057 473 l 1,14,-1
 782 473 l 1,15,-1
 676 -35 l 1,16,-1
 543 -35 l 1,17,-1
 651 473 l 1,18,-1
 403 473 l 1,19,-1
 297 -35 l 1,20,-1
 164 -35 l 1,21,-1
 272 473 l 1,22,-1
 2 473 l 1,23,-1
 33 594 l 1,24,-1
 299 594 l 1,25,-1
 375 944 l 1,26,-1
 96 944 l 1,27,-1
 129 1065 l 1,0,-1
430 594 m 1,28,-1
 678 594 l 1,29,-1
 752 944 l 1,30,-1
 502 944 l 1,31,-1
 430 594 l 1,28,-1
EndSplineSet
EndChar

StartChar: dollar
Encoding: 36 36 7
Width: 1049
GlyphClass: 2
Flags: W
LayerCount: 2
Fore
SplineSet
459 1273 m 1,0,1
 484 1276 484 1276 520.75 1276 c 128,-1,2
 557.5 1276 557.5 1276 603 1269 c 1,3,-1
 603 1422 l 1,4,-1
 659 1422 l 1,5,-1
 659 1259 l 1,6,7
 819.407373272 1222.5437788 819.407373272 1222.5437788 882.5 1142 c 0,8,9
 906 1112 906 1112 911 1073 c 1,10,11
 911 1044 911 1044 891 1025 c 128,-1,12
 871 1006 871 1006 846.5 1006 c 128,-1,13
 822 1006 822 1006 801 1026.5 c 128,-1,14
 780 1047 780 1047 759 1075.5 c 128,-1,15
 738 1104 738 1104 715 1135.5 c 128,-1,16
 692 1167 692 1167 676.5 1178 c 128,-1,17
 661 1189 661 1189 659 1191 c 1,18,-1
 659 692 l 1,19,20
 673 684 673 684 706 666.5 c 0,21,22
 805.600389864 613.681611436 805.600389864 613.681611436 884.800194932 524.327985205 c 128,-1,23
 964 434.974358974 964 434.974358974 964 347.487179487 c 0,24,25
 964 194.756097561 964 194.756097561 880.311401425 108.00572099 c 128,-1,26
 796.62280285 21.2553444181 796.62280285 21.2553444181 659 -11 c 1,27,-1
 659 -219 l 1,28,-1
 603 -219 l 1,29,-1
 603 -21 l 1,30,31
 518.027777778 -32.0833333333 518.027777778 -32.0833333333 459 -25 c 1,32,-1
 459 -219 l 1,33,-1
 404 -219 l 1,34,-1
 404 -15 l 1,35,36
 228.946325879 24.2977635783 228.946325879 24.2977635783 151 134 c 0,37,38
 124 172 124 172 122 212.5 c 128,-1,39
 120 253 120 253 143.5 274 c 128,-1,40
 167 295 167 295 194 295 c 128,-1,41
 221 295 221 295 235.5 282 c 0,42,43
 257.596558317 262.189292543 257.596558317 262.189292543 281 199 c 0,44,45
 322.08776267 88.0630407911 322.08776267 88.0630407911 404 46 c 1,46,-1
 404 657 l 1,47,48
 288.451219512 728.640243902 288.451219512 728.640243902 243.725609756 780.820121951 c 0,49,50
 160 878.5 160 878.5 160 974.96875 c 128,-1,51
 160 1071.4375 160 1071.4375 227.785714286 1151.93303571 c 128,-1,52
 295.571428571 1232.42857143 295.571428571 1232.42857143 404 1262 c 1,53,-1
 404 1422 l 1,54,-1
 459 1422 l 1,55,-1
 459 1273 l 1,0,1
459 26 m 1,56,57
 520.293577982 7.97247706422 520.293577982 7.97247706422 603 19 c 1,58,-1
 603 540 l 1,59,60
 568 561 568 561 531.5 581.5 c 128,-1,61
 495 602 495 602 459 624 c 1,62,-1
 459 26 l 1,56,57
603 1219 m 1,63,64
 566.333333333 1230 566.333333333 1230 509 1230 c 256,65,66
 481 1230 481 1230 459 1227 c 1,67,-1
 459 818 l 1,68,69
 524 771 524 771 603 724 c 1,70,-1
 603 1219 l 1,63,64
834 268 m 1,71,72
 834 368.6 834 368.6 728.5 453 c 0,73,74
 696 479 696 479 659 504 c 1,75,-1
 659 34 l 1,76,77
 736 62 736 62 782.5 123 c 128,-1,78
 829 184 829 184 834 268 c 1,71,72
279 1043 m 0,79,80
 279 990.322580645 279 990.322580645 304.292899408 956.054781447 c 128,-1,81
 329.585798817 921.786982249 329.585798817 921.786982249 404 859 c 1,82,-1
 404 1215 l 1,83,84
 279 1175.52631579 279 1175.52631579 279 1043 c 0,79,80
EndSplineSet
EndChar

StartChar: ampersand
Encoding: 38 38 9
Width: 1522
GlyphClass: 2
Flags: W
LayerCount: 2
Fore
SplineSet
1397 96 m 1,0,1
 1405 96 1405 96 1405 77.7 c 128,-1,2
 1405 59.4 1405 59.4 1399 57 c 1,3,4
 1263.22857143 -31 1263.22857143 -31 1165.3690027 -31 c 128,-1,5
 1067.50943396 -31 1067.50943396 -31 997.5 59.5 c 0,6,7
 964.497757848 102.161434978 964.497757848 102.161434978 932.248878924 153.080717489 c 128,-1,8
 900 204 900 204 878 231 c 1,9,10
 596.545454545 -27 596.545454545 -27 379 -27 c 0,11,12
 233.889908257 -27 233.889908257 -27 128.444954128 92.7239583333 c 128,-1,13
 23 212.447916667 23 212.447916667 23 362 c 0,14,15
 23 571.565217391 23 571.565217391 252 701 c 0,16,17
 321 740 321 740 401 772 c 1,18,19
 286.755395683 882.980472765 286.755395683 882.980472765 260.5 978 c 0,20,21
 250 1016 250 1016 250 1069.5 c 0,22,23
 250 1177.71764706 250 1177.71764706 339.912698413 1244.35882353 c 128,-1,24
 429.825396825 1311 429.825396825 1311 543.674993495 1311 c 128,-1,25
 657.524590164 1311 657.524590164 1311 742.262295082 1244.73076923 c 128,-1,26
 827 1178.46153846 827 1178.46153846 827 1069.2170706 c 0,27,28
 827 939.581395349 827 939.581395349 637.5 825 c 0,29,30
 616 812 616 812 614 810 c 128,-1,31
 612 808 612 808 612 801.5 c 128,-1,32
 612 795 612 795 623.5 784.5 c 128,-1,33
 635 774 635 774 649.5 761 c 128,-1,34
 664 748 664 748 692.6 722 c 128,-1,35
 721.2 696 721.2 696 748.972881356 672.855932203 c 128,-1,36
 776.745762712 649.711864407 776.745762712 649.711864407 863.043979715 540.855932203 c 128,-1,37
 949.342196719 432 949.342196719 432 954 432 c 0,38,39
 965 432 965 432 969 440 c 1,40,-1
 1198 786 l 2,41,42
 1223 823.5 1223 823.5 1223 850.75 c 128,-1,43
 1223 878 1223 878 1206 888.5 c 128,-1,44
 1189 899 1189 899 1168.5 903.5 c 128,-1,45
 1148 908 1148 908 1131 912.5 c 128,-1,46
 1114 917 1114 917 1114 934.5 c 128,-1,47
 1114 952 1114 952 1124 952 c 2,48,-1
 1491 952 l 1,49,50
 1495 945.333333333 1495 945.333333333 1495 930.666666667 c 128,-1,51
 1495 916 1495 916 1490 912.5 c 0,52,53
 1483.59756098 908.018292683 1483.59756098 908.018292683 1424 902.5 c 0,54,55
 1325.75184275 893.402948403 1325.75184275 893.402948403 1288 833 c 2,56,-1
 993 366 l 1,57,-1
 1118 151 l 2,58,59
 1174.35 53 1174.35 53 1255 53 c 0,60,61
 1298.4 53 1298.4 53 1340.2 72 c 128,-1,62
 1382 91 1382 91 1397 96 c 1,0,1
651.141247218 139.321345708 m 128,-1,64
 738.05800464 186.642691415 738.05800464 186.642691415 825 260 c 1,65,66
 842 276 842 276 841.5 285 c 128,-1,67
 841 294 841 294 841 296 c 0,68,69
 840 298 840 298 840 301 c 1,70,71
 705 533 705 533 508 691 c 0,72,73
 497 700 497 700 482 713 c 128,-1,74
 467 726 467 726 453 726 c 256,75,76
 435.333333333 726 435.333333333 726 394.666666667 702 c 0,77,78
 309.976663786 652.019014693 309.976663786 652.019014693 256.488331893 560.774213229 c 128,-1,79
 203 469.529411765 203 469.529411765 203 394.264705882 c 0,80,81
 203 262.324324324 203 262.324324324 283.794871795 177.162162162 c 128,-1,82
 364.58974359 92 364.58974359 92 464.407116693 92 c 128,-1,63
 564.224489796 92 564.224489796 92 651.141247218 139.321345708 c 128,-1,64
694 1065 m 0,83,84
 694 1251 694 1251 537 1251 c 0,85,86
 435.945454545 1251 435.945454545 1251 406 1159.5 c 0,87,88
 397 1132 397 1132 397 1078.375 c 128,-1,89
 397 1024.75 397 1024.75 438.131386861 957.91149635 c 128,-1,90
 479.262773723 891.072992701 479.262773723 891.072992701 549 848 c 1,91,92
 610.821355236 858.909650924 610.821355236 858.909650924 652.410677618 928.954825462 c 128,-1,93
 694 999 694 999 694 1065 c 0,83,84
EndSplineSet
Substitution2: "'smcp' Lowercase to Small Capitals in Latin lookup 3 subtable" ampersand.sc
EndChar

StartChar: quotesingle
Encoding: 39 39 10
Width: 465
GlyphClass: 2
Flags: W
LayerCount: 2
Fore
SplineSet
195 814 m 1,0,1
 190.402173913 882.967391304 190.402173913 882.967391304 159.701086957 1086.71096838 c 128,-1,2
 129 1290.45454545 129 1290.45454545 129 1325.26060606 c 0,3,4
 129 1360.06666667 129 1360.06666667 163 1385 c 128,-1,5
 197.090909091 1410 197.090909091 1410 234.818181818 1410 c 0,6,7
 272.545454545 1410 272.545454545 1410 305.272727273 1385.17241379 c 128,-1,8
 338 1360.34482759 338 1360.34482759 338 1327.17241379 c 128,-1,9
 338 1294 338 1294 330 1232 c 128,-1,10
 322 1170 322 1170 311 1097 c 128,-1,11
 300 1024 300 1024 288.5 949 c 128,-1,12
 277 874 277 874 270 814 c 1,13,-1
 195 814 l 1,0,1
EndSplineSet
EndChar

StartChar: parenleft
Encoding: 40 40 11
Width: 650
GlyphClass: 2
Flags: W
LayerCount: 2
Fore
SplineSet
567 1722 m 0,0,1
 575.333333333 1732 575.333333333 1732 584.266666667 1732 c 0,2,3
 593.2 1732 593.2 1732 609.6 1708.57142857 c 128,-1,4
 626 1685.14285714 626 1685.14285714 626 1673.57142857 c 128,-1,5
 626 1662 626 1662 620 1652 c 0,6,7
 299 1160.07792208 299 1160.07792208 299 602.957792208 c 128,-1,8
 299 45.8376623377 299 45.8376623377 620 -444 c 1,9,10
 626 -455 626 -455 626 -466.071428571 c 0,11,12
 626 -477.142857143 626 -477.142857143 609.6 -500.571428571 c 128,-1,13
 593.2 -524 593.2 -524 584.266666667 -524 c 128,-1,14
 575.333333333 -524 575.333333333 -524 567 -514 c 0,15,16
 275.861930642 -165.834886128 275.861930642 -165.834886128 196.5 301 c 0,17,18
 171 451 171 451 171 602.5 c 0,19,20
 171 910.050505051 171 910.050505051 271.62343946 1201.75683965 c 128,-1,21
 372.24687892 1493.46317424 372.24687892 1493.46317424 567 1722 c 0,0,1
EndSplineSet
EndChar

StartChar: parenright
Encoding: 41 41 12
Width: 650
GlyphClass: 2
Flags: W
LayerCount: 2
Fore
SplineSet
30 1652 m 0,0,1
 24 1662 24 1662 24 1679.9375 c 128,-1,2
 24 1697.875 24 1697.875 43.5 1714.9375 c 128,-1,3
 63 1732 63 1732 68.8333333333 1732 c 128,-1,4
 74.6666666667 1732 74.6666666667 1732 83 1722 c 0,5,6
 376.840078973 1383.63869694 376.840078973 1383.63869694 454.5 905 c 0,7,8
 479 754 479 754 479 602.5 c 0,9,10
 479 296.35 479 296.35 377.198971642 6.21706918043 c 128,-1,11
 275.397943285 -283.915861639 275.397943285 -283.915861639 83 -514 c 0,12,13
 74.6666666667 -524 74.6666666667 -524 65.7333333333 -524 c 0,14,15
 56.8 -524 56.8 -524 40.4 -500.571428571 c 128,-1,16
 24 -477.142857143 24 -477.142857143 24 -466.071428571 c 128,-1,17
 24 -455 24 -455 30 -444 c 1,18,19
 351 45.8376623377 351 45.8376623377 351 602.957792208 c 128,-1,20
 351 1160.07792208 351 1160.07792208 30 1652 c 0,0,1
EndSplineSet
EndChar

StartChar: asterisk
Encoding: 42 42 13
Width: 741
GlyphClass: 2
Flags: W
LayerCount: 2
Fore
SplineSet
687 1377 m 1,0,-1
 701 1335 l 1,1,-1
 473 1217 l 1,2,-1
 586 987 l 1,3,-1
 551 961 l 1,4,-1
 370 1143 l 1,5,-1
 186 965 l 1,6,-1
 149 989 l 1,7,-1
 266 1217 l 1,8,-1
 40 1337 l 1,9,-1
 51 1380 l 1,10,-1
 304 1341 l 1,11,-1
 348 1594 l 1,12,-1
 392 1594 l 1,13,-1
 433 1341 l 1,14,-1
 687 1377 l 1,0,-1
EndSplineSet
EndChar

StartChar: plus
Encoding: 43 43 14
Width: 1049
GlyphClass: 2
Flags: W
LayerCount: 2
Fore
SplineSet
88 689 m 1,0,-1
 463 689 l 1,1,-1
 463 1078 l 1,2,-1
 590 1078 l 1,3,-1
 590 689 l 1,4,-1
 960 689 l 1,5,-1
 960 562 l 1,6,-1
 590 562 l 1,7,-1
 590 177 l 1,8,-1
 463 177 l 1,9,-1
 463 562 l 1,10,-1
 88 562 l 1,11,-1
 88 689 l 1,0,-1
EndSplineSet
AlternateSubs2: "'salt' Stylistic Alternatives in Greek lookup 33 subtable" plus.01
EndChar

StartChar: comma
Encoding: 44 44 15
Width: 520
GlyphClass: 2
Flags: W
LayerCount: 2
Fore
SplineSet
399 52 m 0,0,1
 399 -133.8125 399 -133.8125 224 -258.5 c 0,2,3
 184 -287 184 -287 163.5 -287 c 0,4,5
 149 -287 149 -287 149 -260 c 256,6,7
 149 -243.666666667 149 -243.666666667 170.5 -229.333333333 c 128,-1,8
 192 -215 192 -215 202.5 -205.5 c 0,9,10
 303 -114.571428571 303 -114.571428571 303 -41 c 0,11,12
 303 -12.2666666667 303 -12.2666666667 291.5 -6.13333333333 c 128,-1,13
 280 0 280 0 241.785714286 0 c 0,14,15
 203.571428571 0 203.571428571 0 162.285714286 28.9 c 128,-1,16
 121 57.8 121 57.8 121 113.809090909 c 128,-1,17
 121 169.818181818 121 169.818181818 147.5 193.909090909 c 0,18,19
 193.8 236 193.8 236 236.4 236 c 0,20,21
 314.172413793 236 314.172413793 236 356.586206897 174.5 c 128,-1,22
 399 113 399 113 399 52 c 0,0,1
EndSplineSet
EndChar

StartChar: hyphen
Encoding: 45 45 16
Width: 913
GlyphClass: 2
Flags: W
LayerCount: 2
Fore
SplineSet
828 578 m 1,0,-1
 828 441 l 1,1,-1
 85 441 l 1,2,-1
 85 578 l 1,3,-1
 828 578 l 1,0,-1
EndSplineSet
EndChar

StartChar: period
Encoding: 46 46 17
Width: 520
GlyphClass: 2
Flags: W
LayerCount: 2
Fore
SplineSet
168.208333333 193.7 m 128,-1,1
 206.416666667 233 206.416666667 233 260 233 c 256,2,3
 313 233 313 233 351.5 194.5 c 128,-1,4
 390 156 390 156 390 101.222222222 c 0,5,6
 390 46.4444444444 390 46.4444444444 352.228571429 9.72222222222 c 128,-1,7
 314.457142857 -27 314.457142857 -27 260 -27 c 256,8,9
 206.588235294 -27 206.588235294 -27 168.294117647 10.2 c 0,10,11
 130 47.4 130 47.4 130 100.9 c 128,-1,0
 130 154.4 130 154.4 168.208333333 193.7 c 128,-1,1
EndSplineSet
EndChar

StartChar: slash
Encoding: 47 47 18
Width: 664
GlyphClass: 2
Flags: W
LayerCount: 2
Fore
SplineSet
529 1452 m 1,0,-1
 659 1452 l 1,1,-1
 134 -27 l 1,2,-1
 5 -27 l 1,3,-1
 529 1452 l 1,0,-1
EndSplineSet
AlternateSubs2: "'salt' Stylistic Alternatives in Greek lookup 31 subtable" slash.01
EndChar

StartChar: zero
Encoding: 48 48 19
Width: 1049
GlyphClass: 2
Flags: W
LayerCount: 2
Fore
SplineSet
76 693 m 2,0,1
 76 939.734939759 76 939.734939759 214.102272727 1159.36746988 c 128,-1,2
 352.204545455 1379 352.204545455 1379 521 1379 c 0,3,4
 653.696969697 1379 653.696969697 1379 759.399626319 1277.40230092 c 128,-1,5
 865.102282941 1175.80460183 865.102282941 1175.80460183 919.05114147 1011.88307015 c 128,-1,6
 973 847.961538462 973 847.961538462 973 669 c 256,7,8
 973 395.683544304 973 395.683544304 850.5 191 c 0,9,10
 768.986711256 54.8005808325 768.986711256 54.8005808325 651.5 0.5 c 0,11,12
 592 -27 592 -27 527.5 -27 c 0,13,14
 406.925531915 -27 406.925531915 -27 303.188830427 71.49747414 c 128,-1,15
 199.452128939 169.99494828 199.452128939 169.99494828 137.72606447 316.463575835 c 128,-1,16
 76 462.93220339 76 462.93220339 76 600 c 2,17,-1
 76 693 l 2,0,1
531 32 m 0,18,19
 811 32 811 32 811 612.738095238 c 0,20,21
 811 855.588235294 811 855.588235294 801 940.294117647 c 0,22,23
 780.28638867 1115.75059009 780.28638867 1115.75059009 721.5 1208 c 0,24,25
 650.12745098 1320 650.12745098 1320 515 1320 c 0,26,27
 260.797297297 1320 260.797297297 1320 240 807 c 0,28,29
 237 733 237 733 237 629 c 0,30,31
 237 355.787878788 237 355.787878788 296 206.5 c 0,32,33
 364.964071856 32 364.964071856 32 531 32 c 0,18,19
EndSplineSet
Substitution2: "'subs' Subscript in Latin lookup 28 subtable" zeroinferior
Substitution2: "'sups' Superscript in Latin lookup 27 subtable" zerosuperior
Substitution2: "'pnum' Proportional Numbers lookup 26 subtable" zero.pnum
Substitution2: "'onum' Oldstyle Figures lookup 25 subtable" zero.oldstyle
EndChar

StartChar: one
Encoding: 49 49 20
Width: 1049
GlyphClass: 2
Flags: W
LayerCount: 2
Fore
SplineSet
210 1029 m 257,0,1
 203 1029 203 1029 190 1055 c 1,2,3
 190 1058 190 1058 225.845847554 1081.60580205 c 0,4,5
 261.691695108 1105.2116041 261.691695108 1105.2116041 368.945931658 1200.04692905 c 128,-1,6
 476.200168209 1294.88225399 476.200168209 1294.88225399 546 1379 c 1,7,-1
 602 1379 l 2,8,9
 615 1379 615 1379 618 1375 c 128,-1,10
 621 1371 621 1371 621 1360 c 2,11,-1
 621 140 l 2,12,13
 621 77.4 621 77.4 634.5 69.2 c 0,14,15
 682.573170732 40 682.573170732 40 833 40 c 0,16,17
 841 40 841 40 841 32 c 2,18,-1
 841 8 l 2,19,20
 841 0 841 0 833 0 c 2,21,-1
 231 0 l 2,22,23
 223 0 223 0 223 8 c 2,24,-1
 223 32 l 2,25,26
 223 40 223 40 231 40 c 0,27,28
 281 43 281 43 318 44.5 c 128,-1,29
 355 46 355 46 395.951672862 49.7918215613 c 128,-1,30
 436.903345725 53.5836431227 436.903345725 53.5836431227 453.451672862 62.7918215613 c 128,-1,31
 470 72 470 72 473 90 c 128,-1,32
 476 108 476 108 476 137 c 2,33,-1
 476 1202 l 1,34,35
 477 1204 477 1204 454.5 1186 c 0,36,37
 324.467532468 1081.97402597 324.467532468 1081.97402597 216 1030 c 1,38,-1
 210 1029 l 257,0,1
EndSplineSet
Substitution2: "'subs' Subscript in Latin lookup 28 subtable" oneinferior
Substitution2: "'sups' Superscript in Latin lookup 27 subtable" onesuperior
Substitution2: "'pnum' Proportional Numbers lookup 26 subtable" one.pnum
Substitution2: "'onum' Oldstyle Figures lookup 25 subtable" one.oldstyle
EndChar

StartChar: two
Encoding: 50 50 21
Width: 1049
GlyphClass: 2
Flags: W
LayerCount: 2
Fore
SplineSet
129 963 m 1,0,-1
 105 960 l 1,1,2
 95 960 95 960 95 965.5 c 0,3,4
 95 994.448275862 95 994.448275862 127.912774725 1089.78183024 c 128,-1,5
 160.825549451 1185.11538462 160.825549451 1185.11538462 203.912774725 1229.55769231 c 0,6,7
 348.798463868 1379 348.798463868 1379 529.754372121 1379 c 128,-1,8
 710.710280374 1379 710.710280374 1379 820.855140187 1265.67788462 c 128,-1,9
 931 1152.35576923 931 1152.35576923 931 980.79217033 c 128,-1,10
 931 809.228571429 931 809.228571429 709 601.5 c 0,11,12
 639 536 639 536 591.5 495.5 c 0,13,14
 531.689486553 444.503667482 531.689486553 444.503667482 380.344743276 297.362944852 c 128,-1,15
 229 150.222222222 229 150.222222222 229 135 c 1,16,-1
 792 135 l 2,17,18
 865.365853659 135 865.365853659 135 895 175.5 c 0,19,20
 912.898550725 199.961352657 912.898550725 199.961352657 941 303 c 1,21,-1
 979 303 l 1,22,-1
 936 33 l 2,23,24
 931.408163265 10.0408163265 931.408163265 10.0408163265 913 0 c 1,25,-1
 81 0 l 2,26,27
 76 0 76 0 76 26 c 256,28,29
 76 51.2307692308 76 51.2307692308 122.5 104.115384615 c 128,-1,30
 169 157 169 157 241.5 229.5 c 128,-1,31
 314 302 314 302 438.502632503 428.231835732 c 0,32,33
 757 751.152777778 757 751.152777778 757 944.719552661 c 0,34,35
 757 1063.75949367 757 1063.75949367 670.261363636 1160.37974684 c 128,-1,36
 583.522727273 1257 583.522727273 1257 469.178030303 1257 c 128,-1,37
 354.833333333 1257 354.833333333 1257 265 1180 c 1,38,39
 176.928104575 1102.7124183 176.928104575 1102.7124183 146.5 981 c 0,40,41
 142 963 142 963 129 963 c 1,0,-1
EndSplineSet
Substitution2: "'subs' Subscript in Latin lookup 28 subtable" twoinferior
Substitution2: "'sups' Superscript in Latin lookup 27 subtable" twosuperior
Substitution2: "'pnum' Proportional Numbers lookup 26 subtable" two.pnum
Substitution2: "'onum' Oldstyle Figures lookup 25 subtable" two.oldstyle
EndChar

StartChar: three
Encoding: 51 51 22
Width: 1049
GlyphClass: 2
Flags: W
LayerCount: 2
Fore
SplineSet
590 831 m 1,0,1
 602 833 602 833 625.5 833 c 0,2,3
 742 833 742 833 839 736 c 128,-1,4
 936 639 936 639 936 488.655844156 c 128,-1,5
 936 338.311688312 936 338.311688312 856.276119403 223.385055243 c 128,-1,6
 776.552238806 108.458422175 776.552238806 108.458422175 658.026119403 40.7292110874 c 128,-1,7
 539.5 -27 539.5 -27 429 -27 c 0,8,9
 185.7 -27 185.7 -27 97.5 71 c 0,10,11
 75 96 75 96 65 131 c 1,12,13
 65 198 65 198 148 198 c 0,14,15
 169.333333333 198 169.333333333 198 232.696078431 148.411764706 c 128,-1,16
 296.058823529 98.8235294118 296.058823529 98.8235294118 351.904411765 66.9117647059 c 128,-1,17
 407.75 35 407.75 35 477.875 37 c 0,18,19
 609.05613008 40.7413513035 609.05613008 40.7413513035 691.52806504 163.364096704 c 128,-1,20
 774 285.986842105 774 285.986842105 774 431.370232647 c 128,-1,21
 774 576.753623188 774 576.753623188 701.964788732 650.876811594 c 128,-1,22
 629.929577465 725 629.929577465 725 531 725 c 0,23,24
 478.2 725 478.2 725 443.1 705.5 c 128,-1,25
 408 686 408 686 402 678 c 128,-1,26
 396 670 396 670 391.5 670 c 128,-1,27
 387 670 387 670 380 678 c 128,-1,28
 373 686 373 686 373 692 c 128,-1,29
 373 698 373 698 379.5 704.5 c 128,-1,30
 386 711 386 711 395 718.5 c 128,-1,31
 404 726 404 726 413 733 c 0,32,33
 662 926.666666667 662 926.666666667 662 1072.58475232 c 0,34,35
 662 1156.68421053 662 1156.68421053 599.235294118 1212.84210526 c 128,-1,36
 536.470588235 1269 536.470588235 1269 464.735294118 1269 c 0,37,38
 280.909090909 1269 280.909090909 1269 168 1062 c 0,39,40
 167 1061 167 1061 160.3 1061 c 128,-1,41
 153.6 1061 153.6 1061 140.8 1066.81818182 c 128,-1,42
 128 1072.63636364 128 1072.63636364 128 1075.81818182 c 128,-1,43
 128 1079 128 1079 130.5 1085 c 128,-1,44
 133 1091 133 1091 146 1124 c 128,-1,45
 159 1157 159 1157 200.5 1208.5 c 128,-1,46
 242 1260 242 1260 292 1298 c 0,47,48
 398.578947368 1379 398.578947368 1379 485.289473684 1379 c 0,49,50
 643.262295082 1379 643.262295082 1379 725.131147541 1315.78481013 c 128,-1,51
 807 1252.56962025 807 1252.56962025 807 1140.28481013 c 128,-1,52
 807 1028 807 1028 685 906 c 1,53,54
 663.857142857 890.142857143 663.857142857 890.142857143 625.428571429 863.359307359 c 128,-1,55
 587 836.575757576 587 836.575757576 587 832 c 2,56,-1
 587 831 l 1,57,-1
 590 831 l 1,0,1
EndSplineSet
Substitution2: "'subs' Subscript in Latin lookup 28 subtable" threeinferior
Substitution2: "'sups' Superscript in Latin lookup 27 subtable" threesuperior
Substitution2: "'pnum' Proportional Numbers lookup 26 subtable" three.pnum
Substitution2: "'onum' Oldstyle Figures lookup 25 subtable" three.oldstyle
EndChar

StartChar: four
Encoding: 52 52 23
Width: 1049
GlyphClass: 2
Flags: W
LayerCount: 2
Fore
SplineSet
87 396 m 2,0,1
 63 396 63 396 63 414.5 c 0,2,3
 63 433 63 433 71 445 c 2,4,-1
 691 1356 l 2,5,6
 705.882352941 1379 705.882352941 1379 725.941176471 1379 c 128,-1,7
 746 1379 746 1379 757.5 1376 c 128,-1,8
 769 1373 769 1373 769 1353 c 2,9,-1
 769 531 l 2,10,11
 769 515 769 515 774 510.5 c 128,-1,12
 779 506 779 506 794 506 c 2,13,-1
 955 506 l 2,14,15
 966 506 966 506 976 504 c 128,-1,16
 986 502 986 502 986 488 c 2,17,-1
 986 420 l 2,18,19
 986 396 986 396 966 396 c 2,20,-1
 795 396 l 2,21,22
 776 396 776 396 772.5 391 c 128,-1,23
 769 386 769 386 769 372 c 2,24,-1
 769 -15 l 2,25,26
 769 -37 769 -37 752 -37 c 2,27,-1
 644 -37 l 2,28,29
 624 -37 624 -37 624 -14 c 2,30,-1
 624 372 l 2,31,32
 624 386 624 386 619.5 391 c 128,-1,33
 615 396 615 396 598 396 c 2,34,-1
 87 396 l 2,0,1
624 1080 m 2,35,36
 624 1119 624 1119 600 1119 c 0,37,38
 592 1119 592 1119 571 1098 c 1,39,-1
 187 526 l 2,40,41
 183 521 183 521 183 513.5 c 128,-1,42
 183 506 183 506 214 506 c 2,43,-1
 598 506 l 2,44,45
 615 506 615 506 619.5 513 c 128,-1,46
 624 520 624 520 624 532 c 2,47,-1
 624 1080 l 2,35,36
EndSplineSet
Substitution2: "'subs' Subscript in Latin lookup 28 subtable" fourinferior
Substitution2: "'sups' Superscript in Latin lookup 27 subtable" foursuperior
Substitution2: "'pnum' Proportional Numbers lookup 26 subtable" four.pnum
Substitution2: "'onum' Oldstyle Figures lookup 25 subtable" four.oldstyle
EndChar

StartChar: five
Encoding: 53 53 24
Width: 1049
GlyphClass: 2
Flags: W
LayerCount: 2
Fore
SplineSet
265 1203 m 2,0,-1
 249 831 l 2,1,2
 249 819 249 819 250 820 c 0,3,4
 278.59375 848.59375 278.59375 848.59375 356.796875 861.796875 c 128,-1,5
 435 875 435 875 475.5 875 c 0,6,7
 563 875 563 875 669.105638587 828.313519022 c 128,-1,8
 775.211277174 781.627038043 775.211277174 781.627038043 850.105638587 688.265573816 c 128,-1,9
 925 594.904109589 925 594.904109589 925 481.452054795 c 0,10,11
 925 286.848101266 925 286.848101266 844.607632094 175.926986054 c 128,-1,12
 764.215264188 65.0058708415 764.215264188 65.0058708415 644.607632094 19.0029354207 c 128,-1,13
 525 -27 525 -27 396.5 -27 c 128,-1,14
 268 -27 268 -27 174 20 c 0,15,16
 111.166666667 51.4166666667 111.166666667 51.4166666667 104 98 c 1,17,18
 104 133 104 133 127.5 154.5 c 128,-1,19
 151 176 151 176 181.5 176 c 128,-1,20
 212 176 212 176 245 152.5 c 128,-1,21
 278 129 278 129 311.5 100.5 c 128,-1,22
 345 72 345 72 379.5 48.5 c 128,-1,23
 414 25 414 25 459.5 25 c 0,24,25
 553 25 553 25 623.608695652 85.5217391304 c 128,-1,26
 694.217391304 146.043478261 694.217391304 146.043478261 728.108695652 230.77173913 c 128,-1,27
 762 315.5 762 315.5 762 389.25 c 0,28,29
 762 524.711864407 762 524.711864407 702.741083835 602.049771944 c 128,-1,30
 643.48216767 679.387679481 643.48216767 679.387679481 566.587237681 705.693839741 c 128,-1,31
 489.692307692 732 489.692307692 732 434.846153846 732 c 128,-1,32
 380 732 380 732 344 720 c 128,-1,33
 308 708 308 708 279.5 693.5 c 128,-1,34
 251 679 251 679 232.5 666.5 c 128,-1,35
 214 654 214 654 208 651 c 128,-1,36
 202 648 202 648 195.5 648 c 128,-1,37
 189 648 189 648 189 663 c 2,38,-1
 219 1338 l 1,39,-1
 728 1338 l 2,40,41
 776.2 1338 776.2 1338 786 1362.5 c 0,42,43
 789 1370 789 1370 794 1379 c 1,44,-1
 835 1379 l 1,45,-1
 811 1210 l 1,46,-1
 286 1210 l 2,47,48
 265 1210 265 1210 265 1203 c 2,0,-1
EndSplineSet
Substitution2: "'subs' Subscript in Latin lookup 28 subtable" fiveinferior
Substitution2: "'sups' Superscript in Latin lookup 27 subtable" fivesuperior
Substitution2: "'pnum' Proportional Numbers lookup 26 subtable" five.pnum
Substitution2: "'onum' Oldstyle Figures lookup 25 subtable" five.oldstyle
EndChar

StartChar: six
Encoding: 54 54 25
Width: 1049
GlyphClass: 2
Flags: W
LayerCount: 2
Fore
SplineSet
916 1361.86065574 m 128,-1,1
 916 1346.72131148 916 1346.72131148 834 1302.36065574 c 128,-1,2
 752 1258 752 1258 731.5 1244 c 0,3,4
 667.132124352 1200.04145078 667.132124352 1200.04145078 602.5 1148 c 0,5,6
 388.288422751 975.517950787 388.288422751 975.517950787 385 867 c 1,7,8
 393 867 393 867 403.5 872 c 128,-1,9
 414 877 414 877 441.5 888 c 128,-1,10
 469 899 469 899 540.5 899 c 128,-1,11
 612 899 612 899 694.5 862.5 c 128,-1,12
 777 826 777 826 837 763.5 c 0,13,14
 965 630.166666667 965 630.166666667 965 436.214480874 c 128,-1,15
 965 242.262295082 965 242.262295082 834.642857143 107.631147541 c 128,-1,16
 704.285714286 -27 704.285714286 -27 510.411313519 -27 c 128,-1,17
 316.536912752 -27 316.536912752 -27 198.268456376 131.756756757 c 128,-1,18
 80 290.513513514 80 290.513513514 80 502 c 0,19,20
 80 764.858823529 80 764.858823529 251 960 c 0,21,22
 398.91442572 1128.79646229 398.91442572 1128.79646229 755 1324 c 0,23,24
 794.945205479 1346.19178082 794.945205479 1346.19178082 839.97260274 1361.59589041 c 128,-1,25
 885 1377 885 1377 900.5 1377 c 128,-1,0
 916 1377 916 1377 916 1361.86065574 c 128,-1,1
247 444 m 2,26,27
 247 287 247 287 306 169 c 0,28,29
 377.5 26 377.5 26 517.28125 26 c 128,-1,30
 657.0625 26 657.0625 26 728.5 153 c 0,31,32
 788 258.777777778 788 258.777777778 788 410 c 0,33,34
 788 705.230769231 788 705.230769231 630.5 803.5 c 0,35,36
 572 840 572 840 493.5 840 c 0,37,38
 355.857142857 840 355.857142857 840 298 727.5 c 0,39,40
 249.220640569 632.651245552 249.220640569 632.651245552 247 455 c 1,41,-1
 247 444 l 2,26,27
EndSplineSet
Substitution2: "'subs' Subscript in Latin lookup 28 subtable" sixinferior
Substitution2: "'sups' Superscript in Latin lookup 27 subtable" sixsuperior
Substitution2: "'pnum' Proportional Numbers lookup 26 subtable" six.pnum
Substitution2: "'onum' Oldstyle Figures lookup 25 subtable" six.oldstyle
EndChar

StartChar: seven
Encoding: 55 55 26
Width: 1049
GlyphClass: 2
Flags: W
LayerCount: 2
Fore
SplineSet
952 1338 m 2,0,1
 980 1338 980 1338 980 1298.75 c 128,-1,2
 980 1259.5 980 1259.5 963 1217 c 1,3,-1
 403 -27 l 1,4,-1
 291 -27 l 1,5,-1
 291 -4 l 1,6,7
 386 208 386 208 458 370 c 128,-1,8
 530 532 530 532 583.5 652 c 0,9,10
 781.749391727 1096.67153285 781.749391727 1096.67153285 797.374695864 1136.33576642 c 128,-1,11
 813 1176 813 1176 786 1176 c 2,12,-1
 236 1176 l 2,13,14
 216 1176 216 1176 198.5 1160 c 128,-1,15
 181 1144 181 1144 175 1126 c 2,16,-1
 121 972 l 1,17,18
 116.090909091 954 116.090909091 954 99 954 c 256,19,20
 80 954 80 954 80 969 c 1,21,-1
 140 1317 l 1,22,23
 148.4 1338 148.4 1338 156 1338 c 2,24,-1
 952 1338 l 2,0,1
EndSplineSet
Substitution2: "'subs' Subscript in Latin lookup 28 subtable" seveninferior
Substitution2: "'sups' Superscript in Latin lookup 27 subtable" sevensuperior
Substitution2: "'pnum' Proportional Numbers lookup 26 subtable" seven.pnum
Substitution2: "'onum' Oldstyle Figures lookup 25 subtable" seven.oldstyle
EndChar

StartChar: eight
Encoding: 56 56 27
Width: 1049
GlyphClass: 2
Flags: W
LayerCount: 2
Fore
SplineSet
162 304 m 0,0,1
 162 484.428571429 162 484.428571429 298.5 587.5 c 2,2,3
 366 638.469387755 l 2,4,5
 409 670.93877551 409 670.93877551 409 680.719387755 c 128,-1,6
 409 690.5 409 690.5 356.917112299 739.689393939 c 128,-1,7
 304.834224599 788.878787879 304.834224599 788.878787879 251.917112299 867.790271132 c 128,-1,8
 199 946.701754386 199 946.701754386 199 1035.85087719 c 0,9,10
 199 1197.44705882 199 1197.44705882 288.720930233 1288.22352941 c 128,-1,11
 378.441860465 1379 378.441860465 1379 519.443152455 1379 c 128,-1,12
 660.444444444 1379 660.444444444 1379 758.722222222 1291.52197802 c 128,-1,13
 857 1204.04395604 857 1204.04395604 857 1073 c 0,14,15
 857 984.434782609 857 984.434782609 807 904 c 1,16,17
 776.149425287 857.724137931 776.149425287 857.724137931 722.574712644 816.862068966 c 128,-1,18
 669 776 669 776 647.5 760.5 c 128,-1,19
 626 745 626 745 626 739.666666667 c 128,-1,20
 626 734.333333333 626 734.333333333 658 708.666666667 c 0,21,22
 763.914511299 623.714402396 763.914511299 623.714402396 812.5 557 c 0,23,24
 885 457.447761194 885 457.447761194 885 319.513354281 c 128,-1,25
 885 181.578947368 885 181.578947368 782.291666667 77.7894736842 c 128,-1,26
 679.583333333 -26 679.583333333 -26 533.653735632 -26 c 128,-1,27
 387.724137931 -26 387.724137931 -26 274.862068966 67.5142857143 c 128,-1,28
 162 161.028571429 162 161.028571429 162 304 c 0,0,1
289 301 m 2,29,30
 289 183.545454545 289 183.545454545 359.038461538 100.772727273 c 128,-1,31
 429.076923077 18 429.076923077 18 524.678167421 18 c 128,-1,32
 620.279411765 18 620.279411765 18 686.639705882 89.626984127 c 128,-1,33
 753 161.253968254 753 161.253968254 753 297 c 0,34,35
 753 385 753 385 636 502 c 0,36,37
 625 513 625 513 603 537 c 128,-1,38
 581 561 581 561 534.489795918 604 c 128,-1,39
 487.979591837 647 487.979591837 647 460.989795918 647 c 128,-1,40
 434 647 434 647 419.5 630 c 128,-1,41
 405 613 405 613 394 601 c 0,42,43
 289 488.5 289 488.5 289 313 c 2,44,-1
 289 301 l 2,29,30
392.5 945 m 0,45,46
 436.741935484 890.548387097 436.741935484 890.548387097 549 797 c 0,47,48
 565 783 565 783 585 783 c 128,-1,49
 605 783 605 783 613.5 788 c 128,-1,50
 622 793 622 793 652.642857143 823.642857143 c 128,-1,51
 683.285714286 854.285714286 683.285714286 854.285714286 712.142857143 928.031746032 c 128,-1,52
 741 1001.77777778 741 1001.77777778 741 1062.38888889 c 0,53,54
 741 1182.37037037 741 1182.37037037 684.581081081 1259.68518519 c 128,-1,55
 628.162162162 1337 628.162162162 1337 531.686344239 1337 c 128,-1,56
 435.210526316 1337 435.210526316 1337 377.605263158 1276.19444444 c 128,-1,57
 320 1215.38888889 320 1215.38888889 320 1124.80982906 c 128,-1,58
 320 1034.23076923 320 1034.23076923 392.5 945 c 0,45,46
EndSplineSet
Substitution2: "'subs' Subscript in Latin lookup 28 subtable" eightinferior
Substitution2: "'sups' Superscript in Latin lookup 27 subtable" eightsuperior
Substitution2: "'pnum' Proportional Numbers lookup 26 subtable" eight.pnum
Substitution2: "'onum' Oldstyle Figures lookup 25 subtable" eight.oldstyle
EndChar

StartChar: nine
Encoding: 57 57 28
Width: 1049
GlyphClass: 2
Flags: W
LayerCount: 2
Fore
SplineSet
109 -25 m 0,0,1
 103 -25 103 -25 103 -14.25 c 128,-1,2
 103 -3.5 103 -3.5 123 9 c 1,3,4
 496.548997135 170.685386819 496.548997135 170.685386819 663.5 432 c 0,5,6
 691 475.043478261 691 475.043478261 691 484.02173913 c 128,-1,7
 691 493 691 493 682 493 c 1,8,-1
 580 467.5 l 2,9,10
 530 455 530 455 454.5 455 c 128,-1,11
 379 455 379 455 305 494.5 c 128,-1,12
 231 534 231 534 179 597.5 c 0,13,14
 73 726.942307692 73 726.942307692 73 908.75493763 c 128,-1,15
 73 1090.56756757 73 1090.56756757 192.462686567 1234.78378378 c 128,-1,16
 311.925373134 1379 311.925373134 1379 512.617858981 1379 c 128,-1,17
 713.310344828 1379 713.310344828 1379 845.155172414 1224.8266129 c 128,-1,18
 977 1070.65322581 977 1070.65322581 977 851 c 0,19,20
 977 581.905660377 977 581.905660377 813.370656257 372.995240379 c 128,-1,21
 649.741312515 164.08482038 649.741312515 164.08482038 384 49 c 1,22,23
 217.5 -25 217.5 -25 109 -25 c 0,0,1
253 887 m 2,24,25
 253 742.64 253 742.64 333.831775701 627.32 c 128,-1,26
 414.663551402 512 414.663551402 512 543 512 c 0,27,28
 621.3 512 621.3 512 670.65 533 c 128,-1,29
 720 554 720 554 738.5 569 c 0,30,31
 791 611.567567568 791 611.567567568 791 833.8 c 0,32,33
 791 975.227272727 791 975.227272727 776.5 1043.11363636 c 0,34,35
 747.689364328 1177.99979428 747.689364328 1177.99979428 684.689276759 1251.99989714 c 128,-1,36
 621.689189189 1326 621.689189189 1326 507 1326 c 0,37,38
 328.195652174 1326 328.195652174 1326 272 1091 c 0,39,40
 253 1011.54545455 253 1011.54545455 253 913 c 2,41,-1
 253 887 l 2,24,25
EndSplineSet
Substitution2: "'subs' Subscript in Latin lookup 28 subtable" nineinferior
Substitution2: "'sups' Superscript in Latin lookup 27 subtable" ninesuperior
Substitution2: "'pnum' Proportional Numbers lookup 26 subtable" nine.pnum
Substitution2: "'onum' Oldstyle Figures lookup 25 subtable" nine.oldstyle
EndChar

StartChar: colon
Encoding: 58 58 29
Width: 520
GlyphClass: 2
Flags: W
LayerCount: 2
Fore
SplineSet
168.208333333 193.7 m 128,-1,1
 206.416666667 233 206.416666667 233 260 233 c 256,2,3
 313 233 313 233 351.5 194.5 c 128,-1,4
 390 156 390 156 390 101.222222222 c 0,5,6
 390 46.4444444444 390 46.4444444444 352.228571429 9.72222222222 c 128,-1,7
 314.457142857 -27 314.457142857 -27 260 -27 c 256,8,9
 206.588235294 -27 206.588235294 -27 168.294117647 10.2 c 0,10,11
 130 47.4 130 47.4 130 100.9 c 128,-1,0
 130 154.4 130 154.4 168.208333333 193.7 c 128,-1,1
168.208333333 889.7 m 128,-1,13
 206.416666667 929 206.416666667 929 260 929 c 256,14,15
 313 929 313 929 351.5 890.5 c 128,-1,16
 390 852 390 852 390 797.222222222 c 0,17,18
 390 742.444444444 390 742.444444444 352.228571429 705.722222222 c 128,-1,19
 314.457142857 669 314.457142857 669 260 669 c 256,20,21
 206.588235294 669 206.588235294 669 168.294117647 706.2 c 0,22,23
 130 743.4 130 743.4 130 796.9 c 128,-1,12
 130 850.4 130 850.4 168.208333333 889.7 c 128,-1,13
EndSplineSet
EndChar

StartChar: semicolon
Encoding: 59 59 30
Width: 520
GlyphClass: 2
Flags: W
LayerCount: 2
Fore
SplineSet
168.208333333 889.7 m 128,-1,1
 206.416666667 929 206.416666667 929 260 929 c 256,2,3
 313 929 313 929 351.5 890.5 c 128,-1,4
 390 852 390 852 390 797.222222222 c 0,5,6
 390 742.444444444 390 742.444444444 352.228571429 705.722222222 c 128,-1,7
 314.457142857 669 314.457142857 669 260 669 c 256,8,9
 206.588235294 669 206.588235294 669 168.294117647 706.2 c 0,10,11
 130 743.4 130 743.4 130 796.9 c 128,-1,0
 130 850.4 130 850.4 168.208333333 889.7 c 128,-1,1
399 52 m 0,12,13
 399 -133.8125 399 -133.8125 224 -258.5 c 0,14,15
 184 -287 184 -287 163.5 -287 c 0,16,17
 149 -287 149 -287 149 -260 c 256,18,19
 149 -243.666666667 149 -243.666666667 170.5 -229.333333333 c 128,-1,20
 192 -215 192 -215 202.5 -205.5 c 0,21,22
 303 -114.571428571 303 -114.571428571 303 -41 c 0,23,24
 303 -12.2666666667 303 -12.2666666667 291.5 -6.13333333333 c 128,-1,25
 280 0 280 0 241.785714286 0 c 0,26,27
 203.571428571 0 203.571428571 0 162.285714286 28.9 c 128,-1,28
 121 57.8 121 57.8 121 113.809090909 c 128,-1,29
 121 169.818181818 121 169.818181818 147.5 193.909090909 c 0,30,31
 193.8 236 193.8 236 236.4 236 c 0,32,33
 314.172413793 236 314.172413793 236 356.586206897 174.5 c 128,-1,34
 399 113 399 113 399 52 c 0,12,13
EndSplineSet
EndChar

StartChar: less
Encoding: 60 60 31
Width: 1049
GlyphClass: 2
Flags: W
LayerCount: 2
Fore
SplineSet
368 626 m 1,0,-1
 876 323 l 1,1,-1
 876 169 l 1,2,-1
 173 587 l 1,3,-1
 173 659 l 1,4,-1
 876 1070 l 1,5,-1
 876 921 l 1,6,-1
 368 626 l 1,0,-1
EndSplineSet
AlternateSubs2: "'salt' Stylistic Alternatives in Greek lookup 31 subtable" less.01
EndChar

StartChar: equal
Encoding: 61 61 32
Width: 1049
GlyphClass: 2
Flags: W
LayerCount: 2
Fore
SplineSet
959 859 m 1,0,-1
 959 732 l 1,1,-1
 89 732 l 1,2,-1
 89 859 l 1,3,-1
 959 859 l 1,0,-1
959 519 m 1,4,-1
 959 392 l 1,5,-1
 89 392 l 1,6,-1
 89 519 l 1,7,-1
 959 519 l 1,4,-1
EndSplineSet
EndChar

StartChar: greater
Encoding: 62 62 33
Width: 1049
GlyphClass: 2
Flags: W
LayerCount: 2
Fore
SplineSet
174 921 m 1,0,-1
 174 1070 l 1,1,-1
 874 656 l 1,2,-1
 874 585 l 1,3,-1
 174 169 l 1,4,-1
 174 323 l 1,5,-1
 679 626 l 1,6,-1
 174 921 l 1,0,-1
EndSplineSet
AlternateSubs2: "'salt' Stylistic Alternatives in Greek lookup 31 subtable" greater.01
EndChar

StartChar: question
Encoding: 63 63 34
Width: 778
GlyphClass: 2
Flags: W
LayerCount: 2
Fore
SplineSet
290 371 m 1,0,1
 290 358 290 358 268.759615385 358 c 0,2,3
 247.519230769 358 247.519230769 358 205.432380203 453.152879541 c 0,4,5
 163.345529637 548.305759082 163.345529637 548.305759082 162.172764818 593.152879541 c 128,-1,6
 161 638 161 638 172.5 668.5 c 128,-1,7
 184 699 184 699 204 720.5 c 128,-1,8
 224 742 224 742 251 757 c 128,-1,9
 278 772 278 772 308 784 c 128,-1,10
 338 796 338 796 370.5 806.5 c 128,-1,11
 403 817 403 817 434.5 830 c 0,12,13
 501.975476839 857.847022188 501.975476839 857.847022188 553.98773842 922.596980482 c 128,-1,14
 606 987.346938776 606 987.346938776 606 1053.67346939 c 0,15,16
 606 1175.84 606 1175.84 514.142857143 1214.42 c 128,-1,17
 422.285714286 1253 422.285714286 1253 198 1253 c 1,18,19
 128.347826087 1256.86956522 128.347826087 1256.86956522 100.5 1294 c 0,20,21
 90 1308 90 1308 90 1329 c 0,22,23
 90 1415 90 1415 259.436893204 1415 c 128,-1,24
 428.873786408 1415 428.873786408 1415 540.936893204 1305.07142857 c 128,-1,25
 653 1195.14285714 653 1195.14285714 653 1023.61688312 c 128,-1,26
 653 852.090909091 653 852.090909091 509 731 c 0,27,28
 441.013783598 673.829772571 441.013783598 673.829772571 383.006891799 655.414886285 c 128,-1,29
 325 637 325 637 297 622.5 c 0,30,31
 231 588.321428571 231 588.321428571 231 528 c 0,32,33
 231 496.6 231 496.6 256.679245283 447.809433962 c 128,-1,34
 282.358490566 399.018867925 282.358490566 399.018867925 290 371 c 1,0,1
187 171 m 128,-1,36
 221 205 221 205 268 205 c 256,37,38
 314 205 314 205 348 171 c 128,-1,39
 382 137 382 137 382 89.7903225806 c 0,40,41
 382 42.5806451613 382 42.5806451613 348.296875 7.79032258065 c 128,-1,42
 314.59375 -27 314.59375 -27 268 -27 c 256,43,44
 220.40625 -27 220.40625 -27 186.703125 7.79032258065 c 0,45,46
 153 42.5806451613 153 42.5806451613 153 89.7903225806 c 128,-1,35
 153 137 153 137 187 171 c 128,-1,36
EndSplineSet
Substitution2: "'smcp' Lowercase to Small Capitals in Latin lookup 3 subtable" question.sc
EndChar

StartChar: at
Encoding: 64 64 35
Width: 1991
GlyphClass: 2
Flags: W
LayerCount: 2
Fore
SplineSet
1254 25 m 0,0,1
 1044 25 1044 25 1044 138.5 c 0,2,3
 1044 202.25 1044 202.25 1055 247.625 c 128,-1,4
 1066 293 1066 293 1067 310 c 128,-1,5
 1068 327 1068 327 1060 327 c 128,-1,6
 1052 327 1052 327 1038 316.5 c 128,-1,7
 1024 306 1024 306 998.5 283 c 128,-1,8
 973 260 973 260 912.896103896 207.409090909 c 0,9,10
 747.857142857 63 747.857142857 63 691.12244898 63 c 0,11,12
 627.34939759 63 627.34939759 63 598 164.5 c 0,13,14
 578 233.666666667 578 233.666666667 578 299.333333333 c 0,15,16
 578 506.653061224 578 506.653061224 732.272628844 692.409900036 c 128,-1,17
 886.545257687 878.166738848 886.545257687 878.166738848 1107 953 c 0,18,19
 1216 990 1216 990 1329 990 c 0,20,21
 1346 990 1346 990 1346 962 c 1,22,-1
 1195 270 l 2,23,24
 1194 262 1194 262 1192.5 250.75 c 128,-1,25
 1191 239.5 1191 239.5 1191 229 c 0,26,27
 1191 169 1191 169 1225 136.5 c 128,-1,28
 1259 104 1259 104 1315 104 c 0,29,30
 1422.82608696 104 1422.82608696 104 1519.91516662 199.023354565 c 128,-1,31
 1617.00424628 294.04670913 1617.00424628 294.04670913 1675.50212314 436.56880911 c 128,-1,32
 1734 579.090909091 1734 579.090909091 1734 708.545454545 c 0,33,34
 1734 979.526627219 1734 979.526627219 1557.87050883 1165.03579544 c 128,-1,35
 1381.74101765 1350.54496366 1381.74101765 1350.54496366 1061 1362 c 1,36,37
 827.15720524 1356.10480349 827.15720524 1356.10480349 636.32987813 1228.88658542 c 128,-1,38
 445.50255102 1101.66836735 445.50255102 1101.66836735 335.25127551 893.530445356 c 128,-1,39
 225 685.392523364 225 685.392523364 225 446 c 0,40,41
 225 267 225 267 288.5 117 c 128,-1,42
 352 -33 352 -33 464 -141 c 128,-1,43
 576 -249 576 -249 729 -309.5 c 128,-1,44
 882 -370 882 -370 1040.5 -370 c 0,45,46
 1329.51408451 -370 1329.51408451 -370 1520.87393095 -226.226993677 c 128,-1,47
 1712.2337774 -82.4539873534 1712.2337774 -82.4539873534 1814 173 c 1,48,-1
 1891 173 l 1,49,50
 1729.81892333 -244.174551387 1729.81892333 -244.174551387 1343 -387 c 0,51,52
 1213 -435 1213 -435 1061 -445 c 1,53,54
 804.189189189 -445 804.189189189 -445 596.351674241 -330.792256637 c 128,-1,55
 388.514159292 -216.584513274 388.514159292 -216.584513274 269.257079646 -13.0250152579 c 128,-1,56
 150 190.534482759 150 190.534482759 150 446 c 256,57,58
 150 702.974137931 150 702.974137931 270.388067365 932.334162825 c 128,-1,59
 390.77613473 1161.69418772 390.77613473 1161.69418772 599.842954583 1299.34709386 c 128,-1,60
 808.909774436 1437 808.909774436 1437 1061 1437 c 0,61,62
 1409.86363636 1437 1409.86363636 1437 1608.93181818 1228.45238095 c 128,-1,63
 1808 1019.9047619 1808 1019.9047619 1808 736 c 0,64,65
 1808 533 1808 533 1726.4245283 369.849056604 c 128,-1,66
 1644.8490566 206.698113208 1644.8490566 206.698113208 1516.40728692 115.849056604 c 128,-1,67
 1387.96551724 25 1387.96551724 25 1254 25 c 0,0,1
1185 860 m 1,68,69
 1185 876 1185 876 1147 876 c 0,70,71
 1058.24489796 876 1058.24489796 876 960.5 824.5 c 0,72,73
 786.852083741 733.008087132 786.852083741 733.008087132 740.187062082 525.237633557 c 128,-1,74
 693.522040423 317.467179981 693.522040423 317.467179981 724.5 230 c 0,75,76
 744.333333333 174 744.333333333 174 789.666666667 174 c 128,-1,77
 835 174 835 174 866 194 c 128,-1,78
 897 214 897 214 929.5 246 c 128,-1,79
 962 278 962 278 999.5 319.5 c 128,-1,80
 1037 361 1037 361 1086 405 c 1,81,-1
 1185 860 l 1,68,69
EndSplineSet
EndChar

StartChar: A
Encoding: 65 65 36
Width: 1457
GlyphClass: 2
Flags: W
AnchorPoint: "Anchor-1" 150 0 basechar 0
LayerCount: 2
Fore
SplineSet
532 8 m 2,0,1
 532 0 532 0 524 0 c 2,2,-1
 13 0 l 2,3,4
 5 0 5 0 5 8 c 2,5,-1
 5 32 l 2,6,7
 5 40 5 40 18.5 40.5 c 0,8,9
 155.252063016 45.5648912228 155.252063016 45.5648912228 203 186 c 2,10,-1
 611 1367 l 2,11,12
 612 1369 612 1369 612 1372 c 2,13,-1
 601 1405 l 257,14,15
 601 1410 601 1410 605 1410 c 2,16,-1
 805 1410 l 1,17,18
 807 1409 807 1409 810.5 1408 c 128,-1,19
 814 1407 814 1407 816 1402 c 2,20,-1
 1239 215 l 1,21,22
 1253 188 1253 188 1261.5 166 c 128,-1,23
 1270 144 1270 144 1281 125.5 c 0,24,25
 1304.83741648 85.4097995546 1304.83741648 85.4097995546 1360 63 c 1,26,27
 1406 40 1406 40 1444 40 c 0,28,29
 1452 40 1452 40 1452 31 c 2,30,-1
 1452 8 l 2,31,32
 1452 0 1452 0 1444 0 c 2,33,-1
 832 0 l 2,34,35
 824 0 824 0 824 8 c 2,36,-1
 824 32 l 2,37,38
 824 40.3902439024 824 40.3902439024 861 42.1951219512 c 128,-1,39
 898 44 898 44 922 46.5 c 0,40,41
 1061 60.9791666667 1061 60.9791666667 1061 140 c 0,42,43
 1061 146 1061 146 1059 154 c 2,44,-1
 908 580 l 2,45,46
 907 582 907 582 904.5 589 c 0,47,48
 892.357142857 623 892.357142857 623 862 623 c 2,49,-1
 507 623 l 2,50,51
 477 623 477 623 460.5 590 c 0,52,53
 457 583 457 583 457 582 c 2,54,-1
 307 143 l 1,55,-1
 307 134 l 2,56,57
 307 107.674418605 307 107.674418605 333.5 87.3372093023 c 0,58,59
 395.181818182 40 395.181818182 40 498 40 c 2,60,-1
 524 40 l 2,61,62
 532 40 532 40 532 32 c 2,63,-1
 532 8 l 2,0,1
828 734 m 2,64,65
 846 734 846 734 846 749 c 0,66,67
 846 757 846 757 842 767 c 2,68,-1
 693 1177 l 2,69,70
 683 1204 683 1204 678 1204 c 256,71,72
 672.769230769 1204 672.769230769 1204 662 1176 c 1,73,-1
 522 767 l 2,74,75
 518 757 518 757 518 745.5 c 128,-1,76
 518 734 518 734 533 734 c 2,77,-1
 828 734 l 2,64,65
EndSplineSet
EndChar

StartChar: B
Encoding: 66 66 37
Width: 1392
GlyphClass: 2
Flags: W
AnchorPoint: "Anchor-1" 150 0 basechar 0
LayerCount: 2
Fore
SplineSet
18 0 m 2,0,1
 10 0 10 0 10 8 c 2,2,-1
 10 32 l 2,3,4
 10 40 10 40 23.5 40 c 0,5,6
 71.3636363636 40 71.3636363636 40 127.5 49.5 c 0,7,8
 311 80.5538461538 311 80.5538461538 311 176 c 2,9,-1
 311 1231 l 1,10,11
 300.958016428 1359.03529054 300.958016428 1359.03529054 194.5 1370.5 c 0,12,13
 162 1374 162 1374 123 1374 c 2,14,-1
 66 1374 l 2,15,16
 58 1374 58 1374 58 1382 c 2,17,-1
 58 1407 l 2,18,19
 58 1415 58 1415 66 1415 c 2,20,-1
 110 1416 l 1,21,-1
 282 1417 l 1,22,-1
 638 1428 l 1,23,24
 1210 1428 1210 1428 1210 1090 c 0,25,26
 1210 947.2 1210 947.2 1061.5 851.5 c 0,27,28
 1039 837 1039 837 1022.5 830 c 128,-1,29
 1006 823 1006 823 1004 822 c 1,30,31
 1136.31654676 747.717026379 1136.31654676 747.717026379 1211.65827338 655.954667036 c 128,-1,32
 1287 564.192307692 1287 564.192307692 1287 436 c 0,33,34
 1287 163.43877551 1287 163.43877551 1029 55.5 c 0,35,36
 896.341463415 -3.90798504668e-14 896.341463415 -3.90798504668e-14 740 0 c 2,37,-1
 18 0 l 2,0,1
524 780 m 2,38,39
 511 780 511 780 511 769 c 2,40,-1
 511 221 l 2,41,42
 511 149.806451613 511 149.806451613 577.5 106.903225806 c 128,-1,43
 644 64 644 64 721 64 c 0,44,45
 868.587628866 64 868.587628866 64 972.793814433 169.291666667 c 128,-1,46
 1077 274.583333333 1077 274.583333333 1077 429.532232704 c 128,-1,47
 1077 584.481132075 1077 584.481132075 965.575268817 682.240566038 c 128,-1,48
 854.150537634 780 854.150537634 780 683 780 c 2,49,-1
 524 780 l 2,38,39
509 861 m 2,50,51
 509 842 509 842 532 842 c 2,52,-1
 778 842 l 2,53,54
 873.878787879 842 873.878787879 842 939.5 913 c 128,-1,55
 1005 983.868852459 1005 983.868852459 1005 1071.93442623 c 0,56,57
 1005 1229.13793103 1005 1229.13793103 916.195652174 1299.56896552 c 128,-1,58
 827.391304348 1370 827.391304348 1370 679 1370 c 1,59,60
 634.428571429 1367.42857143 634.428571429 1367.42857143 616.571428571 1367.42857143 c 128,-1,61
 598.714285714 1367.42857143 598.714285714 1367.42857143 579.857142857 1367.71428571 c 128,-1,62
 561 1368 561 1368 542 1365 c 128,-1,63
 523 1362 523 1362 516 1352 c 128,-1,64
 509 1342 509 1342 509 1319 c 2,65,-1
 509 861 l 2,50,51
EndSplineSet
AlternateSubs2: "'salt' Stylistic Alternatives in Latin lookup 24 subtable" B.tall
EndChar

StartChar: C
Encoding: 67 67 38
Width: 1566
GlyphClass: 2
Flags: W
AnchorPoint: "Anchor-1" 280 0 basechar 0
LayerCount: 2
Fore
SplineSet
1345 38 m 1,0,1
 1339.6039886 29.905982906 1339.6039886 29.905982906 1320.46866097 34.452991453 c 128,-1,2
 1301.33333333 39 1301.33333333 39 1275.16666667 39 c 128,-1,3
 1249 39 1249 39 1201.5 28.5 c 128,-1,4
 1154 18 1154 18 1051.8125 -4.5 c 128,-1,5
 949.625 -27 949.625 -27 865.8125 -27 c 0,6,7
 676 -27 676 -27 497.481481481 62.2592592593 c 128,-1,8
 318.962962963 151.518518519 318.962962963 151.518518519 211.981481481 316.105413105 c 128,-1,9
 105 480.692307692 105 480.692307692 105 697.728506787 c 128,-1,10
 105 914.764705882 105 914.764705882 212 1091 c 0,11,12
 368.4 1348.6 368.4 1348.6 682 1427 c 0,13,14
 782 1452 782 1452 882.5 1452 c 0,15,16
 1019.46153846 1452 1019.46153846 1452 1207 1406 c 0,17,18
 1263.8592233 1392.05339806 1263.8592233 1392.05339806 1303.4750662 1377.02669903 c 128,-1,19
 1343.09090909 1362 1343.09090909 1362 1352 1362 c 1,20,-1
 1382 1370 l 1,21,-1
 1413 1370 l 2,22,23
 1425 1370 1425 1370 1425 1353 c 2,24,-1
 1425 1042 l 2,25,26
 1425 1032 1425 1032 1406.8 1032 c 128,-1,27
 1388.6 1032 1388.6 1032 1385.8 1036.5 c 128,-1,28
 1383 1041 1383 1041 1380 1047.5 c 128,-1,29
 1377 1054 1377 1054 1373.5 1061 c 128,-1,30
 1370 1068 1370 1068 1366.5 1074 c 128,-1,31
 1363 1080 1363 1080 1362 1083 c 0,32,33
 1211.5 1384 1211.5 1384 907 1384 c 0,34,35
 632.142857143 1384 632.142857143 1384 477.071428571 1209.15436242 c 128,-1,36
 322 1034.30872483 322 1034.30872483 322 745.473806861 c 128,-1,37
 322 456.638888889 322 456.638888889 492.507633588 249.819444444 c 128,-1,38
 663.015267176 43 663.015267176 43 956 43 c 0,39,40
 1115.69565217 43 1115.69565217 43 1247.12258378 138.206911083 c 128,-1,41
 1378.54951538 233.413822166 1378.54951538 233.413822166 1454 371 c 0,42,43
 1456.4 377 1456.4 377 1466 377 c 2,44,-1
 1479 377 l 2,45,46
 1489 377 1489 377 1489 364.9 c 128,-1,47
 1489 352.8 1489 352.8 1483 342 c 2,48,-1
 1345 38 l 1,0,1
EndSplineSet
EndChar

StartChar: D
Encoding: 68 68 39
Width: 1664
GlyphClass: 2
Flags: W
AnchorPoint: "Anchor-1" 180 0 basechar 0
LayerCount: 2
Fore
SplineSet
45 1405 m 2,0,1
 45 1413 45 1413 53 1413 c 2,2,-1
 75 1413 l 1,3,-1
 396 1420 l 2,4,5
 454 1422 454 1422 521.5 1422 c 2,6,-1
 647 1422 l 2,7,8
 821.428571429 1422 821.428571429 1422 908.714285714 1409 c 128,-1,9
 996 1396 996 1396 1080.5 1378.5 c 128,-1,10
 1165 1361 1165 1361 1260.5 1299 c 128,-1,11
 1356 1237 1356 1237 1425.5 1149 c 0,12,13
 1574 960.971223022 1574 960.971223022 1574 743.18654609 c 0,14,15
 1574 525.401869159 1574 525.401869159 1460.5 352.5 c 0,16,17
 1295.65365691 101.378935297 1295.65365691 101.378935297 985 24.5 c 0,18,19
 886 0 886 0 782 0 c 2,20,-1
 53 0 l 2,21,22
 45 0 45 0 45 8 c 2,23,-1
 45 36 l 2,24,25
 45 44 45 44 53 44 c 2,26,-1
 75 44 l 2,27,28
 257 44 257 44 257 160 c 2,29,-1
 257 1256 l 2,30,31
 257 1312.2195122 257 1312.2195122 213.888888889 1340.6097561 c 0,32,33
 170.777777778 1369 170.777777778 1369 117 1369 c 2,34,-1
 53 1369 l 2,35,36
 45 1369 45 1369 45 1377 c 2,37,-1
 45 1405 l 2,0,1
477 1375 m 2,38,39
 452 1375 452 1375 452 1348 c 2,40,-1
 452 125 l 2,41,42
 452 51.3902439024 452 51.3902439024 591 48 c 0,43,44
 632 47 632 47 677 47 c 0,45,46
 996.413793103 47 996.413793103 47 1178.70689655 226.203389831 c 0,47,48
 1361 405.406779661 1361 405.406779661 1361 702.835465302 c 0,49,50
 1361 1000.26415094 1361 1000.26415094 1192.68644068 1187.63207547 c 0,51,52
 1024.37288136 1375 1024.37288136 1375 749 1375 c 2,53,-1
 477 1375 l 2,38,39
EndSplineSet
AlternateSubs2: "'salt' Stylistic Alternatives in Latin lookup 24 subtable" D.01
EndChar

StartChar: E
Encoding: 69 69 40
Width: 1264
GlyphClass: 2
Flags: W
AnchorPoint: "Anchor-1" 60 0 basechar 0
LayerCount: 2
Fore
SplineSet
7 8 m 2,0,-1
 7 36 l 2,1,2
 7 44 7 44 15 44 c 2,3,-1
 37 44 l 1,4,5
 79 47 79 47 123 47.5 c 128,-1,6
 167 48 167 48 203 58.5 c 0,7,8
 285 82.4166666667 285 82.4166666667 285 178 c 2,9,-1
 285 1232 l 2,10,11
 285 1330.90909091 285 1330.90909091 168 1357.5 c 0,12,13
 135 1365 135 1365 101 1370 c 1,14,-1
 80 1370 l 2,15,16
 72 1370 72 1370 72 1378 c 2,17,-1
 72 1402 l 2,18,19
 72 1410 72 1410 80 1410 c 2,20,-1
 1031 1410 l 2,21,22
 1049 1410 1049 1410 1057 1403.5 c 128,-1,23
 1065 1397 1065 1397 1067 1375 c 2,24,-1
 1085 1085 l 2,25,26
 1085 1075 1085 1075 1070 1075 c 128,-1,27
 1055 1075 1055 1075 1048.5 1084 c 0,28,29
 1041.60843373 1093.54216867 1041.60843373 1093.54216867 1032.39996155 1156.68597795 c 128,-1,30
 1023.19148936 1219.82978723 1023.19148936 1219.82978723 998.282883409 1261.98281269 c 128,-1,31
 973.374277457 1304.13583815 973.374277457 1304.13583815 910 1315 c 1,32,-1
 493 1315 l 2,33,34
 480 1315 480 1315 480 1302 c 2,35,-1
 480 785 l 2,36,37
 480 775 480 775 490 775 c 2,38,-1
 836 775 l 2,39,40
 970 775 970 775 970 931 c 0,41,42
 970 939 970 939 978 939 c 2,43,-1
 1002 939 l 2,44,45
 1010 939 1010 939 1010 931 c 2,46,-1
 1010 503 l 2,47,48
 1010 495 1010 495 1002 495 c 2,49,-1
 978 495 l 2,50,51
 970 495 970 495 970 503 c 0,52,53
 970 650.816326531 970 650.816326531 884.5 673.5 c 0,54,55
 860 680 860 680 833 680 c 2,56,-1
 490 680 l 2,57,58
 480 680 480 680 480 670 c 2,59,-1
 480 183 l 2,60,61
 480 108.35 480 108.35 549 98 c 0,62,63
 569 95 569 95 591 95 c 2,64,-1
 924 95 l 2,65,66
 1026.52631579 95 1026.52631579 95 1084 186 c 0,67,68
 1125.36082474 251.487972509 1125.36082474 251.487972509 1134 335 c 0,69,70
 1137 363 1137 363 1164 363 c 0,71,72
 1176 363 1176 363 1176 350 c 1,73,-1
 1143 14 l 1,74,75
 1137.4 2.27373675443e-13 1137.4 2.27373675443e-13 1129 0 c 2,76,-1
 15 0 l 2,77,78
 7 0 7 0 7 8 c 2,0,-1
EndSplineSet
EndChar

StartChar: F
Encoding: 70 70 41
Width: 1167
GlyphClass: 2
Flags: W
AnchorPoint: "Anchor-1" -180 0 basechar 0
LayerCount: 2
Fore
SplineSet
858 809 m 2,0,1
 992 809 992 809 992 940 c 0,2,3
 992 948 992 948 1000 948 c 2,4,-1
 1024 948 l 2,5,6
 1032 948 1032 948 1032 940 c 2,7,-1
 1032 568 l 2,8,9
 1032 560 1032 560 1024 560 c 2,10,-1
 1000 560 l 2,11,12
 992 560 992 560 992 568 c 0,13,14
 992 660.333333333 992 660.333333333 940 695 c 0,15,16
 911.5 714 911.5 714 860 714 c 2,17,-1
 466 714 l 2,18,19
 442 714 442 714 442 687 c 2,20,-1
 442 173 l 2,21,22
 442 105.2 442 105.2 523.5 72.6 c 128,-1,23
 605 40 605 40 626.5 40 c 128,-1,24
 648 40 648 40 648 32 c 2,25,-1
 648 8 l 2,26,27
 648 0 648 0 640 0 c 2,28,-1
 94 0 l 2,29,30
 86 0 86 0 86 8 c 2,31,-1
 86 32 l 2,32,33
 86 40 86 40 102.875 40 c 128,-1,34
 119.75 40 119.75 40 155.875 56 c 128,-1,35
 192 72 192 72 219.5 103.5 c 128,-1,36
 247 135 247 135 247 180 c 2,37,-1
 247 1260 l 2,38,39
 247 1324.56603774 247 1324.56603774 178.5 1353 c 0,40,41
 137.545454545 1370 137.545454545 1370 99 1370 c 2,42,-1
 95 1370 l 2,43,44
 87 1370 87 1370 87 1378 c 2,45,-1
 87 1402 l 2,46,47
 87 1410 87 1410 95 1410 c 2,48,-1
 1038 1410 l 1,49,50
 1050 1408 1050 1408 1056 1404.5 c 128,-1,51
 1062 1401 1062 1401 1062 1387 c 2,52,-1
 1062 1145 l 2,53,54
 1062 1133 1062 1133 1058.5 1130 c 128,-1,55
 1055 1127 1055 1127 1046 1127 c 2,56,-1
 1034 1127 l 1,57,58
 1032 1128 1032 1128 1020.61213235 1181.68566176 c 0,59,60
 1009.22426471 1235.37132353 1009.22426471 1235.37132353 985 1264 c 1,61,62
 943.87804878 1308.05923345 943.87804878 1308.05923345 892 1313 c 0,63,64
 871 1315 871 1315 841 1315 c 2,65,-1
 462 1315 l 2,66,67
 442 1315 442 1315 442 1295 c 2,68,-1
 442 832 l 2,69,70
 442 809 442 809 466 809 c 2,71,-1
 858 809 l 2,0,1
EndSplineSet
EndChar

StartChar: G
Encoding: 71 71 42
Width: 1621
GlyphClass: 2
Flags: W
AnchorPoint: "Anchor-1" 280 0 basechar 0
LayerCount: 2
Fore
SplineSet
1560 620 m 2,0,1
 1571 620 1571 620 1571 604.642857143 c 128,-1,2
 1571 589.285714286 1571 589.285714286 1560 583 c 1,3,4
 1533 572 1533 572 1504.5 564 c 128,-1,5
 1476 556 1476 556 1452 543 c 0,6,7
 1397 513.208333333 1397 513.208333333 1397 446 c 2,8,-1
 1397 121 l 2,9,10
 1397 99.1796875 1397 99.1796875 1291.5 62.08984375 c 128,-1,11
 1186 25 1186 25 1119.5 8.5 c 0,12,13
 810.753991773 -68.1061524172 810.753991773 -68.1061524172 568 24.5 c 0,14,15
 289.033369558 130.920603465 289.033369558 130.920603465 173 407 c 0,16,17
 115 545 115 545 115 681.5 c 128,-1,18
 115 818 115 818 142 911 c 0,19,20
 224.416113744 1194.87772512 224.416113744 1194.87772512 486.411009774 1348.24059109 c 0,21,22
 656.833333333 1448 656.833333333 1448 845.55952381 1448 c 128,-1,23
 1034.28571429 1448 1034.28571429 1448 1246 1372 c 0,24,25
 1285 1358 1285 1358 1290 1358 c 2,26,-1
 1302 1358 l 1,27,-1
 1342 1368 l 1,28,-1
 1367 1368 l 2,29,30
 1378 1368 1378 1368 1378 1357 c 2,31,-1
 1378 1024 l 2,32,33
 1378 1005 1378 1005 1356 1005 c 2,34,-1
 1352 1005 l 1,35,36
 1332.83050847 1007.1299435 1332.83050847 1007.1299435 1325.5 1056 c 0,37,38
 1324 1066 1324 1066 1323 1071 c 0,39,40
 1223 1384 1223 1384 901 1384 c 0,41,42
 643.195121951 1384 643.195121951 1384 489.597560976 1189.23195876 c 128,-1,43
 336 994.463917526 336 994.463917526 336 725.40032611 c 128,-1,44
 336 456.336734694 336 456.336734694 490.606870229 249.668367347 c 128,-1,45
 645.213740458 43 645.213740458 43 915 43 c 0,46,47
 1053.54545455 43 1053.54545455 43 1144.5 86.5 c 0,48,49
 1179 103 1179 103 1198 129 c 1,50,-1
 1198 403 l 2,51,52
 1198 495.75 1198 495.75 1144.89130435 539.375 c 128,-1,53
 1091.7826087 583 1091.7826087 583 950 583 c 0,54,55
 939 583 939 583 939 601.5 c 128,-1,56
 939 620 939 620 950 620 c 2,57,-1
 1560 620 l 2,0,1
EndSplineSet
EndChar

StartChar: H
Encoding: 72 72 43
Width: 1712
GlyphClass: 2
Flags: W
AnchorPoint: "Anchor-1" 265 0 basechar 0
LayerCount: 2
Fore
SplineSet
1457 181 m 2,0,1
 1457 45.5820895522 1457 45.5820895522 1644 40 c 0,2,3
 1652 40 1652 40 1652 32 c 2,4,-1
 1652 8 l 2,5,6
 1652 0 1652 0 1644 0 c 2,7,-1
 1008 0 l 2,8,9
 1000 0 1000 0 1000 8 c 2,10,-1
 1000 32 l 2,11,12
 1000 40 1000 40 1050 40 c 0,13,14
 1100 40 1100 40 1164.5 61.5 c 0,15,16
 1262 94 1262 94 1262 170 c 2,17,-1
 1262 647 l 2,18,19
 1262 657 1262 657 1259 660 c 128,-1,20
 1256 663 1256 663 1246 663 c 2,21,-1
 458 663 l 2,22,23
 448 663 448 663 445 660 c 128,-1,24
 442 657 442 657 442 647 c 2,25,-1
 442 160 l 2,26,27
 442 40 442 40 619 40 c 0,28,29
 627 40 627 40 627 32 c 2,30,-1
 627 8 l 2,31,32
 627 0 627 0 620 0 c 2,33,-1
 68 0 l 2,34,35
 60 0 60 0 60 8 c 2,36,-1
 60 32 l 2,37,38
 60 40 60 40 79.5 40 c 0,39,40
 247 40 247 40 247 183 c 2,41,-1
 247 1250 l 2,42,43
 247 1367.38095238 247 1367.38095238 108 1374 c 0,44,45
 87 1375 87 1375 87 1383 c 2,46,-1
 87 1402 l 2,47,48
 87 1410 87 1410 94 1410 c 2,49,-1
 596 1410 l 2,50,51
 604 1410 604 1410 604 1402 c 2,52,-1
 604 1383 l 2,53,54
 604 1377 604 1377 585 1377 c 0,55,56
 442 1377 442 1377 442 1236 c 2,57,-1
 442 774 l 2,58,59
 442 764 442 764 445 761 c 128,-1,60
 448 758 448 758 458 758 c 2,61,-1
 1246 758 l 2,62,63
 1256 758 1256 758 1259 761 c 128,-1,64
 1262 764 1262 764 1262 774 c 2,65,-1
 1262 1252 l 1,66,67
 1260 1261 1260 1261 1259.5 1268.5 c 128,-1,68
 1259 1276 1259 1276 1256 1291.5 c 0,69,70
 1249.32288901 1325.9984068 1249.32288901 1325.9984068 1185.19294057 1347.70392781 c 128,-1,71
 1121.06299213 1369.40944882 1121.06299213 1369.40944882 1040 1375 c 0,72,73
 1032 1375 1032 1375 1032 1383 c 2,74,-1
 1032 1402 l 2,75,76
 1032 1410 1032 1410 1039 1410 c 2,77,-1
 1616 1410 l 2,78,79
 1624 1410 1624 1410 1624 1402 c 2,80,-1
 1624 1383 l 2,81,82
 1624 1377 1624 1377 1605 1377 c 0,83,84
 1457 1377 1457 1377 1457 1236 c 2,85,-1
 1457 181 l 2,0,1
EndSplineSet
EndChar

StartChar: I
Encoding: 73 73 44
Width: 699
GlyphClass: 2
Flags: W
AnchorPoint: "Anchor-1" -190 0 basechar 0
LayerCount: 2
Fore
SplineSet
252 1250 m 2,0,1
 252 1370 252 1370 113.5 1370 c 0,2,3
 92 1370 92 1370 92 1378 c 2,4,-1
 92 1402 l 2,5,6
 92 1410 92 1410 100 1410 c 2,7,-1
 601 1410 l 2,8,9
 609 1410 609 1410 609 1402 c 2,10,-1
 609 1378 l 2,11,12
 609 1370 609 1370 565 1370 c 0,13,14
 521 1370 521 1370 484 1342.25 c 128,-1,15
 447 1314.5 447 1314.5 447 1227 c 2,16,-1
 447 160 l 2,17,18
 447 40 447 40 585.5 40 c 0,19,20
 607 40 607 40 607 32 c 2,21,-1
 607 8 l 2,22,23
 607 0 607 0 599 0 c 2,24,-1
 98 0 l 2,25,26
 90 0 90 0 90 8 c 2,27,-1
 90 32 l 2,28,29
 90 40 90 40 134 40 c 0,30,31
 178 40 178 40 215 67.75 c 128,-1,32
 252 95.5 252 95.5 252 183 c 2,33,-1
 252 1250 l 2,0,1
EndSplineSet
AlternateSubs2: "'salt' Stylistic Alternatives in Latin lookup 24 subtable" I.tall
EndChar

StartChar: J
Encoding: 74 74 45
Width: 693
GlyphClass: 2
Flags: W
AnchorPoint: "Anchor-1" 100 0 basechar 0
LayerCount: 2
Fore
SplineSet
603 1378 m 2,0,1
 603 1370 603 1370 561.8 1370 c 128,-1,2
 520.6 1370 520.6 1370 480.8 1341.57142857 c 128,-1,3
 441 1313.14285714 441 1313.14285714 441 1227 c 2,4,-1
 441 -10 l 2,5,6
 441 -232.963855422 441 -232.963855422 314.5 -425 c 0,7,8
 226.967966348 -557.8799547 226.967966348 -557.8799547 96.5 -612 c 0,9,10
 29 -640 29 -640 -42.3571428571 -640 c 128,-1,11
 -113.714285714 -640 -113.714285714 -640 -181.857142857 -608.2 c 128,-1,12
 -250 -576.4 -250 -576.4 -250 -536.062068966 c 128,-1,13
 -250 -495.724137931 -250 -495.724137931 -218.145833333 -469.362068966 c 128,-1,14
 -186.291666667 -443 -186.291666667 -443 -152.145833333 -443 c 128,-1,15
 -118 -443 -118 -443 -96 -450 c 128,-1,16
 -74 -457 -74 -457 -57.5 -467.5 c 128,-1,17
 -41 -478 -41 -478 -28.5 -490.5 c 128,-1,18
 -16 -503 -16 -503 6.5 -520.5 c 128,-1,19
 29 -538 29 -538 67.5 -538 c 0,20,21
 145.030769231 -538 145.030769231 -538 185.590951752 -473.697271613 c 128,-1,22
 226.151134273 -409.394543225 226.151134273 -409.394543225 236.075567137 -321.879089794 c 128,-1,23
 246 -234.363636364 246 -234.363636364 246 -100 c 2,24,-1
 246 1250 l 2,25,26
 246 1351.375 246 1351.375 133 1365.5 c 0,27,28
 97 1370 97 1370 52 1370 c 0,29,30
 44 1370 44 1370 44 1378 c 2,31,-1
 44 1402 l 2,32,33
 44 1410 44 1410 52 1410 c 2,34,-1
 595 1410 l 2,35,36
 603 1410 603 1410 603 1402 c 2,37,-1
 603 1378 l 2,0,1
EndSplineSet
EndChar

StartChar: K
Encoding: 75 75 46
Width: 1524
GlyphClass: 2
Flags: W
AnchorPoint: "Anchor-1" 180 0 basechar 0
LayerCount: 2
Fore
SplineSet
643 8 m 2,0,1
 643 0 643 0 635 0 c 2,2,-1
 47 0 l 2,3,4
 40 0 40 0 40 8 c 2,5,-1
 40 27 l 2,6,7
 40 35 40 35 82.525 36.0125 c 128,-1,8
 125.05 37.025 125.05 37.025 186.525 67.7625 c 128,-1,9
 248 98.5 248 98.5 248 160 c 2,10,-1
 248 1250 l 2,11,12
 248 1363.23529412 248 1363.23529412 48 1375 c 0,13,14
 40 1375 40 1375 40 1383 c 2,15,-1
 40 1402 l 2,16,17
 40 1410 40 1410 47 1410 c 2,18,-1
 635 1410 l 2,19,20
 643 1410 643 1410 643 1402 c 2,21,-1
 643 1383 l 2,22,23
 643 1377 643 1377 601.357142857 1377 c 128,-1,24
 559.714285714 1377 559.714285714 1377 510 1353 c 0,25,26
 443 1320.65517241 443 1320.65517241 443 1248 c 2,27,-1
 443 807 l 2,28,29
 443 719 443 719 460 719 c 0,30,31
 502.544303797 719 502.544303797 719 568.772151899 773.5 c 128,-1,32
 635 828 635 828 686.056603774 885.905660377 c 128,-1,33
 737.113207547 943.811320755 737.113207547 943.811320755 788.556603774 1023.40566038 c 128,-1,34
 840 1103 840 1103 860 1131.5 c 0,35,36
 935 1238.375 935 1238.375 935 1291.4875 c 128,-1,37
 935 1344.6 935 1344.6 889 1363 c 0,38,39
 859 1375 859 1375 803 1375 c 2,40,-1
 793 1375 l 2,41,42
 785 1375 785 1375 785 1383 c 2,43,-1
 785 1402 l 2,44,45
 785 1410 785 1410 793 1410 c 2,46,-1
 1371 1410 l 2,47,48
 1379 1410 1379 1410 1379 1402 c 2,49,-1
 1379 1383 l 2,50,51
 1379 1371 1379 1371 1367 1371 c 0,52,53
 1238.57894737 1366.78947368 1238.57894737 1366.78947368 1179.78947368 1337.39473684 c 128,-1,54
 1121 1308 1121 1308 1085.5 1273 c 128,-1,55
 1050 1238 1050 1238 1008 1167 c 0,56,57
 879.736526946 950.173652695 879.736526946 950.173652695 753.151472651 820.072346891 c 0,58,59
 699.316770186 764.742236025 699.316770186 764.742236025 697 752 c 1,60,61
 702.046875 741.90625 702.046875 741.90625 778.725457702 671.725852273 c 0,62,63
 970.719234275 496.002734731 970.719234275 496.002734731 1182 195 c 1,64,65
 1260.78650904 80.1968011127 1260.78650904 80.1968011127 1389 53 c 1,66,67
 1474 33 1474 33 1496.5 33 c 128,-1,68
 1519 33 1519 33 1519 25 c 2,69,-1
 1519 8 l 2,70,71
 1519 0 1519 0 1511 0 c 2,72,-1
 857 0 l 2,73,74
 849 0 849 0 849 8 c 2,75,-1
 849 27 l 2,76,77
 849 35.2127659574 849 35.2127659574 883 38.1063829787 c 0,78,79
 996 47.7234042553 996 47.7234042553 996 104 c 1,80,81
 989.442622951 159.737704918 989.442622951 159.737704918 795 381 c 0,82,83
 760 420 760 420 721.5 467.5 c 0,84,85
 569.526315789 655 569.526315789 655 472 655 c 2,86,-1
 453 655 l 2,87,88
 443 655 443 655 443 641 c 2,89,-1
 443 173 l 2,90,91
 443 33 443 33 635 33 c 0,92,93
 643 33 643 33 643 25 c 2,94,-1
 643 8 l 2,0,1
EndSplineSet
EndChar

StartChar: L
Encoding: 76 76 47
Width: 1239
GlyphClass: 2
Flags: W
AnchorPoint: "Anchor-1" 0 0 basechar 0
LayerCount: 2
Fore
SplineSet
48 0 m 2,0,1
 40 0 40 0 40 8 c 2,2,-1
 40 32 l 2,3,4
 40 40 40 40 48 40 c 2,5,-1
 72 40 l 2,6,7
 158.310344828 40 158.310344828 40 222.5 76.5 c 0,8,9
 248 91 248 91 265 122.5 c 128,-1,10
 282 154 282 154 282 193 c 2,11,-1
 282 1251 l 2,12,13
 282 1313.47692308 282 1313.47692308 202.5 1346.5 c 0,14,15
 145.925925926 1370 145.925925926 1370 83 1370 c 2,16,-1
 61 1370 l 2,17,18
 53 1370 53 1370 53 1378 c 2,19,-1
 53 1402 l 2,20,21
 53 1410 53 1410 61 1410 c 2,22,-1
 738 1410 l 2,23,24
 746 1410 746 1410 746 1402 c 2,25,-1
 746 1378 l 2,26,27
 746 1370 746 1370 738 1370 c 2,28,-1
 695 1370 l 2,29,30
 592.090909091 1370 592.090909091 1370 513 1341 c 0,31,32
 490 1333 490 1333 483.5 1314.5 c 128,-1,33
 477 1296 477 1296 477 1251 c 2,34,-1
 477 142 l 1,35,36
 479 125 479 125 495 110 c 128,-1,37
 511 95 511 95 531 95 c 2,38,-1
 926 95 l 2,39,40
 1014.75 95 1014.75 95 1101 200 c 0,41,42
 1124 228 1124 228 1157.95217391 274.460869565 c 128,-1,43
 1191.90434783 320.92173913 1191.90434783 320.92173913 1199.95217391 326.960869565 c 0,44,45
 1232 351.009724473 1232 351.009724473 1232 326 c 0,46,47
 1232 320 1232 320 1229 314 c 2,48,-1
 1078 18 l 2,49,50
 1069 0 1069 0 1057 0 c 2,51,-1
 48 0 l 2,0,1
EndSplineSet
EndChar

StartChar: M
Encoding: 77 77 48
Width: 1929
GlyphClass: 2
Flags: W
AnchorPoint: "Anchor-1" 325 0 basechar 0
LayerCount: 2
Fore
SplineSet
501 40 m 0,0,1
 507 40 507 40 507 32 c 2,2,-1
 507 8 l 2,3,4
 507 0 507 0 501 0 c 2,5,-1
 34 0 l 2,6,7
 26 0 26 0 26 8 c 2,8,-1
 26 32 l 2,9,10
 26 40 26 40 34 40 c 0,11,12
 198.243902439 40 198.243902439 40 212 181 c 0,13,14
 216 222 216 222 220.409227683 317.349548646 c 128,-1,15
 224.818455366 412.699097292 224.818455366 412.699097292 246.909227683 728.467195705 c 128,-1,16
 269 1044.23529412 269 1044.23529412 269 1239 c 2,17,-1
 269 1276 l 2,18,19
 269 1316.43902439 269 1316.43902439 223.25 1343.2195122 c 128,-1,20
 177.5 1370 177.5 1370 156.75 1370 c 128,-1,21
 136 1370 136 1370 136 1378 c 2,22,-1
 136 1402 l 2,23,24
 136 1410 136 1410 144 1410 c 2,25,-1
 433 1410 l 1,26,27
 451.586206897 1406.62068966 451.586206897 1406.62068966 464 1388 c 1,28,-1
 933 343 l 1,29,30
 938 336 938 336 941 331 c 128,-1,31
 944 326 944 326 955.872340426 326.659574468 c 128,-1,32
 967.744680851 327.319148936 967.744680851 327.319148936 974 344 c 1,33,-1
 1438 1370 l 1,34,35
 1459.05263158 1410 1459.05263158 1410 1476 1410 c 2,36,-1
 1767 1410 l 2,37,38
 1775 1410 1775 1410 1775 1402 c 2,39,-1
 1775 1378 l 2,40,41
 1775 1370 1775 1370 1770 1370 c 0,42,43
 1739.73913043 1370 1739.73913043 1370 1696.5 1350.5 c 0,44,45
 1629 1320.05882353 1629 1320.05882353 1629 1261 c 1,46,-1
 1689 156 l 1,47,48
 1690.77684564 104.47147651 1690.77684564 104.47147651 1742.84996128 72.235738255 c 128,-1,49
 1794.92307692 40 1794.92307692 40 1879 40 c 0,50,51
 1887 40 1887 40 1887 32 c 2,52,-1
 1887 8 l 2,53,54
 1887 0 1887 0 1879 0 c 2,55,-1
 1311 0 l 2,56,57
 1303 0 1303 0 1303 8 c 2,58,-1
 1303 32 l 2,59,60
 1303 40 1303 40 1311 40 c 0,61,62
 1490 40 1490 40 1490 127 c 1,63,-1
 1437 1082 l 2,64,65
 1436 1092 1436 1092 1431.5 1092 c 128,-1,66
 1427 1092 1427 1092 1424 1083 c 1,67,-1
 927 7 l 2,68,69
 923 0 923 0 903.833333333 0 c 128,-1,70
 884.666666667 0 884.666666667 0 882 8 c 2,71,-1
 392 1086 l 2,72,73
 386 1100 386 1100 380.5 1100 c 128,-1,74
 375 1100 375 1100 375 1078.5 c 0,75,76
 375 1032.27272727 375 1032.27272727 351 643.909090909 c 128,-1,77
 327 255.545454545 327 255.545454545 327 160 c 2,78,-1
 327 119 l 1,79,80
 338.90960452 62.4293785311 338.90960452 62.4293785311 440 45 c 0,81,82
 469 40 469 40 501 40 c 0,0,1
EndSplineSet
EndChar

StartChar: N
Encoding: 78 78 49
Width: 1747
GlyphClass: 2
Flags: W
AnchorPoint: "Anchor-1" 300 0 basechar 0
LayerCount: 2
Fore
SplineSet
68 0 m 2,0,1
 60 0 60 0 60 8 c 2,2,-1
 60 32 l 2,3,4
 60 40 60 40 69.5 40 c 2,5,-1
 93 40 l 2,6,7
 148 40 148 40 167.5 49.5 c 0,8,9
 242 85.7948717949 242 85.7948717949 242 248 c 2,10,-1
 242 1287 l 2,11,12
 242 1353.83050847 242 1353.83050847 112.5 1367 c 0,13,14
 83 1370 83 1370 71.5 1370 c 128,-1,15
 60 1370 60 1370 60 1378 c 2,16,-1
 60 1402 l 2,17,18
 60 1410 60 1410 68 1410 c 2,19,-1
 434 1410 l 1,20,-1
 1383 361 l 2,21,22
 1388 356 1388 356 1390 353.5 c 128,-1,23
 1392 351 1392 351 1396.5 351 c 128,-1,24
 1401 351 1401 351 1401 360 c 2,25,-1
 1401 1049 l 2,26,27
 1401 1248.21052632 1401 1248.21052632 1367.94285714 1309.10526316 c 128,-1,28
 1334.88571429 1370 1334.88571429 1370 1235 1370 c 2,29,-1
 1184 1370 l 2,30,31
 1176 1370 1176 1370 1176 1378 c 2,32,-1
 1176 1402 l 2,33,34
 1176 1410 1176 1410 1184 1410 c 2,35,-1
 1704 1410 l 2,36,37
 1712 1410 1712 1410 1712 1402 c 2,38,-1
 1712 1378 l 2,39,40
 1712 1370 1712 1370 1682.5 1370 c 0,41,42
 1653 1370 1653 1370 1585.5 1336.25 c 128,-1,43
 1518 1302.5 1518 1302.5 1518 1252 c 2,44,-1
 1518 29 l 2,45,46
 1518 7 1518 7 1512 -2.5 c 128,-1,47
 1506 -12 1506 -12 1483.5 -12 c 128,-1,48
 1461 -12 1461 -12 1450 -3 c 128,-1,49
 1439 6 1439 6 1424 23 c 2,50,-1
 393 1166 l 2,51,52
 383 1176 383 1176 375 1176 c 256,53,54
 370 1176 370 1176 370 1166 c 2,55,-1
 370 168 l 2,56,57
 370 77.4897959184 370 77.4897959184 514.5 48 c 0,58,59
 553.7 40 553.7 40 574.85 40 c 128,-1,60
 596 40 596 40 596 32 c 2,61,-1
 596 8 l 2,62,63
 596 0 596 0 588 0 c 2,64,-1
 68 0 l 2,0,1
EndSplineSet
EndChar

StartChar: O
Encoding: 79 79 50
Width: 1770
GlyphClass: 2
Flags: W
AnchorPoint: "Anchor-1" 320 0 basechar 0
LayerCount: 2
Fore
SplineSet
1092 3 m 128,-1,1
 989 -27 989 -27 909 -27 c 0,2,3
 745.098360656 -27 745.098360656 -27 596 26.5 c 0,4,5
 392.052740434 99.6810754912 392.052740434 99.6810754912 268 245 c 0,6,7
 110 430.085714286 110 430.085714286 110 714 c 0,8,9
 110 918.960784314 110 918.960784314 214.898638427 1087.62134022 c 128,-1,10
 319.797276853 1256.28189612 319.797276853 1256.28189612 505.2144279 1354.14094806 c 128,-1,11
 690.631578947 1452 690.631578947 1452 904.359267735 1452 c 128,-1,12
 1118.08695652 1452 1118.08695652 1452 1287.25759809 1357.09939619 c 128,-1,13
 1456.42823967 1262.19879238 1456.42823967 1262.19879238 1558.21411983 1096.01776354 c 128,-1,14
 1660 929.836734694 1660 929.836734694 1660 736.255102041 c 128,-1,15
 1660 542.673469388 1660 542.673469388 1558.76604327 368.096544008 c 128,-1,16
 1457.53208654 193.519618629 1457.53208654 193.519618629 1282.5 86.5 c 0,17,0
 1195 33 1195 33 1092 3 c 128,-1,1
393.41089613 416.855717195 m 128,-1,19
 466.821792261 253.254291533 466.821792261 253.254291533 603.98089613 150.127145767 c 128,-1,20
 741.14 47 741.14 47 921 47 c 0,21,22
 1176.85393258 47 1176.85393258 47 1320 243 c 0,23,24
 1449 419.630769231 1449 419.630769231 1449 694.795904096 c 128,-1,25
 1449 969.961038961 1449 969.961038961 1291 1169 c 0,26,27
 1214 1266 1214 1266 1102.5 1324.5 c 128,-1,28
 991 1383 991 1383 877.5 1383 c 128,-1,29
 764 1383 764 1383 691.5 1358 c 128,-1,30
 619 1333 619 1333 560 1289.5 c 128,-1,31
 501 1246 501 1246 456 1186 c 128,-1,32
 411 1126 411 1126 381 1055.5 c 0,33,34
 320 912.15 320 912.15 320 746.303571429 c 128,-1,18
 320 580.457142857 320 580.457142857 393.41089613 416.855717195 c 128,-1,19
EndSplineSet
EndChar

StartChar: P
Encoding: 80 80 51
Width: 1211
GlyphClass: 2
Flags: W
AnchorPoint: "Anchor-1" -150 0 basechar 0
LayerCount: 2
Fore
SplineSet
100 0 m 2,0,1
 92 0 92 0 92 20 c 2,2,-1
 92 32 l 2,3,4
 92 40 92 40 102 40 c 128,-1,5
 112 40 112 40 131.5 46 c 128,-1,6
 151 52 151 52 161 54 c 0,7,8
 263 77.2631578947 263 77.2631578947 263 170 c 2,9,-1
 263 1226 l 2,10,11
 263 1318.12820513 263 1318.12820513 228.793103448 1343.56410256 c 0,12,13
 194.586206897 1369 194.586206897 1369 106 1369 c 2,14,-1
 61 1369 l 2,15,16
 40 1369 40 1369 40 1393 c 0,17,18
 40 1407.11111111 40 1407.11111111 53 1410 c 1,19,-1
 59.5 1410 l 1,20,-1
 621 1425 l 1,21,-1
 722 1425 l 1,22,23
 901.279838166 1412.63587323 901.279838166 1412.63587323 1020.13991908 1295.89829376 c 0,24,25
 1139 1179.16071429 1139 1179.16071429 1139 1015.81336685 c 0,26,27
 1139 852.466019417 1139 852.466019417 1022.5 719 c 0,28,29
 971 660 971 660 907 623.5 c 128,-1,30
 843 587 843 587 781 586 c 1,31,-1
 481 598 l 1,32,-1
 473 598 l 2,33,34
 458 598 458 598 458 584 c 2,35,-1
 458 173 l 2,36,37
 458 118.303030303 458 118.303030303 487.760450161 92.1499074345 c 0,38,39
 517.520900322 65.9967845659 517.520900322 65.9967845659 615 51 c 0,40,41
 628 49 628 49 656.8 44.5 c 0,42,43
 685.6 40 685.6 40 695.8 40 c 128,-1,44
 706 40 706 40 706 32 c 2,45,-1
 706 8 l 2,46,47
 706 0 706 0 698 0 c 2,48,-1
 100 0 l 2,0,1
513.5 1373.5 m 128,-1,50
 500 1373 500 1373 479 1372.5 c 128,-1,51
 458 1372 458 1372 458 1356 c 2,52,-1
 458 711 l 1,53,-1
 460 681 l 1,54,55
 462.563218391 660.494252874 462.563218391 660.494252874 479 659 c 2,56,-1
 581 653 l 1,57,58
 742.205882353 653 742.205882353 653 840.602941176 760.919354839 c 0,59,60
 939 868.838709677 939 868.838709677 939 1032.27805049 c 0,61,62
 939 1195.7173913 939 1195.7173913 843.67816092 1285.85869565 c 0,63,64
 748.356321839 1376 748.356321839 1376 589 1376 c 0,65,66
 575 1376 575 1376 563 1375.5 c 128,-1,67
 551 1375 551 1375 539 1374.5 c 128,-1,49
 527 1374 527 1374 513.5 1373.5 c 128,-1,50
EndSplineSet
EndChar

StartChar: Q
Encoding: 81 81 52
Width: 1767
GlyphClass: 2
Flags: W
AnchorPoint: "Anchor-1" 250 0 basechar 0
LayerCount: 2
Fore
SplineSet
816 -22 m 0,0,1
 658.148400853 -8.27377398721 658.148400853 -8.27377398721 525.074200426 59.3631130064 c 128,-1,2
 392 127 392 127 302.5 221.5 c 0,3,4
 110 424.754189944 110 424.754189944 110 707 c 0,5,6
 110 1032.42857143 110 1032.42857143 332.563451777 1241.21428571 c 128,-1,7
 555.126903553 1450 555.126903553 1450 886.819176967 1450 c 128,-1,8
 1218.51145038 1450 1218.51145038 1450 1437.25572519 1243.84532374 c 128,-1,9
 1656 1037.69064748 1656 1037.69064748 1656 717 c 0,10,11
 1656 334.825581395 1656 334.825581395 1267 77 c 0,12,13
 1258.44444444 71.2962962963 1258.44444444 71.2962962963 1190.72222222 38.0991285403 c 128,-1,14
 1123 4.90196078431 1123 4.90196078431 1123 0.450980392157 c 128,-1,15
 1123 -4 1123 -4 1185.62683824 -46.4246323529 c 128,-1,16
 1248.25367647 -88.8492647059 1248.25367647 -88.8492647059 1451.25 -252.75 c 0,17,18
 1572.58536585 -350.717073171 1572.58536585 -350.717073171 1639.79268293 -364.158536585 c 128,-1,19
 1707 -377.6 1707 -377.6 1707 -391.3 c 0,20,21
 1707 -415.527777778 1707 -415.527777778 1674.92857143 -421.763888889 c 128,-1,22
 1642.85714286 -428 1642.85714286 -428 1578.42857143 -428 c 0,23,24
 1465.11764706 -428 1465.11764706 -428 1328 -354 c 1,25,26
 1086.61336032 -195.374493927 1086.61336032 -195.374493927 1004.02823189 -116.303626274 c 128,-1,27
 921.443103448 -37.2327586207 921.443103448 -37.2327586207 858 -27 c 0,28,29
 839 -24 839 -24 816 -22 c 0,0,1
355.5 992.5 m 128,-1,31
 318 877 318 877 319 768.5 c 0,32,33
 320.824082307 570.587069732 320.824082307 570.587069732 397.863056857 408.180582842 c 128,-1,34
 474.902031408 245.774095952 474.902031408 245.774095952 613.22421158 146.387047976 c 128,-1,35
 751.546391753 47 751.546391753 47 934 47 c 0,36,37
 1156.63636364 47 1156.63636364 47 1304.81818182 221.642857143 c 128,-1,38
 1453 396.285714286 1453 396.285714286 1453 679.132653061 c 128,-1,39
 1453 961.979591837 1453 961.979591837 1307.5 1154 c 0,40,41
 1146.94301438 1365.89153204 1146.94301438 1365.89153204 858 1383 c 1,42,43
 615.543352601 1383 615.543352601 1383 463 1194.5 c 0,44,30
 393 1108 393 1108 355.5 992.5 c 128,-1,31
EndSplineSet
EndChar

StartChar: R
Encoding: 82 82 53
Width: 1419
GlyphClass: 2
Flags: W
AnchorPoint: "Anchor-1" 180 0 basechar 0
LayerCount: 2
Fore
SplineSet
52 0 m 2,0,1
 44 0 44 0 44 20 c 2,2,-1
 44 32 l 2,3,4
 44 40 44 40 52 40 c 256,5,6
 58 40 58 40 71 42 c 128,-1,7
 84 44 84 44 98 46 c 128,-1,8
 112 48 112 48 124 50.5 c 128,-1,9
 136 53 136 53 141 54 c 0,10,11
 243 77.2631578947 243 77.2631578947 243 170 c 2,12,-1
 243 1226 l 2,13,14
 243 1311.85454545 243 1311.85454545 173.5 1348.5 c 0,15,16
 132.724137931 1370 132.724137931 1370 86 1370 c 2,17,-1
 48 1370 l 2,18,19
 40 1370 40 1370 40 1378 c 2,20,-1
 40 1402 l 2,21,22
 40 1410 40 1410 52.5 1410 c 2,23,-1
 601 1425 l 1,24,-1
 702 1425 l 1,25,26
 878.700523799 1412.67205648 878.700523799 1412.67205648 998.350261899 1296.1988601 c 128,-1,27
 1118 1179.72566372 1118 1179.72566372 1118 1009.36283186 c 128,-1,28
 1118 839 1118 839 975.5 744 c 0,29,30
 932 715 932 715 881 692 c 1,31,-1
 1184 197 l 2,32,33
 1262.70914826 66.5085173502 1262.70914826 66.5085173502 1396 14 c 1,34,35
 1407 11.25 1407 11.25 1407 0 c 0,36,37
 1407 -25 1407 -25 1374 -25 c 0,38,39
 1148.62666667 -25 1148.62666667 -25 1016 146.5 c 0,40,41
 987 184 987 184 958 231 c 2,42,-1
 699 637 l 1,43,-1
 461 648 l 1,44,-1
 453 648 l 2,45,46
 438 648 438 648 438 634 c 2,47,-1
 438 173 l 2,48,49
 438 118.303030303 438 118.303030303 468.878335112 91.1675236894 c 128,-1,50
 499.756670224 64.0320170758 499.756670224 64.0320170758 576 54 c 0,51,52
 596 50.6666666667 596 50.6666666667 624.8 45.3333333333 c 128,-1,53
 653.6 40 653.6 40 664.3 40 c 128,-1,54
 675 40 675 40 675 32 c 2,55,-1
 675 8 l 2,56,57
 675 0 675 0 667 0 c 2,58,-1
 52 0 l 2,0,1
493.5 1371.5 m 128,-1,60
 480 1371 480 1371 459 1370.5 c 128,-1,61
 438 1370 438 1370 438 1354 c 2,62,-1
 438 748 l 1,63,-1
 440 718 l 1,64,65
 442.563218391 697.494252874 442.563218391 697.494252874 459 696 c 2,66,-1
 561 690 l 1,67,68
 842.377952756 690 842.377952756 690 900.5 889.5 c 0,69,70
 919 953 919 953 919 1033.5 c 0,71,72
 919 1192.0212766 919 1192.0212766 820.689655172 1283.0106383 c 128,-1,73
 722.379310345 1374 722.379310345 1374 569 1374 c 0,74,75
 555 1374 555 1374 543 1373.5 c 128,-1,76
 531 1373 531 1373 519 1372.5 c 128,-1,59
 507 1372 507 1372 493.5 1371.5 c 128,-1,60
EndSplineSet
EndChar

StartChar: S
Encoding: 83 83 54
Width: 1026
GlyphClass: 2
Flags: W
AnchorPoint: "Anchor-1" -60 0 basechar 0
LayerCount: 2
Fore
SplineSet
844 1398 m 1,0,1
 854 1398 854 1398 854 1376 c 1,2,-1
 880 1163 l 1,3,4
 884 1143 884 1143 884 1137.5 c 128,-1,5
 884 1132 884 1132 868.5 1132 c 128,-1,6
 853 1132 853 1132 849 1136 c 128,-1,7
 845 1140 845 1140 841 1149.5 c 128,-1,8
 837 1159 837 1159 831.5 1171 c 128,-1,9
 826 1183 826 1183 820.5 1195 c 0,10,11
 799.454647256 1240.91713326 799.454647256 1240.91713326 753.5 1285.5 c 0,12,13
 643.723076923 1392 643.723076923 1392 506 1392 c 0,14,15
 423.285714286 1392 423.285714286 1392 349.142857143 1337.7761194 c 128,-1,16
 275 1283.55223881 275 1283.55223881 275 1210.2761194 c 128,-1,17
 275 1137 275 1137 302.5 1083 c 128,-1,18
 330 1029 330 1029 375 983 c 128,-1,19
 420 937 420 937 478 895 c 128,-1,20
 536 853 536 853 596.5 810.5 c 0,21,22
 755.453696789 698.838312173 755.453696789 698.838312173 822.5 620.5 c 0,23,24
 927.037898936 498.355718085 927.037898936 498.355718085 936 346 c 1,25,26
 936 176.401639344 936 176.401639344 805.394736842 74.7008196721 c 128,-1,27
 674.789473684 -27 674.789473684 -27 502 -27 c 0,28,29
 391.4 -27 391.4 -27 325.7 -4.5 c 128,-1,30
 260 18 260 18 235 28 c 128,-1,31
 210 38 210 38 198.5 38 c 128,-1,32
 187 38 187 38 184 37 c 2,33,-1
 135 27 l 1,34,35
 122 27 122 27 119 48 c 0,36,37
 90 295.818181818 90 295.818181818 90 311.409090909 c 128,-1,38
 90 327 90 327 92.5 332.5 c 128,-1,39
 95 338 95 338 105.5 338 c 0,40,41
 134.142857143 338 134.142857143 338 157 258 c 1,42,43
 262.405405405 33 262.405405405 33 506 33 c 0,44,45
 618.15625 33 618.15625 33 697.578125 100.773333333 c 128,-1,46
 777 168.546666667 777 168.546666667 777 278 c 0,47,48
 777 451.669491525 777 451.669491525 569 601.5 c 0,49,50
 510 644 510 644 399.004643963 719.190402477 c 128,-1,51
 288.009287926 794.380804954 288.009287926 794.380804954 222 869 c 0,52,53
 119 985.434782609 119 985.434782609 119 1127.65607055 c 128,-1,54
 119 1269.87735849 119 1269.87735849 232.558823529 1360.93867925 c 128,-1,55
 346.117647059 1452 346.117647059 1452 493 1452 c 0,56,57
 568.761904762 1452 568.761904762 1452 660.380952381 1426 c 128,-1,58
 752 1400 752 1400 788 1391 c 1,59,-1
 844 1398 l 1,0,1
EndSplineSet
EndChar

StartChar: T
Encoding: 84 84 55
Width: 1502
GlyphClass: 2
Flags: W
AnchorPoint: "Anchor-1" 200 0 basechar 0
LayerCount: 2
Fore
SplineSet
399 32 m 2,0,1
 399 40 399 40 408.5 40 c 2,2,-1
 435.5 40 l 2,3,4
 533.75 40 533.75 40 593.375 82.0882352941 c 128,-1,5
 653 124.176470588 653 124.176470588 653 180 c 2,6,-1
 653 1287 l 2,7,8
 653 1308 653 1308 644.5 1310.5 c 128,-1,9
 636 1313 636 1313 624 1315 c 1,10,-1
 240 1315 l 1,11,12
 147.240323267 1294.94385368 147.240323267 1294.94385368 118 1172.5 c 0,13,14
 102.121212121 1106.00757576 102.121212121 1106.00757576 99.1606060606 1087.50378788 c 128,-1,15
 96.2 1069 96.2 1069 88 1069 c 2,16,-1
 70 1069 l 2,17,18
 64 1069 64 1069 64 1073 c 2,19,-1
 64 1106 l 1,20,-1
 101 1418 l 1,21,22
 106.636363636 1449 106.636363636 1449 121.045454545 1449 c 128,-1,23
 135.454545455 1449 135.454545455 1449 151.409090909 1429.5 c 128,-1,24
 167.363636364 1410 167.363636364 1410 212 1410 c 2,25,-1
 1290 1410 l 2,26,27
 1333 1410 1333 1410 1342 1420 c 128,-1,28
 1351 1430 1351 1430 1358.77272727 1439.5 c 128,-1,29
 1366.54545455 1449 1366.54545455 1449 1379.27272727 1449 c 128,-1,30
 1392 1449 1392 1449 1395.5 1439 c 128,-1,31
 1399 1429 1399 1429 1401 1418 c 2,32,-1
 1438 1106 l 1,33,-1
 1438 1073 l 2,34,35
 1438 1069 1438 1069 1432 1069 c 2,36,-1
 1414 1069 l 2,37,38
 1405.8 1069 1405.8 1069 1403.4 1084 c 0,39,40
 1387.40926641 1183.94208494 1387.40926641 1183.94208494 1357.14272345 1242.45740134 c 128,-1,41
 1326.87618048 1300.97271773 1326.87618048 1300.97271773 1262 1315 c 1,42,-1
 877 1315 l 1,43,44
 865 1313 865 1313 856.5 1310.5 c 128,-1,45
 848 1308 848 1308 848 1287 c 2,46,-1
 848 180 l 2,47,48
 848 124.176470588 848 124.176470588 907.625 82.0882352941 c 128,-1,49
 967.25 40 967.25 40 1065 40 c 2,50,-1
 1094 40 l 2,51,52
 1102 40 1102 40 1102 32 c 2,53,-1
 1102 8 l 2,54,55
 1102 0 1102 0 1094 0 c 2,56,-1
 407 0 l 2,57,58
 399 0 399 0 399 8 c 2,59,-1
 399 32 l 2,0,1
EndSplineSet
AlternateSubs2: "'salt' Stylistic Alternatives in Latin lookup 24 subtable" T.tall
EndChar

StartChar: U
Encoding: 85 85 56
Width: 1672
GlyphClass: 2
Flags: W
AnchorPoint: "Anchor-1" 275 0 basechar 0
LayerCount: 2
Fore
SplineSet
574 1370 m 0,0,1
 406 1370 406 1370 406 1236 c 2,2,-1
 406 520 l 2,3,4
 406 322.177419355 406 322.177419355 536.865546218 196.588709677 c 128,-1,5
 667.731092437 71 667.731092437 71 873 71 c 256,6,7
 1086.30909091 71 1086.30909091 71 1222.65454545 185.488549618 c 128,-1,8
 1359 299.977099237 1359 299.977099237 1359 503 c 2,9,-1
 1359 1139 l 2,10,11
 1359 1233.57142857 1359 1233.57142857 1342.5 1271.28571429 c 0,12,13
 1299.3125 1370 1299.3125 1370 1148 1370 c 0,14,15
 1140 1370 1140 1370 1140 1378 c 2,16,-1
 1140 1402 l 2,17,18
 1140 1410 1140 1410 1148 1410 c 2,19,-1
 1640 1410 l 2,20,21
 1648 1410 1648 1410 1648 1402 c 2,22,-1
 1648 1378 l 2,23,24
 1648 1370 1648 1370 1626 1370 c 0,25,26
 1495 1370 1495 1370 1466 1268.5 c 0,27,28
 1461 1251 1461 1251 1461 1236 c 2,29,-1
 1461 581 l 2,30,31
 1461 141.871681416 1461 141.871681416 1125 15.5 c 0,32,33
 1012 -27 1012 -27 900.5 -27 c 0,34,35
 498.849056604 -27 498.849056604 -27 309.019876242 182.603053316 c 0,36,37
 211 290.833333333 211 290.833333333 211 450 c 2,38,-1
 211 1250 l 2,39,40
 211 1334.53333333 211 1334.53333333 108 1362 c 0,41,42
 78 1370 78 1370 57 1370 c 128,-1,43
 36 1370 36 1370 36 1378 c 2,44,-1
 36 1402 l 2,45,46
 36 1410 36 1410 43 1410 c 2,47,-1
 585 1410 l 2,48,49
 593 1410 593 1410 593 1402 c 2,50,-1
 593 1378 l 2,51,52
 593 1370 593 1370 574 1370 c 0,0,1
EndSplineSet
EndChar

StartChar: V
Encoding: 86 86 57
Width: 1505
GlyphClass: 2
Flags: W
AnchorPoint: "Anchor-1" 200 0 basechar 0
LayerCount: 2
Fore
SplineSet
1500 1378 m 2,0,1
 1500 1370 1500 1370 1492 1370 c 2,2,-1
 1455 1370 l 1,3,4
 1328.0794702 1344.61589404 1328.0794702 1344.61589404 1268 1162.5 c 0,5,6
 1252 1114 1252 1114 1235 1069 c 2,7,-1
 842 8 l 2,8,9
 833 -17 833 -17 820 -22 c 128,-1,10
 807 -27 807 -27 784 -27 c 2,11,-1
 737 -27 l 2,12,13
 713 -27 713 -27 706 -5 c 1,14,-1
 179 1272 l 2,15,16
 146.662068966 1351.04827586 146.662068966 1351.04827586 21 1369 c 0,17,18
 14 1370 14 1370 9.5 1370 c 128,-1,19
 5 1370 5 1370 5 1378 c 2,20,-1
 5 1402 l 2,21,22
 5 1410 5 1410 13 1410 c 2,23,-1
 603 1410 l 2,24,25
 611 1410 611 1410 611 1402 c 2,26,-1
 611 1378 l 2,27,28
 611 1370 611 1370 603 1370 c 2,29,-1
 588 1370 l 1,30,31
 563 1366 563 1366 530.5 1362 c 0,32,33
 402 1346.18461538 402 1346.18461538 402 1260 c 0,34,35
 402 1232.8 402 1232.8 416 1202 c 1,36,-1
 795 280 l 1,37,38
 804.782608696 260.434782609 804.782608696 260.434782609 816 281 c 1,39,-1
 1164 1223 l 2,40,41
 1171 1243 1171 1243 1171 1270.5 c 128,-1,42
 1171 1298 1171 1298 1148 1323.5 c 128,-1,43
 1125 1349 1125 1349 1101.5 1353 c 128,-1,44
 1078 1357 1078 1357 1064.5 1359 c 128,-1,45
 1051 1361 1051 1361 1024 1365.5 c 128,-1,46
 997 1370 997 1370 988 1370 c 128,-1,47
 979 1370 979 1370 979 1378 c 2,48,-1
 979 1402 l 2,49,50
 979 1410 979 1410 987 1410 c 2,51,-1
 1492 1410 l 2,52,53
 1500 1410 1500 1410 1500 1402 c 2,54,-1
 1500 1378 l 2,0,1
EndSplineSet
EndChar

StartChar: W
Encoding: 87 87 58
Width: 2262
GlyphClass: 2
Flags: W
AnchorPoint: "Anchor-1" 580 0 basechar 0
LayerCount: 2
Fore
SplineSet
552 1370 m 2,0,1
 432 1370 432 1370 432 1278 c 0,2,3
 432 1261 432 1261 438.5 1242 c 128,-1,4
 445 1223 445 1223 450 1202 c 1,5,-1
 833 280 l 2,6,7
 838 270 838 270 849.2 270 c 128,-1,8
 860.4 270 860.4 270 867 281 c 1,9,-1
 1088 801 l 1,10,-1
 893 1272 l 2,11,12
 874.824561404 1317.43859649 874.824561404 1317.43859649 743 1358 c 0,13,14
 704 1370 704 1370 692.5 1370 c 128,-1,15
 681 1370 681 1370 681 1378 c 2,16,-1
 681 1402 l 2,17,18
 681 1410 681 1410 689 1410 c 2,19,-1
 1605 1410 l 2,20,21
 1613 1410 1613 1410 1613 1402 c 2,22,-1
 1613 1378 l 2,23,24
 1613 1370 1613 1370 1605 1370 c 2,25,-1
 1568 1370 l 2,26,27
 1471.9375 1370 1471.9375 1370 1422 1276 c 0,28,29
 1405 1244 1405 1244 1387 1201 c 2,30,-1
 1257 896 l 1,31,-1
 1513 280 l 2,32,33
 1518 270 1518 270 1529.2 270 c 128,-1,34
 1540.4 270 1540.4 270 1547 281 c 1,35,-1
 1970 1276 l 2,36,37
 1982 1304 1982 1304 1982 1326.5 c 0,38,39
 1982 1370 1982 1370 1867 1370 c 2,40,-1
 1805 1370 l 2,41,42
 1797 1370 1797 1370 1797 1378 c 2,43,-1
 1797 1402 l 2,44,45
 1797 1410 1797 1410 1805 1410 c 2,46,-1
 2250 1410 l 2,47,48
 2258 1410 2258 1410 2258 1402 c 2,49,-1
 2258 1378 l 2,50,51
 2258 1370 2258 1370 2250 1370 c 2,52,-1
 2203 1370 l 2,53,54
 2159 1370 2159 1370 2136.43049327 1339.36995516 c 128,-1,55
 2113.86098655 1308.73991031 2113.86098655 1308.73991031 2073 1215 c 2,56,-1
 1559 8 l 2,57,58
 1548 -16 1548 -16 1536 -21.5 c 128,-1,59
 1524 -27 1524 -27 1501 -27 c 2,60,-1
 1454 -27 l 2,61,62
 1430 -27 1430 -27 1422 -5 c 1,63,-1
 1152 649 l 1,64,-1
 879 8 l 2,65,66
 868 -16 868 -16 856 -21.5 c 128,-1,67
 844 -27 844 -27 821 -27 c 2,68,-1
 774 -27 l 2,69,70
 750 -27 750 -27 743 -4 c 1,71,-1
 213 1272 l 2,72,73
 197.476683938 1310.80829016 197.476683938 1310.80829016 114.238341969 1340.40414508 c 128,-1,74
 31 1370 31 1370 11.5 1370 c 128,-1,75
 -8 1370 -8 1370 -8 1378 c 2,76,-1
 -8 1402 l 2,77,78
 -8 1410 -8 1410 0 1410 c 2,79,-1
 570 1410 l 2,80,81
 578 1410 578 1410 578 1402 c 2,82,-1
 578 1378 l 2,83,84
 578 1370 578 1370 570 1370 c 2,85,-1
 552 1370 l 2,0,1
1302 1323 m 0,86,87
 1302 1365.26086957 1302 1365.26086957 1216 1369 c 1,88,89
 1128.86625514 1363.8744856 1128.86625514 1363.8744856 1115.5 1308.5 c 0,90,91
 1112 1294 1112 1294 1112 1277.5 c 128,-1,92
 1112 1261 1112 1261 1118.5 1242 c 128,-1,93
 1125 1223 1125 1223 1130 1202 c 1,94,-1
 1193 1049 l 1,95,-1
 1290 1276 l 2,96,97
 1302 1304 1302 1304 1302 1323 c 0,86,87
EndSplineSet
EndChar

StartChar: X
Encoding: 88 88 59
Width: 1611
GlyphClass: 2
Flags: W
AnchorPoint: "Anchor-1" 210 0 basechar 0
LayerCount: 2
Fore
SplineSet
390 100.166666667 m 0,0,1
 390 40.3636363636 390 40.3636363636 517.5 45 c 0,2,3
 564 46.6909090909 564 46.6909090909 564 32 c 2,4,-1
 564 8 l 2,5,6
 564 0 564 0 556 0 c 2,7,-1
 13 0 l 2,8,9
 5 0 5 0 5 8 c 2,10,-1
 5 32 l 2,11,12
 5 40 5 40 13 40 c 2,13,-1
 52 40 l 1,14,15
 183.692256784 56.1727332892 183.692256784 56.1727332892 314.5 223 c 0,16,17
 349 267 349 267 383 305 c 1,18,-1
 698 720 l 1,19,-1
 393 1113 l 2,20,21
 364 1150 364 1150 337 1188 c 0,22,23
 239.210659898 1325.62944162 239.210659898 1325.62944162 121 1354 c 1,24,25
 81 1370 81 1370 13 1370 c 0,26,27
 5 1370 5 1370 5 1378 c 2,28,-1
 5 1402 l 2,29,30
 5 1410 5 1410 13 1410 c 2,31,-1
 672 1410 l 2,32,33
 680 1410 680 1410 680 1402 c 2,34,-1
 680 1378 l 2,35,36
 680 1370 680 1370 631.181818182 1370 c 0,37,38
 582.363636364 1370 582.363636364 1370 551 1362.5 c 0,39,40
 502 1350.7826087 502 1350.7826087 502 1309 c 0,41,42
 502 1291.5 502 1291.5 519 1266 c 1,43,-1
 797 897 l 1,44,45
 803 891 803 891 804 889 c 128,-1,46
 805 887 805 887 813.4375 887 c 128,-1,47
 821.875 887 821.875 887 842 910 c 1,48,-1
 1112 1256 l 2,49,50
 1131 1279 1131 1279 1131 1305 c 0,51,52
 1131 1370 1131 1370 981 1370 c 0,53,54
 973 1370 973 1370 973 1378 c 2,55,-1
 973 1403 l 2,56,57
 973 1410 973 1410 981 1410 c 2,58,-1
 1518 1410 l 2,59,60
 1526 1410 1526 1410 1526 1402 c 2,61,-1
 1526 1378 l 2,62,63
 1526 1370 1526 1370 1518 1370 c 0,64,65
 1358.44444444 1370 1358.44444444 1370 1200 1186 c 1,66,-1
 890 781 l 1,67,68
 891 780 891 780 894 774.5 c 128,-1,69
 897 769 897 769 928.9375 724.515625 c 0,70,71
 960.875 680.03125 960.875 680.03125 1160.08463715 415.69538532 c 128,-1,72
 1359.2942743 151.359520639 1359.2942743 151.359520639 1384.64713715 128.17976032 c 0,73,74
 1454.47368421 64.3383458647 1454.47368421 64.3383458647 1514 53 c 1,75,76
 1526 47 1526 47 1541.5 46 c 128,-1,77
 1557 45 1557 45 1581.5 43.3103448276 c 128,-1,78
 1606 41.6206896552 1606 41.6206896552 1606 23 c 0,79,80
 1606 0 1606 0 1567 0 c 2,81,-1
 1016 0 l 2,82,83
 1008 0 1008 0 1008 8 c 2,84,-1
 1008 32 l 2,85,86
 1008 42.3863636364 1008 42.3863636364 1038.5 41.6931818182 c 0,87,88
 1147 39.2272727273 1147 39.2272727273 1147 100 c 0,89,90
 1147 115 1147 115 1135 135 c 1,91,-1
 783 600 l 2,92,93
 775 610 775 610 766 610 c 128,-1,94
 757 610 757 610 749 600 c 2,95,-1
 404 145 l 2,96,97
 390 126.333333333 390 126.333333333 390 100.166666667 c 0,0,1
EndSplineSet
EndChar

StartChar: Y
Encoding: 89 89 60
Width: 1527
GlyphClass: 2
Flags: W
AnchorPoint: "Anchor-1" 220 0 basechar 0
LayerCount: 2
Fore
SplineSet
526 0 m 2,0,1
 492 0 492 0 492 20 c 2,2,-1
 492 30 l 2,3,4
 492 45.625 492 45.625 521.5 49.3125 c 128,-1,5
 551 53 551 53 560 54 c 0,6,7
 636 62 636 62 667 91.5 c 128,-1,8
 698 121 698 121 698 180 c 2,9,-1
 698 511 l 2,10,11
 698 518.5 698 518.5 695 526 c 1,12,-1
 286 1178 l 2,13,14
 189.978021978 1330.50549451 189.978021978 1330.50549451 96 1354 c 0,15,16
 91 1355 91 1355 78.2162162162 1357.90540541 c 0,17,18
 65.4324324324 1360.81081081 65.4324324324 1360.81081081 20.5 1368 c 0,19,20
 4 1370.64 4 1370.64 4 1390.32 c 128,-1,21
 4 1410 4 1410 19 1410 c 2,22,-1
 591 1410 l 2,23,24
 608 1410 608 1410 608 1390 c 128,-1,25
 608 1370 608 1370 591 1370 c 1,26,27
 523.777777778 1363.27777778 523.777777778 1363.27777778 502.388888889 1355.63888889 c 0,28,29
 452 1337.64285714 452 1337.64285714 452 1292 c 0,30,31
 452 1268 452 1268 464 1249 c 2,32,-1
 802 709 l 2,33,34
 813 693 813 693 815.5 688.5 c 128,-1,35
 818 684 818 684 826.576923077 684 c 128,-1,36
 835.153846154 684 835.153846154 684 853 713 c 2,37,-1
 1123 1172 l 1,38,39
 1135 1196 1135 1196 1150.5 1223.5 c 128,-1,40
 1166 1251 1166 1251 1166 1279.5 c 0,41,42
 1166 1352.66292135 1166 1352.66292135 1065.6 1366.2 c 0,43,44
 1030 1371 1030 1371 1027 1377 c 128,-1,45
 1024 1383 1024 1383 1024 1392 c 0,46,47
 1024 1410 1024 1410 1041 1410 c 2,48,-1
 1508 1410 l 2,49,50
 1522 1410 1522 1410 1522 1396 c 128,-1,51
 1522 1382 1522 1382 1517.5 1377 c 128,-1,52
 1513 1372 1513 1372 1505.5 1369.5 c 128,-1,53
 1498 1367 1498 1367 1489 1365.5 c 128,-1,54
 1480 1364 1480 1364 1450.5 1357 c 0,55,56
 1379.89437984 1340.24612403 1379.89437984 1340.24612403 1298.5 1246 c 0,57,58
 1289 1235 1289 1235 1288 1233 c 2,59,-1
 893 553 l 1,60,-1
 893 180 l 2,61,62
 893 126 893 126 923.5 95 c 128,-1,63
 954.049074819 63.9501206758 954.049074819 63.9501206758 1026.52453741 54.4967994683 c 128,-1,64
 1099 45.0434782609 1099 45.0434782609 1099 31 c 2,65,-1
 1099 20 l 2,66,67
 1099 0 1099 0 1065 0 c 2,68,-1
 526 0 l 2,0,1
EndSplineSet
EndChar

StartChar: Z
Encoding: 90 90 61
Width: 1460
GlyphClass: 2
Flags: W
AnchorPoint: "Anchor-1" 180 0 basechar 0
LayerCount: 2
Fore
SplineSet
95 0 m 2,0,1
 77 0 77 0 77 34 c 128,-1,2
 77 68 77 68 93 86 c 1,3,-1
 1028 1295 l 2,4,5
 1032 1300 1032 1300 1032 1307.5 c 128,-1,6
 1032 1315 1032 1315 1012 1315 c 2,7,-1
 405 1315 l 2,8,9
 322 1315 322 1315 269.5 1258 c 0,10,11
 252 1239 252 1239 243.653846154 1214.65705128 c 128,-1,12
 235.307692308 1190.31410256 235.307692308 1190.31410256 223.653846154 1131.15705128 c 128,-1,13
 212 1072 212 1072 208 1067.5 c 128,-1,14
 204 1063 204 1063 189.5 1063 c 128,-1,15
 175 1063 175 1063 171 1069 c 1,16,-1
 186 1376 l 1,17,18
 186 1410 186 1410 209 1410 c 2,19,-1
 1295 1410 l 2,20,21
 1311 1410 1311 1410 1311 1378 c 128,-1,22
 1311 1346 1311 1346 1298 1327 c 1,23,-1
 399 164 l 2,24,25
 396 159 396 159 387.5 147 c 128,-1,26
 379 135 379 135 379 127 c 0,27,28
 379 100 379 100 425 100 c 2,29,-1
 1130 100 l 2,30,31
 1177.875 100 1177.875 100 1227.0631892 140.594578777 c 0,32,33
 1276.25137841 181.189157554 1276.25137841 181.189157554 1297.61830004 249.005908826 c 128,-1,34
 1318.98522167 316.822660099 1318.98522167 316.822660099 1327 413 c 1,35,36
 1329.72727273 428 1329.72727273 428 1346.86363636 428 c 128,-1,37
 1364 428 1364 428 1364 416 c 2,38,-1
 1364 369 l 1,39,-1
 1343 59 l 2,40,41
 1342 48 1342 48 1342 37.5 c 0,42,43
 1342 0 1342 0 1314 0 c 2,44,-1
 95 0 l 2,0,1
EndSplineSet
EndChar

StartChar: bracketleft
Encoding: 91 91 62
Width: 740
GlyphClass: 2
Flags: W
LayerCount: 2
Fore
SplineSet
702 1731 m 1,0,-1
 702 1645 l 1,1,-1
 431 1645 l 2,2,3
 358 1645 358 1645 358 1572 c 2,4,-1
 358 -183 l 2,5,6
 358 -256 358 -256 431 -256 c 2,7,-1
 725 -256 l 1,8,-1
 725 -342 l 1,9,-1
 205 -342 l 1,10,-1
 205 1731 l 1,11,-1
 702 1731 l 1,0,-1
EndSplineSet
EndChar

StartChar: bracketright
Encoding: 93 93 64
Width: 740
GlyphClass: 2
Flags: W
LayerCount: 2
Fore
SplineSet
383 1572 m 2,0,1
 383 1645 383 1645 311 1645 c 2,2,-1
 37 1645 l 1,3,-1
 37 1731 l 1,4,-1
 535 1731 l 1,5,-1
 535 -342 l 1,6,-1
 15 -342 l 1,7,-1
 15 -256 l 1,8,-1
 311 -256 l 2,9,10
 383 -256 383 -256 383 -183 c 2,11,-1
 383 1572 l 2,0,1
EndSplineSet
EndChar

StartChar: asciicircum
Encoding: 94 94 65
Width: 1049
GlyphClass: 2
Flags: W
LayerCount: 2
Fore
SplineSet
529 1186 m 1,0,-1
 224 679 l 1,1,-1
 76 679 l 1,2,-1
 497 1379 l 1,3,-1
 560 1379 l 1,4,-1
 972 679 l 1,5,-1
 824 679 l 1,6,-1
 529 1186 l 1,0,-1
EndSplineSet
EndChar

StartChar: underscore
Encoding: 95 95 66
Width: 1014
GlyphClass: 2
Flags: W
LayerCount: 2
Fore
SplineSet
-16 -205 m 1,0,-1
 1030 -205 l 1,1,-1
 1030 -320 l 1,2,-1
 -16 -320 l 1,3,-1
 -16 -205 l 1,0,-1
EndSplineSet
EndChar

StartChar: grave
Encoding: 96 96 67
Width: 700
GlyphClass: 2
Flags: W
LayerCount: 2
Fore
SplineSet
478 1067 m 2,0,1
 474 1063 474 1063 471 1063 c 128,-1,2
 468 1063 468 1063 464 1067 c 2,3,-1
 195 1284 l 1,4,5
 140 1330.75 140 1330.75 140 1368.875 c 128,-1,6
 140 1407 140 1407 160.5 1429.5 c 128,-1,7
 181 1452 181 1452 216.096153846 1452 c 0,8,9
 251.192307692 1452 251.192307692 1452 287 1403 c 2,10,-1
 500 1108 l 2,11,12
 504 1104 504 1104 504 1102 c 256,13,14
 504 1100 504 1100 500 1096 c 2,15,-1
 478 1067 l 2,0,1
EndSplineSet
EndChar

StartChar: a
Encoding: 97 97 68
Width: 885
GlyphClass: 2
Flags: W
AnchorPoint: "Anchor-1" -100 0 basechar 0
LayerCount: 2
Fore
SplineSet
712.5 123.5 m 128,-1,1
 737 108 737 108 769.05 108 c 128,-1,2
 801.1 108 801.1 108 822.55 124.5 c 128,-1,3
 844 141 844 141 852 141 c 128,-1,4
 860 141 860 141 860 119.272727273 c 128,-1,5
 860 97.5454545455 860 97.5454545455 840 83 c 0,6,7
 690.277777778 -27 690.277777778 -27 637 -27 c 0,8,9
 572.9 -27 572.9 -27 533 106 c 0,10,11
 530 116 530 116 528 115 c 0,12,13
 403.555555556 21.6666666667 403.555555556 21.6666666667 371.777777778 3.33333333333 c 0,14,15
 290.296966472 -43.6748270357 290.296966472 -43.6748270357 207.731853183 -11.7496498974 c 128,-1,16
 125.166739895 20.1755272408 125.166739895 20.1755272408 88.5 94.5 c 0,17,18
 70 132 70 132 70 175 c 0,19,20
 70 260.147058824 70 260.147058824 133.108849558 310.262909943 c 128,-1,21
 196.217699115 360.378761062 196.217699115 360.378761062 373 406 c 0,22,23
 433.220994475 421.657458564 433.220994475 421.657458564 480.110497238 446.828729282 c 128,-1,24
 527 472 527 472 529.5 479 c 128,-1,25
 532 486 532 486 532 492 c 2,26,-1
 532 684 l 2,27,28
 532 797.482758621 532 797.482758621 444 843 c 0,29,30
 415 858 415 858 374.6 858 c 0,31,32
 334.2 858 334.2 858 292.6 826 c 128,-1,33
 251 794 251 794 251 735 c 1,34,-1
 256 696 l 1,35,36
 250.108108108 684.216216216 250.108108108 684.216216216 184.054054054 656.108108108 c 128,-1,37
 118 628 118 628 108 626 c 1,38,39
 92 626 92 626 92 664.5 c 128,-1,40
 92 703 92 703 115 750 c 128,-1,41
 138 797 138 797 180.5 836.5 c 0,42,43
 277.873417722 927 277.873417722 927 403.835146361 927 c 128,-1,44
 529.796875 927 529.796875 927 608.8984375 857.650684932 c 128,-1,45
 688 788.301369863 688 788.301369863 688 692 c 2,46,-1
 688 165 l 2,47,0
 688 139 688 139 712.5 123.5 c 128,-1,1
263.772727273 110.691176471 m 128,-1,49
 300.545454545 75 300.545454545 75 348.072727273 75 c 0,50,51
 395.6 75 395.6 75 463.8 115.457627119 c 128,-1,52
 532 155.915254237 532 155.915254237 532 199 c 2,53,-1
 532 402 l 2,54,55
 532 413 532 413 527 413 c 128,-1,56
 522 413 522 413 520 412 c 2,57,-1
 288 304 l 1,58,59
 251.790123457 278.135802469 251.790123457 278.135802469 239.395061728 260.317901235 c 0,60,61
 227 242.5 227 242.5 227 194.441176471 c 128,-1,48
 227 146.382352941 227 146.382352941 263.772727273 110.691176471 c 128,-1,49
EndSplineSet
Substitution2: "'ss15' Style Set 15 in Latin lookup 23 subtable" a.enl
Substitution2: "'smcp' Lowercase to Small Capitals in Latin lookup 3 subtable" A.sc
EndChar

StartChar: b
Encoding: 98 98 69
Width: 1099
GlyphClass: 2
Flags: W
AnchorPoint: "Anchor-1" -50 0 basechar 0
LayerCount: 2
Fore
SplineSet
314 837 m 2,0,1
 314 806 314 806 328.552631579 806 c 128,-1,2
 343.105263158 806 343.105263158 806 456 871 c 1,3,4
 587.764705882 927 587.764705882 927 656.882352941 927 c 128,-1,5
 726 927 726 927 789 887 c 128,-1,6
 852 847 852 847 896.5 782.5 c 0,7,8
 989 648.426966292 989 648.426966292 989 457.145483146 c 128,-1,9
 989 265.864 989 265.864 856.362318841 119.432 c 128,-1,10
 723.724637681 -27 723.724637681 -27 507 -27 c 0,11,12
 366 -27 366 -27 247 7 c 0,13,14
 212 17 212 17 187.5 23 c 128,-1,15
 163 29 163 29 160.5 35.5 c 128,-1,16
 158 42 158 42 158 51 c 2,17,-1
 158 1399 l 2,18,19
 158 1440.9 158 1440.9 112 1457 c 0,20,21
 92 1464 92 1464 69 1468.5 c 128,-1,22
 46 1473 46 1473 32.5 1477 c 128,-1,23
 19 1481 19 1481 15.5 1484.5 c 128,-1,24
 12 1488 12 1488 12 1499.33333333 c 128,-1,25
 12 1510.66666667 12 1510.66666667 27 1519 c 1,26,-1
 282 1639 l 2,27,28
 294 1645 294 1645 297 1645 c 0,29,30
 314 1645 314 1645 314 1621 c 2,31,-1
 314 837 l 2,0,1
526.203703704 805 m 0,32,33
 437.407407407 805 437.407407407 805 326 741 c 0,34,35
 314 733.5 314 733.5 314 717 c 2,36,-1
 314 244 l 1,37,38
 323.628981449 153.487574379 323.628981449 153.487574379 392.651225418 102.243787189 c 128,-1,39
 461.673469388 51 461.673469388 51 544.336734694 51 c 0,40,41
 688.169811321 51 688.169811321 51 766.58490566 164.863013699 c 128,-1,42
 845 278.726027397 845 278.726027397 845 425.073540014 c 128,-1,43
 845 571.421052632 845 571.421052632 765.036036036 688.210526316 c 128,-1,44
 685.072072072 805 685.072072072 805 526.203703704 805 c 0,32,33
EndSplineSet
Substitution2: "'ss15' Style Set 15 in Latin lookup 23 subtable" b.enl
Substitution2: "'smcp' Lowercase to Small Capitals in Latin lookup 3 subtable" B.sc
EndChar

StartChar: c
Encoding: 99 99 70
Width: 934
GlyphClass: 2
Flags: W
AnchorPoint: "Anchor-1" -75 0 basechar 0
LayerCount: 2
Fore
SplineSet
855 807 m 0,0,1
 855 737 855 737 774 737 c 0,2,3
 733.071428571 737 733.071428571 737 704.535714286 760.5 c 128,-1,4
 676 784 676 784 660.5 800.5 c 128,-1,5
 645 817 645 817 628 831 c 0,6,7
 556.47207525 889.905349794 556.47207525 889.905349794 452.621832479 843.895748566 c 128,-1,8
 348.771589707 797.886147339 348.771589707 797.886147339 293 648 c 0,9,10
 262 564.6875 262 564.6875 262 482.84375 c 0,11,12
 262 306.91025641 262 306.91025641 341.756880734 195.455128205 c 128,-1,13
 421.513761468 84 421.513761468 84 587 84 c 0,14,15
 710.285714286 84 710.285714286 84 808.5 194 c 0,16,17
 837.964285714 227 837.964285714 227 843.982142857 227 c 128,-1,18
 850 227 850 227 857 221 c 128,-1,19
 864 215 864 215 864 203.5 c 128,-1,20
 864 192 864 192 858 186 c 1,21,22
 704.64 -27 704.64 -27 473 -27 c 0,23,24
 305.427350427 -27 305.427350427 -27 197.713675214 97.7772277228 c 128,-1,25
 90 222.554455446 90 222.554455446 90.5 384.277227723 c 0,26,27
 91.4191667106 681.577604979 91.4191667106 681.577604979 234.5 813 c 0,28,29
 359.701612903 928 359.701612903 928 593 928 c 0,30,31
 736.685714286 928 736.685714286 928 783.608311688 899.187878788 c 128,-1,32
 830.530909091 870.375757576 830.530909091 870.375757576 850.5 826 c 0,33,34
 855 816 855 816 855 807 c 0,0,1
EndSplineSet
Substitution2: "'ss15' Style Set 15 in Latin lookup 23 subtable" c.enl
Substitution2: "'smcp' Lowercase to Small Capitals in Latin lookup 3 subtable" C.sc
EndChar

StartChar: d
Encoding: 100 100 71
Width: 1090
GlyphClass: 2
Flags: W
AnchorPoint: "Anchor-1" 0 0 basechar 0
LayerCount: 2
Fore
SplineSet
741 870 m 128,-1,1
 751 870 751 870 753.318181818 870.5 c 128,-1,2
 755.636363636 871 755.636363636 871 760 883 c 1,3,-1
 760 1399 l 2,4,5
 760 1440.9 760 1440.9 714 1457 c 0,6,7
 694 1464 694 1464 671 1468.5 c 128,-1,8
 648 1473 648 1473 634.5 1477 c 128,-1,9
 621 1481 621 1481 617.5 1484.5 c 128,-1,10
 614 1488 614 1488 614 1499.33333333 c 128,-1,11
 614 1510.66666667 614 1510.66666667 629 1519 c 1,12,-1
 884 1639 l 2,13,14
 896 1645 896 1645 899 1645 c 0,15,16
 916 1645 916 1645 916 1621 c 2,17,-1
 916 197 l 1,18,19
 921 153 921 153 941 134 c 128,-1,20
 961 115 961 115 1006 115 c 1,21,-1
 1064 119 l 2,22,23
 1070 119 1070 119 1070 107.75 c 128,-1,24
 1070 96.5 1070 96.5 1055 89 c 1,25,-1
 789 -21 l 2,26,27
 777 -27 777 -27 768.5 -27 c 128,-1,28
 760 -27 760 -27 760 -2 c 2,29,-1
 760 89 l 2,30,31
 760 99 760 99 755 99 c 0,32,33
 747.681818182 99 747.681818182 99 672 54 c 0,34,35
 439.475443383 -84.2578444748 439.475443383 -84.2578444748 279 13 c 0,36,37
 150.549353302 90.8488767869 150.549353302 90.8488767869 106 259.5 c 0,38,39
 85 339 85 339 85 427.5 c 128,-1,40
 85 516 85 516 121.5 603.5 c 128,-1,41
 158 691 158 691 222.5 757 c 0,42,43
 363.227272727 901 363.227272727 901 562 901 c 0,44,45
 643.166666667 901 643.166666667 901 687.083333333 885.5 c 128,-1,0
 731 870 731 870 741 870 c 128,-1,1
319.944444444 191.325 m 128,-1,47
 403.888888889 78 403.888888889 78 554 78 c 0,48,49
 619.631578947 78 619.631578947 78 689.815789474 110.524390244 c 128,-1,50
 760 143.048780488 760 143.048780488 760 160 c 2,51,-1
 760 676 l 2,52,53
 760 695 760 695 734 721 c 1,54,55
 654.196078431 831 654.196078431 831 521.726610644 831 c 128,-1,56
 389.257142857 831 389.257142857 831 312.628571429 719.25 c 128,-1,57
 236 607.5 236 607.5 236 456.075 c 128,-1,46
 236 304.65 236 304.65 319.944444444 191.325 c 128,-1,47
EndSplineSet
Substitution2: "'ss15' Style Set 15 in Latin lookup 23 subtable" d.enl
Substitution2: "'smcp' Lowercase to Small Capitals in Latin lookup 3 subtable" D.sc
EndChar

StartChar: e
Encoding: 101 101 72
Width: 930
GlyphClass: 2
Flags: W
AnchorPoint: "Anchor-1" -90 0 basechar 0
LayerCount: 2
Fore
SplineSet
231 527 m 2,0,1
 214 527 214 527 214 454 c 0,2,3
 214 298.896551724 214 298.896551724 306.227272727 193.948275862 c 128,-1,4
 398.454545455 89 398.454545455 89 534.920821114 89 c 128,-1,5
 671.387096774 89 671.387096774 89 797 207 c 0,6,7
 799 209 799 209 802 209 c 2,8,-1
 807 209 l 2,9,10
 813 209 813 209 818.5 199.5 c 128,-1,11
 824 190 824 190 829 187 c 1,12,13
 713.386751422 46.0963532954 713.386751422 46.0963532954 555.5 -8.5 c 0,14,15
 502 -27 502 -27 434 -27 c 128,-1,16
 366 -27 366 -27 296 10.5 c 128,-1,17
 226 48 226 48 175.5 109 c 0,18,19
 70 236.435643564 70 236.435643564 70 425.956353892 c 128,-1,20
 70 615.47706422 70 615.47706422 185.496598639 771.23853211 c 128,-1,21
 300.993197279 927 300.993197279 927 503 927 c 0,22,23
 648.113924051 927 648.113924051 927 740.056962025 797.294642857 c 128,-1,24
 832 667.589285714 832 667.589285714 832 570 c 0,25,26
 832 527 832 527 811 527 c 2,27,-1
 231 527 l 2,0,1
242 623 m 2,28,29
 242 604 242 604 260 604 c 2,30,-1
 637 604 l 2,31,32
 663 604 663 604 663 635 c 0,33,34
 663 706.859649123 663 706.859649123 598.708955224 782.429824561 c 128,-1,35
 534.417910448 858 534.417910448 858 457 858 c 256,36,37
 382.19047619 858 382.19047619 858 320.831724582 790.182432432 c 128,-1,38
 259.472972973 722.364864865 259.472972973 722.364864865 242 635 c 1,39,-1
 242 623 l 2,28,29
EndSplineSet
Substitution2: "'ss15' Style Set 15 in Latin lookup 23 subtable" e.enl
Substitution2: "'smcp' Lowercase to Small Capitals in Latin lookup 3 subtable" E.sc
EndChar

StartChar: f
Encoding: 102 102 73
Width: 624
GlyphClass: 2
Flags: W
AnchorPoint: "Anchor-1" -250 0 basechar 0
LayerCount: 2
Fore
SplineSet
617 16 m 0,0,1
 617 0 617 0 599 0 c 2,2,-1
 50 0 l 1,3,4
 40 2 40 2 40 13.5 c 0,5,6
 40 31.6458333333 40 31.6458333333 87 38.5 c 0,7,8
 195 54.25 195 54.25 195 152 c 2,9,-1
 195 758 l 2,10,11
 195 769 195 769 183 769 c 2,12,-1
 74 769 l 2,13,14
 62 769 62 769 51 776.5 c 128,-1,15
 40 784 40 784 40 796.5 c 128,-1,16
 40 809 40 809 51.5 816 c 0,17,18
 68.5171339564 826.358255452 68.5171339564 826.358255452 131.758566978 843.325469189 c 128,-1,19
 195 860.292682927 195 860.292682927 195 899 c 2,20,-1
 195 932 l 2,21,22
 195 1292.16101695 195 1292.16101695 351 1486.5 c 0,23,24
 437.764705882 1594.58823529 437.764705882 1594.58823529 616 1654 c 0,25,26
 670 1672 670 1672 723.208333333 1672 c 128,-1,27
 776.416666667 1672 776.416666667 1672 847.208333333 1644.59677419 c 128,-1,28
 918 1617.19354839 918 1617.19354839 918 1578 c 0,29,30
 918 1570 918 1570 915.5 1564 c 128,-1,31
 913 1558 913 1558 910 1549 c 1,32,-1
 869 1461 l 2,33,34
 861 1445 861 1445 850 1445 c 0,35,36
 846.75 1445 846.75 1445 806.648898305 1476.64440678 c 128,-1,37
 766.54779661 1508.28881356 766.54779661 1508.28881356 722.338414434 1534.64440678 c 128,-1,38
 678.129032258 1561 678.129032258 1561 617.564516129 1561 c 0,39,40
 501 1561 501 1561 440.915384615 1500.91538462 c 128,-1,41
 380.830769231 1440.83076923 380.830769231 1440.83076923 365.915384615 1365.32163462 c 128,-1,42
 351 1289.8125 351 1289.8125 351 1199 c 2,43,-1
 351 908 l 2,44,45
 351 900 351 900 361 900 c 2,46,-1
 556 900 l 2,47,48
 584 900 584 900 592.5 894.5 c 128,-1,49
 601 889 601 889 609 858.6 c 128,-1,50
 617 828.2 617 828.2 617 802.6 c 128,-1,51
 617 777 617 777 612 773 c 128,-1,52
 607 769 607 769 591 769 c 2,53,-1
 364 769 l 2,54,55
 351 769 351 769 351 759 c 2,56,-1
 351 172 l 2,57,58
 351 29 351 29 599 29 c 1,59,60
 617 27 617 27 617 16 c 0,0,1
EndSplineSet
Substitution2: "'ss15' Style Set 15 in Latin lookup 23 subtable" f.enl
Substitution2: "'smcp' Lowercase to Small Capitals in Latin lookup 3 subtable" F.sc
EndChar

StartChar: g
Encoding: 103 103 74
Width: 1148
GlyphClass: 2
Flags: W
AnchorPoint: "Anchor-1" 0 0 basechar 0
LayerCount: 2
Fore
SplineSet
819 831 m 1,0,1
 1087 843 l 1,2,3
 1110 843 1110 843 1117 838 c 128,-1,4
 1124 833 1124 833 1132 803.4 c 128,-1,5
 1140 773.8 1140 773.8 1140 747.9 c 128,-1,6
 1140 722 1140 722 1135 718 c 128,-1,7
 1130 714 1130 714 1115 714 c 2,8,-1
 893 714 l 1,9,10
 899 703 899 703 906 691 c 128,-1,11
 913 679 913 679 924 651.076923077 c 128,-1,12
 935 623.153846154 935 623.153846154 935 564.576923077 c 128,-1,13
 935 506 935 506 906.5 442.5 c 128,-1,14
 878 379 878 379 823 329.5 c 0,15,16
 701.333333333 220 701.333333333 220 507 220 c 0,17,18
 455.8 220 455.8 220 395 239 c 1,19,20
 380 223 380 223 355 209.5 c 128,-1,21
 330 196 330 196 305.5 182 c 0,22,23
 246 148 246 148 246 114 c 0,24,25
 246 29.1458333333 246 29.1458333333 527.771070615 27.1890897874 c 0,26,27
 809.54214123 25.2323462415 809.54214123 25.2323462415 898.16263688 8.72460685567 c 128,-1,28
 986.78313253 -7.78313253012 986.78313253 -7.78313253012 1035.89156627 -56.8915662651 c 0,29,30
 1113 -134 1113 -134 1113 -233 c 256,31,32
 1113 -318.123287671 1113 -318.123287671 1040.5 -408.5 c 0,33,34
 913.358632311 -566.991293969 913.358632311 -566.991293969 652.5 -620 c 0,35,36
 559 -639 559 -639 455 -639 c 0,37,38
 266.230769231 -639 266.230769231 -639 168.115384615 -570.424731183 c 128,-1,39
 70 -501.849462366 70 -501.849462366 70 -405 c 0,40,41
 70 -352 70 -352 95 -317.5 c 128,-1,42
 120 -283 120 -283 158.5 -252.5 c 128,-1,43
 197 -222 197 -222 243 -188.5 c 128,-1,44
 289 -155 289 -155 331 -103 c 1,45,46
 235.182156134 -95.3345724907 235.182156134 -95.3345724907 166.591078067 -42.2318023744 c 128,-1,47
 98 10.8709677419 98 10.8709677419 98 61.935483871 c 128,-1,48
 98 113 98 113 125 137.5 c 128,-1,49
 152 162 152 162 191 179.5 c 128,-1,50
 230 197 230 197 273 212 c 128,-1,51
 316 227 316 227 348 251 c 1,52,53
 236 295 236 295 175 372.5 c 128,-1,54
 114 450 114 450 114 541.5 c 0,55,56
 114 712.534482759 114 712.534482759 238.306930693 820.767241379 c 128,-1,57
 362.613861386 929 362.613861386 929 538.744430693 929 c 128,-1,58
 714.875 929 714.875 929 819 831 c 1,0,1
237 -261 m 128,-1,60
 222 -287 222 -287 222 -326.5 c 128,-1,61
 222 -366 222 -366 250.5 -409.5 c 128,-1,62
 279 -453 279 -453 327.5 -488.5 c 0,63,64
 436.112676056 -568 436.112676056 -568 587.956338028 -568 c 128,-1,65
 739.8 -568 739.8 -568 863.4 -479.714285714 c 128,-1,66
 987 -391.428571429 987 -391.428571429 987 -285.814285714 c 128,-1,67
 987 -180.2 987 -180.2 885 -144.5 c 0,68,69
 837.46835443 -127.863924051 837.46835443 -127.863924051 638.272638754 -123.714013307 c 0,70,71
 439.076923077 -119.564102564 439.076923077 -119.564102564 380 -113 c 1,72,73
 354 -143 354 -143 326.5 -166 c 128,-1,74
 299 -189 299 -189 275.5 -212 c 128,-1,59
 252 -235 252 -235 237 -261 c 128,-1,60
700.4 794.75 m 128,-1,76
 629.8 883 629.8 883 514 883 c 0,77,78
 363.871559633 883 363.871559633 883 302 742.5 c 0,79,80
 278 688 278 688 278 618.5 c 0,81,82
 278 474.709677419 278 474.709677419 337 380.5 c 0,83,84
 408.707070707 266 408.707070707 266 525.773535354 266 c 128,-1,85
 642.84 266 642.84 266 706.92 344.786885246 c 128,-1,86
 771 423.573770492 771 423.573770492 771 565.036885246 c 128,-1,75
 771 706.5 771 706.5 700.4 794.75 c 128,-1,76
EndSplineSet
Substitution2: "'ss15' Style Set 15 in Latin lookup 23 subtable" g.enl
Substitution2: "'smcp' Lowercase to Small Capitals in Latin lookup 3 subtable" G.sc
EndChar

StartChar: h
Encoding: 104 104 75
Width: 1124
GlyphClass: 2
Flags: W
AnchorPoint: "Anchor-1" 0 0 basechar 0
LayerCount: 2
Fore
SplineSet
341 774 m 2,0,1
 341 750 341 750 348 750 c 128,-1,2
 355 750 355 750 358 753.5 c 128,-1,3
 361 757 361 757 399.800217155 800.234527687 c 0,4,5
 512.666666667 926 512.666666667 926 628.988888889 926 c 0,6,7
 781.265822785 926 781.265822785 926 851.5 857.5 c 0,8,9
 939 772.160493827 939 772.160493827 939 569 c 2,10,-1
 939 152 l 2,11,12
 939 54.25 939 54.25 1047 38.5 c 0,13,14
 1094 31.6458333333 1094 31.6458333333 1094 16.8229166667 c 128,-1,15
 1094 2 1094 2 1084 0 c 1,16,-1
 638 0 l 1,17,18
 628 2 628 2 628 13.5 c 0,19,20
 628 31.6458333333 628 31.6458333333 675 38.5 c 0,21,22
 783 54.25 783 54.25 783 152 c 2,23,-1
 783 559 l 2,24,25
 783 705.971428571 783 705.971428571 762.5 750.485714286 c 0,26,27
 722.197368421 838 722.197368421 838 595 838 c 0,28,29
 517.271186441 838 517.271186441 838 429.13559322 771.333333333 c 128,-1,30
 341 704.666666667 341 704.666666667 341 625 c 2,31,-1
 341 152 l 2,32,33
 341 54.25 341 54.25 449 38.5 c 0,34,35
 496 31.6458333333 496 31.6458333333 496 16.8229166667 c 128,-1,36
 496 2 496 2 486 0 c 1,37,-1
 40 0 l 1,38,39
 30 2 30 2 30 13.5 c 0,40,41
 30 31.6458333333 30 31.6458333333 77 38.5 c 0,42,43
 185 54.25 185 54.25 185 152 c 2,44,-1
 185 1399 l 2,45,46
 185 1440.9 185 1440.9 139 1457 c 0,47,48
 119 1464 119 1464 96 1468.5 c 128,-1,49
 73 1473 73 1473 59.5 1477 c 128,-1,50
 46 1481 46 1481 42.5 1484.5 c 128,-1,51
 39 1488 39 1488 39 1499.33333333 c 128,-1,52
 39 1510.66666667 39 1510.66666667 54 1519 c 1,53,-1
 309 1639 l 2,54,55
 321 1645 321 1645 324 1645 c 0,56,57
 341 1645 341 1645 341 1621 c 2,58,-1
 341 774 l 2,0,1
EndSplineSet
Substitution2: "'ss15' Style Set 15 in Latin lookup 23 subtable" h.enl
Substitution2: "'smcp' Lowercase to Small Capitals in Latin lookup 3 subtable" H.sc
EndChar

StartChar: i
Encoding: 105 105 76
Width: 576
GlyphClass: 2
Flags: W
AnchorPoint: "Anchor-1" -265 0 basechar 0
LayerCount: 2
Fore
SplineSet
70 0 m 1,0,1
 60 2 60 2 60 13.5 c 0,2,3
 60 31.6458333333 60 31.6458333333 107 38.5 c 0,4,5
 215 54.25 215 54.25 215 152 c 2,6,-1
 215 681 l 2,7,8
 215 722.9 215 722.9 169 739 c 0,9,10
 149 746 149 746 126 750.5 c 128,-1,11
 103 755 103 755 89.5 759 c 128,-1,12
 76 763 76 763 72.5 766.5 c 128,-1,13
 69 770 69 770 69 781.333333333 c 128,-1,14
 69 792.666666667 69 792.666666667 84 801 c 1,15,-1
 339 921 l 2,16,17
 351 927 351 927 354 927 c 0,18,19
 371 927 371 927 371 903 c 2,20,-1
 371 152 l 2,21,22
 371 54.25 371 54.25 479 38.5 c 0,23,24
 526 31.6458333333 526 31.6458333333 526 16.8229166667 c 128,-1,25
 526 2 526 2 516 0 c 1,26,-1
 70 0 l 1,0,1
205.5 1234 m 128,-1,28
 174 1260 174 1260 174 1306.5 c 128,-1,29
 174 1353 174 1353 204 1380 c 128,-1,30
 234 1407 234 1407 275.431034483 1407 c 128,-1,31
 316.862068966 1407 316.862068966 1407 345.431034483 1375.13461538 c 128,-1,32
 374 1343.26923077 374 1343.26923077 374 1306.03461538 c 128,-1,33
 374 1268.8 374 1268.8 346.857142857 1238.4 c 128,-1,34
 319.714285714 1208 319.714285714 1208 278.357142857 1208 c 128,-1,27
 237 1208 237 1208 205.5 1234 c 128,-1,28
EndSplineSet
Substitution2: "Single Substitution lookup 39 subtable" dotlessi
Substitution2: "'ss15' Style Set 15 in Latin lookup 23 subtable" i.enl
Substitution2: "'smcp' Lowercase to Small Capitals in Latin lookup 3 subtable" I.sc
EndChar

StartChar: j
Encoding: 106 106 77
Width: 577
GlyphClass: 2
Flags: W
AnchorPoint: "Anchor-1" 0 0 basechar 0
LayerCount: 2
Fore
SplineSet
109 -543 m 1,0,1
 215 -518.058823529 215 -518.058823529 215 -317 c 2,2,-1
 215 681 l 2,3,4
 215 722.9 215 722.9 169 739 c 0,5,6
 149 746 149 746 126 750.5 c 128,-1,7
 103 755 103 755 89.5 759 c 128,-1,8
 76 763 76 763 72.5 766.5 c 128,-1,9
 69 770 69 770 69 781.333333333 c 128,-1,10
 69 792.666666667 69 792.666666667 84 801 c 1,11,-1
 339 921 l 2,12,13
 351 927 351 927 354 927 c 0,14,15
 371 927 371 927 371 903 c 2,16,-1
 371 -127 l 2,17,18
 371 -286.934782609 371 -286.934782609 305 -417.5 c 0,19,20
 282 -463 282 -463 250 -500 c 1,21,22
 162.018853103 -618.224666143 162.018853103 -618.224666143 18.5 -634.5 c 0,23,24
 -30 -640 -30 -640 -83.6388888889 -640 c 128,-1,25
 -137.277777778 -640 -137.277777778 -640 -190.182449495 -599.477272727 c 128,-1,26
 -243.087121212 -558.954545455 -243.087121212 -558.954545455 -247 -512 c 1,27,28
 -247 -457.939393939 -247 -457.939393939 -193.5 -432 c 0,29,30
 -177 -424 -177 -424 -164.03125 -424 c 0,31,32
 -140.666666667 -424 -140.666666667 -424 -26 -512 c 0,33,34
 15.3333333333 -543 15.3333333333 -543 109 -543 c 1,0,1
192 1234 m 128,-1,36
 160 1260 160 1260 160 1306.5 c 128,-1,37
 160 1353 160 1353 190 1380 c 128,-1,38
 220 1407 220 1407 261.931034483 1407 c 128,-1,39
 303.862068966 1407 303.862068966 1407 332.431034483 1375.13461538 c 128,-1,40
 361 1343.26923077 361 1343.26923077 361 1306.03461538 c 128,-1,41
 361 1268.8 361 1268.8 333.857142857 1238.4 c 128,-1,42
 306.714285714 1208 306.714285714 1208 265.357142857 1208 c 128,-1,35
 224 1208 224 1208 192 1234 c 128,-1,36
EndSplineSet
Substitution2: "Single Substitution lookup 39 subtable" dotlessj
Substitution2: "'ss15' Style Set 15 in Latin lookup 23 subtable" j.enl
Substitution2: "'smcp' Lowercase to Small Capitals in Latin lookup 3 subtable" J.sc
EndChar

StartChar: k
Encoding: 107 107 78
Width: 1096
GlyphClass: 2
Flags: W
AnchorPoint: "Anchor-1" 0 0 basechar 0
LayerCount: 2
Fore
SplineSet
367 479 m 2,0,1
 355 479 355 479 355 430 c 2,2,-1
 355 152 l 2,3,4
 355 54.25 355 54.25 463 38.5 c 0,5,6
 510 31.6458333333 510 31.6458333333 510 15.8229166667 c 128,-1,7
 510 0 510 0 500 0 c 2,8,-1
 54 0 l 1,9,10
 44 2 44 2 44 13.5 c 0,11,12
 44 31.6458333333 44 31.6458333333 91 38.5 c 0,13,14
 199 54.25 199 54.25 199 152 c 2,15,-1
 199 1399 l 2,16,17
 199 1440.9 199 1440.9 153 1457 c 0,18,19
 133 1464 133 1464 110 1468.5 c 128,-1,20
 87 1473 87 1473 73.5 1477 c 128,-1,21
 60 1481 60 1481 56.5 1484.5 c 128,-1,22
 53 1488 53 1488 53 1499.33333333 c 128,-1,23
 53 1510.66666667 53 1510.66666667 68 1519 c 1,24,-1
 323 1639 l 2,25,26
 335 1645 335 1645 338 1645 c 0,27,28
 355 1645 355 1645 355 1621 c 2,29,-1
 355 623 l 1,30,31
 363 594 363 594 376 589 c 128,-1,32
 389 584 389 584 404 584 c 0,33,34
 432.785714286 584 432.785714286 584 499.200074617 629.727920228 c 128,-1,35
 565.614434948 675.455840456 565.614434948 675.455840456 619.807217474 731.860573289 c 128,-1,36
 674 788.265306122 674 788.265306122 674 809.632653061 c 128,-1,37
 674 831 674 831 655 836.5 c 128,-1,38
 636 842 636 842 612.5 844.5 c 128,-1,39
 589 847 589 847 570 852.5 c 128,-1,40
 551 858 551 858 551 879 c 128,-1,41
 551 900 551 900 592 900 c 2,42,-1
 973 900 l 2,43,44
 1008 900 1008 900 1008 877 c 0,45,46
 1008 865 1008 865 985 858 c 128,-1,47
 962 851 962 851 896.211895911 836.487918216 c 128,-1,48
 830.423791822 821.975836431 830.423791822 821.975836431 791 791 c 2,49,-1
 504 567 l 1,50,51
 504 554 504 554 523 535 c 2,52,-1
 934 102 l 2,53,54
 973.52 60.96 973.52 60.96 1015.76 48.48 c 128,-1,55
 1058 36 1058 36 1072 32 c 128,-1,56
 1086 28 1086 28 1086 18 c 0,57,58
 1086 0 1086 0 1070 0 c 2,59,-1
 631 0 l 2,60,61
 621 0 621 0 621 12 c 0,62,63
 621 30.1290322581 621 30.1290322581 646.5 35.064516129 c 0,64,65
 721 49.4838709677 721 49.4838709677 721 86 c 0,66,67
 721 97 721 97 706 115 c 128,-1,68
 691 133 691 133 678 150 c 1,69,-1
 369 477 l 2,70,71
 369 478 369 478 368 479 c 1,72,-1
 367 479 l 2,0,1
EndSplineSet
Substitution2: "'ss15' Style Set 15 in Latin lookup 23 subtable" k.enl
Substitution2: "'smcp' Lowercase to Small Capitals in Latin lookup 3 subtable" K.sc
EndChar

StartChar: l
Encoding: 108 108 79
Width: 521
GlyphClass: 2
Flags: W
AnchorPoint: "Anchor-1" -300 0 basechar 0
LayerCount: 2
Fore
SplineSet
439 38.5 m 0,0,1
 486 31.6458333333 486 31.6458333333 486 13.5 c 0,2,3
 486 2 486 2 476 0 c 1,4,-1
 30 0 l 1,5,6
 20 2 20 2 20 13.5 c 0,7,8
 20 31.6458333333 20 31.6458333333 67 38.5 c 0,9,10
 175 54.25 175 54.25 175 152 c 2,11,-1
 175 1399 l 2,12,13
 175 1440.9 175 1440.9 129 1457 c 0,14,15
 109 1464 109 1464 86 1468.5 c 128,-1,16
 63 1473 63 1473 49.5 1477 c 128,-1,17
 36 1481 36 1481 32.5 1484.5 c 128,-1,18
 29 1488 29 1488 29 1499.33333333 c 128,-1,19
 29 1510.66666667 29 1510.66666667 44 1519 c 1,20,-1
 299 1639 l 2,21,22
 311 1645 311 1645 314 1645 c 0,23,24
 331 1645 331 1645 331 1621 c 2,25,-1
 331 152 l 2,26,27
 331 54.25 331 54.25 439 38.5 c 0,0,1
EndSplineSet
Substitution2: "'ss15' Style Set 15 in Latin lookup 23 subtable" l.enl
Substitution2: "'smcp' Lowercase to Small Capitals in Latin lookup 3 subtable" L.sc
EndChar

StartChar: m
Encoding: 109 109 80
Width: 1732
GlyphClass: 2
Flags: W
AnchorPoint: "Anchor-1" 300 0 basechar 0
LayerCount: 2
Fore
SplineSet
1388 315 m 258,0,-1
 1386 526 l 1,1,2
 1386 654.657142857 1386 654.657142857 1364 706.828571429 c 128,-1,3
 1342 759 1342 759 1308 785.5 c 128,-1,4
 1274 812 1274 812 1216.40322581 812 c 128,-1,5
 1158.80645161 812 1158.80645161 812 973 722 c 1,6,7
 948.253333333 706.533333333 948.253333333 706.533333333 947 694 c 1,8,-1
 947 156 l 2,9,10
 947 55.25 947 55.25 1055 39.5 c 0,11,12
 1102 32.6458333333 1102 32.6458333333 1102 17.3229166667 c 128,-1,13
 1102 2 1102 2 1092 0 c 1,14,-1
 646 0 l 1,15,16
 636 2 636 2 636 14 c 0,17,18
 636 32.6458333333 636 32.6458333333 683 39.5 c 0,19,20
 791 55.25 791 55.25 791 156 c 2,21,-1
 791 654 l 2,22,23
 791 811 791 811 597 811 c 0,24,25
 525.5 811 525.5 811 399.5 727 c 0,26,27
 368 706 368 706 353 688 c 1,28,-1
 353 156 l 2,29,30
 353 55.25 353 55.25 461 39.5 c 0,31,32
 508 32.6458333333 508 32.6458333333 508 17.3229166667 c 128,-1,33
 508 2 508 2 498 0 c 1,34,-1
 52 0 l 1,35,36
 42 2 42 2 42 14 c 0,37,38
 42 32.6458333333 42 32.6458333333 89 39.5 c 0,39,40
 197 55.25 197 55.25 197 154 c 2,41,-1
 197 730 l 2,42,43
 197 771.9 197 771.9 151 788 c 0,44,45
 131 795 131 795 108 799.5 c 128,-1,46
 85 804 85 804 71.5 808 c 128,-1,47
 58 812 58 812 54.5 815.5 c 128,-1,48
 51 819 51 819 51 830.333333333 c 128,-1,49
 51 841.666666667 51 841.666666667 66 850 c 1,50,-1
 321 970 l 2,51,52
 333 976 333 976 336 976 c 0,53,54
 353 976 353 976 353 952 c 2,55,-1
 353 786 l 1,56,57
 354 780 354 780 360.5 780 c 128,-1,58
 367 780 367 780 393.5 794 c 128,-1,59
 420 808 420 808 463 833.5 c 128,-1,60
 506 859 506 859 576.428571429 893 c 128,-1,61
 646.857142857 927 646.857142857 927 726 927 c 256,62,63
 853 927 853 927 907.5 818 c 0,64,65
 929.451612903 774.096774194 929.451612903 774.096774194 946.225806452 780.548387097 c 128,-1,66
 963 787 963 787 999 805 c 0,67,68
 1083.66666667 847.333333333 1083.66666667 847.333333333 1171.04301075 887.166666667 c 128,-1,69
 1258.41935484 927 1258.41935484 927 1315.20967742 927 c 0,70,71
 1546 927 1546 927 1546 506 c 1,72,-1
 1537 214 l 1,73,-1
 1537 156 l 2,74,75
 1537 77.6428571429 1537 77.6428571429 1615 53.5 c 0,76,77
 1648.2739726 43.200913242 1648.2739726 43.200913242 1678.6369863 38.600456621 c 128,-1,78
 1709 34 1709 34 1718.5 30 c 128,-1,79
 1728 26 1728 26 1728 14 c 128,-1,80
 1728 2 1728 2 1718 0 c 1,81,-1
 1236 0 l 1,82,83
 1226 2 1226 2 1226 14 c 0,84,85
 1226 32.6458333333 1226 32.6458333333 1273 39.5 c 0,86,87
 1380 55.1041666667 1380 55.1041666667 1380 164 c 1,88,89
 1388 213.6 1388 213.6 1388 315 c 258,0,-1
EndSplineSet
AlternateSubs2: "'salt' Stylistic Alternatives in Latin lookup 24 subtable" m.alt01
Substitution2: "'ss15' Style Set 15 in Latin lookup 23 subtable" m.enl
Substitution2: "'smcp' Lowercase to Small Capitals in Latin lookup 3 subtable" M.sc
EndChar

StartChar: n
Encoding: 110 110 81
Width: 1164
GlyphClass: 2
Flags: W
AnchorPoint: "Anchor-1" 0 0 basechar 0
LayerCount: 2
Fore
SplineSet
804 315 m 258,0,-1
 802 526 l 1,1,2
 802 654.657142857 802 654.657142857 780 706.828571429 c 128,-1,3
 758 759 758 759 724 785.5 c 128,-1,4
 690 812 690 812 632.403225806 812 c 128,-1,5
 574.806451613 812 574.806451613 812 389 722 c 1,6,7
 364.253333333 706.533333333 364.253333333 706.533333333 363 694 c 1,8,-1
 363 156 l 2,9,10
 363 55.25 363 55.25 471 39.5 c 0,11,12
 518 32.6458333333 518 32.6458333333 518 17.3229166667 c 128,-1,13
 518 2 518 2 508 0 c 1,14,-1
 62 0 l 1,15,16
 52 2 52 2 52 14 c 0,17,18
 52 32.6458333333 52 32.6458333333 99 39.5 c 0,19,20
 207 55.25 207 55.25 207 156 c 2,21,-1
 207 730 l 2,22,23
 207 771.9 207 771.9 161 788 c 0,24,25
 141 795 141 795 118 799.5 c 128,-1,26
 95 804 95 804 81.5 808 c 128,-1,27
 68 812 68 812 64.5 815.5 c 128,-1,28
 61 819 61 819 61 830.333333333 c 128,-1,29
 61 841.666666667 61 841.666666667 76 850 c 1,30,-1
 331 970 l 2,31,32
 343 976 343 976 346 976 c 0,33,34
 363 976 363 976 363 952 c 2,35,-1
 363 796 l 1,36,37
 366 786 366 786 371 786 c 256,38,39
 377 786 377 786 414 804.5 c 0,40,41
 499.666666667 847.333333333 499.666666667 847.333333333 587.043010753 887.166666667 c 128,-1,42
 674.419354839 927 674.419354839 927 731.209677419 927 c 0,43,44
 962 927 962 927 962 506 c 1,45,-1
 953 214 l 1,46,-1
 953 156 l 2,47,48
 953 77.6428571429 953 77.6428571429 1031 53.5 c 0,49,50
 1064.2739726 43.200913242 1064.2739726 43.200913242 1094.6369863 38.600456621 c 128,-1,51
 1125 34 1125 34 1134.5 30 c 128,-1,52
 1144 26 1144 26 1144 14 c 128,-1,53
 1144 2 1144 2 1134 0 c 1,54,-1
 652 0 l 1,55,56
 642 2 642 2 642 14 c 0,57,58
 642 32.6458333333 642 32.6458333333 689 39.5 c 0,59,60
 796 55.1041666667 796 55.1041666667 796 164 c 1,61,62
 804 213.6 804 213.6 804 315 c 258,0,-1
EndSplineSet
Substitution2: "'ss15' Style Set 15 in Latin lookup 23 subtable" n.enl
Substitution2: "'smcp' Lowercase to Small Capitals in Latin lookup 3 subtable" N.sc
EndChar

StartChar: o
Encoding: 111 111 82
Width: 1107
GlyphClass: 2
Flags: W
AnchorPoint: "Anchor-1" 0 0 basechar 0
LayerCount: 2
Fore
SplineSet
214.407692308 787.4140625 m 128,-1,1
 353.815384615 929 353.815384615 929 548.720192308 929 c 128,-1,2
 743.625 929 743.625 929 887.8125 791.268656716 c 128,-1,3
 1032 653.537313433 1032 653.537313433 1032 451.831156716 c 128,-1,4
 1032 250.125 1032 250.125 895.569230769 111.5625 c 128,-1,5
 759.138461538 -27 759.138461538 -27 552.908925426 -27 c 128,-1,6
 346.679389313 -27 346.679389313 -27 210.839694656 113.118110236 c 128,-1,7
 75 253.236220472 75 253.236220472 75 449.532172736 c 128,-1,0
 75 645.828125 75 645.828125 214.407692308 787.4140625 c 128,-1,1
324.5 192.5 m 0,8,9
 421.517241379 27 421.517241379 27 591 27 c 0,10,11
 722.42 27 722.42 27 791.71 131.984848485 c 128,-1,12
 861 236.96969697 861 236.96969697 861 389.834848485 c 128,-1,13
 861 542.7 861 542.7 763.333333333 703.85 c 0,14,15
 665.666666667 865 665.666666667 865 501 865 c 0,16,17
 380.333333333 865 380.333333333 865 310.666666667 760.5 c 0,18,19
 241 656 241 656 241 495.470588235 c 128,-1,20
 241 334.941176471 241 334.941176471 324.5 192.5 c 0,8,9
EndSplineSet
Substitution2: "'ss15' Style Set 15 in Latin lookup 23 subtable" o.enl
Substitution2: "'smcp' Lowercase to Small Capitals in Latin lookup 3 subtable" O.sc
EndChar

StartChar: p
Encoding: 112 112 83
Width: 1090
GlyphClass: 2
Flags: W
AnchorPoint: "Anchor-1" 100 0 basechar 0
LayerCount: 2
Fore
SplineSet
823 105 m 0,0,1
 685.382978723 -27 685.382978723 -27 512.818181818 -27 c 0,2,3
 450.636363636 -27 450.636363636 -27 344 -4 c 1,4,5
 327 -4 327 -4 325.5 -16 c 128,-1,6
 324 -28 324 -28 323 -41 c 1,7,-1
 323 -468 l 2,8,9
 323 -543.29787234 323 -543.29787234 410.5 -567.5 c 0,10,11
 447.716738197 -577.793991416 447.716738197 -577.793991416 480.858369099 -582.396995708 c 128,-1,12
 514 -587 514 -587 523.5 -591 c 128,-1,13
 533 -595 533 -595 533 -606.5 c 128,-1,14
 533 -618 533 -618 523 -620 c 1,15,-1
 22 -620 l 1,16,17
 12 -618 12 -618 12 -606.5 c 0,18,19
 12 -588.354166667 12 -588.354166667 59 -581.5 c 0,20,21
 167 -565.75 167 -565.75 167 -468 c 2,22,-1
 167 731 l 2,23,24
 167 772.9 167 772.9 121 789 c 0,25,26
 101 796 101 796 78 800.5 c 128,-1,27
 55 805 55 805 41.5 809 c 128,-1,28
 28 813 28 813 24.5 816.5 c 128,-1,29
 21 820 21 820 21 831.333333333 c 128,-1,30
 21 842.666666667 21 842.666666667 36 851 c 1,31,-1
 291 973 l 2,32,33
 299 977 299 977 307 977 c 0,34,35
 323 977 323 977 323 953 c 2,36,-1
 323 826 l 2,37,38
 323 815 323 815 334.5 815 c 128,-1,39
 346 815 346 815 390 843.5 c 0,40,41
 517.368421053 926 517.368421053 926 654 926 c 0,42,43
 749.788732394 926 749.788732394 926 830.5 847.5 c 0,44,45
 935.032404407 745.831497084 935.032404407 745.831497084 970 564 c 0,46,47
 980 512 980 512 980 453.5 c 128,-1,48
 980 395 980 395 961 330 c 0,49,50
 923.373036649 201.27617801 923.373036649 201.27617801 823 105 c 0,0,1
537 822 m 1,51,52
 401 822 401 822 323 744 c 1,53,-1
 323 182 l 2,54,55
 323 132.172413793 323 132.172413793 340.5 117.086206897 c 0,56,57
 384.366628831 79.2701475596 384.366628831 79.2701475596 475 58.5 c 0,58,59
 654.928599762 17.2663625545 654.928599762 17.2663625545 755 144.5 c 0,60,61
 826 234.771428571 826 234.771428571 826 364 c 0,62,63
 826 615.140625 826 615.140625 713 740.5 c 0,64,65
 644.642023346 816.33463035 644.642023346 816.33463035 537 822 c 1,51,52
EndSplineSet
Substitution2: "'ss15' Style Set 15 in Latin lookup 23 subtable" p.enl
Substitution2: "'smcp' Lowercase to Small Capitals in Latin lookup 3 subtable" P.sc
EndChar

StartChar: q
Encoding: 113 113 84
Width: 1096
GlyphClass: 2
Flags: W
AnchorPoint: "Anchor-1" -125 0 basechar 0
LayerCount: 2
Fore
SplineSet
927 935 m 2,0,1
 933 935 933 935 933 929 c 2,2,-1
 933 -468 l 2,3,4
 933 -565.75 933 -565.75 1041 -581.5 c 0,5,6
 1088 -588.354166667 1088 -588.354166667 1088 -603.177083333 c 128,-1,7
 1088 -618 1088 -618 1078 -620 c 1,8,-1
 542 -620 l 1,9,10
 532 -618 532 -618 532 -606.5 c 128,-1,11
 532 -595 532 -595 541.5 -591 c 128,-1,12
 551 -587 551 -587 571.5 -584.5 c 128,-1,13
 592 -582 592 -582 618 -578 c 0,14,15
 777 -553.538461538 777 -553.538461538 777 -468 c 2,16,-1
 777 100 l 2,17,18
 777 106 777 106 772.5 106 c 128,-1,19
 768 106 768 106 696.923076923 65.0769230769 c 128,-1,20
 625.846153846 24.1538461538 625.846153846 24.1538461538 568.298076923 -1.42307692308 c 128,-1,21
 510.75 -27 510.75 -27 448.375 -27 c 0,22,23
 338.441176471 -27 338.441176471 -27 261.074605905 44.0936053849 c 128,-1,24
 183.708035339 115.18721077 183.708035339 115.18721077 141.854017669 220.868605385 c 128,-1,25
 100 326.55 100 326.55 100 427.775 c 0,26,27
 100 631.564885496 100 631.564885496 241.248175182 779.282442748 c 128,-1,28
 382.496350365 927 382.496350365 927 581 927 c 0,29,30
 704.322580645 927 704.322580645 927 822 863 c 1,31,-1
 829 863 l 2,32,33
 848.444444444 863 848.444444444 863 870.222222222 887.5 c 128,-1,34
 892 912 892 912 901.5 923.5 c 128,-1,35
 911 935 911 935 917 935 c 2,36,-1
 927 935 l 2,0,1
345.5 178.5 m 128,-1,38
 440 84 440 84 541.125 84 c 128,-1,39
 642.25 84 642.25 84 730 136 c 0,40,41
 757 152 757 152 777 172 c 1,42,-1
 777 626 l 2,43,44
 777 747.136363636 777 747.136363636 708.838983051 808.068181818 c 128,-1,45
 640.677966102 869 640.677966102 869 559.338983051 869 c 0,46,47
 413.35 869 413.35 869 332.175 742.493506494 c 128,-1,48
 251 615.987012987 251 615.987012987 251 444.493506494 c 128,-1,37
 251 273 251 273 345.5 178.5 c 128,-1,38
EndSplineSet
Substitution2: "'ss15' Style Set 15 in Latin lookup 23 subtable" q.enl
Substitution2: "'smcp' Lowercase to Small Capitals in Latin lookup 3 subtable" Q.sc
EndChar

StartChar: r
Encoding: 114 114 85
Width: 747
GlyphClass: 2
Flags: W
AnchorPoint: "Anchor-1" -260 0 basechar 0
LayerCount: 2
Fore
SplineSet
678 717 m 1,0,1
 666.020833333 719.395833333 666.020833333 719.395833333 642.510416667 730.197916667 c 0,2,3
 560.235294118 768 560.235294118 768 513.117647059 768 c 128,-1,4
 466 768 466 768 414.5 709.633333333 c 128,-1,5
 363 651.266666667 363 651.266666667 363 604 c 2,6,-1
 363 152 l 2,7,8
 363 76.7021276596 363 76.7021276596 450.5 52.5 c 0,9,10
 487.716738197 42.2060085837 487.716738197 42.2060085837 520.858369099 37.6030042918 c 128,-1,11
 554 33 554 33 563.5 29 c 128,-1,12
 573 25 573 25 573 13.5 c 128,-1,13
 573 2 573 2 563 0 c 1,14,-1
 62 0 l 1,15,16
 52 2 52 2 52 13.5 c 0,17,18
 52 31.6458333333 52 31.6458333333 99 38.5 c 0,19,20
 207 54.25 207 54.25 207 152 c 2,21,-1
 207 681 l 2,22,23
 207 722.9 207 722.9 161 739 c 0,24,25
 141 746 141 746 118 750.5 c 128,-1,26
 95 755 95 755 81.5 759 c 128,-1,27
 68 763 68 763 64.5 766.5 c 128,-1,28
 61 770 61 770 61 781.333333333 c 128,-1,29
 61 792.666666667 61 792.666666667 76 801 c 1,30,-1
 331 921 l 2,31,32
 343 927 343 927 346 927 c 0,33,34
 363 927 363 927 363 903 c 2,35,-1
 363 741 l 2,36,37
 363 729 363 729 369 729 c 256,38,39
 376.796610169 729 376.796610169 729 409.898305085 775.5 c 0,40,41
 504.93220339 909 504.93220339 909 567 909 c 0,42,43
 602.391304348 909 602.391304348 909 674.695652174 880.813559322 c 128,-1,44
 747 852.627118644 747 852.627118644 747 834 c 256,45,46
 747 810.631578947 747 810.631578947 724.192307692 763.815789474 c 128,-1,47
 701.384615385 717 701.384615385 717 678 717 c 1,0,1
EndSplineSet
Substitution2: "'ss15' Style Set 15 in Latin lookup 23 subtable" r.enl
Substitution2: "'smcp' Lowercase to Small Capitals in Latin lookup 3 subtable" R.sc
EndChar

StartChar: s
Encoding: 115 115 86
Width: 685
GlyphClass: 2
Flags: W
AnchorPoint: "Anchor-1" -235 0 basechar 0
LayerCount: 2
Fore
SplineSet
555 684 m 2,0,1
 555 662 555 662 538.333333333 662 c 128,-1,2
 521.666666667 662 521.666666667 662 512.833333333 686 c 0,3,4
 488.689481631 751.598389532 488.689481631 751.598389532 441.584740815 802.799194766 c 128,-1,5
 394.48 854 394.48 854 324 854 c 0,6,7
 232.344262295 854 232.344262295 854 200.5 761.5 c 0,8,9
 190 731 190 731 190 698.176470588 c 128,-1,10
 190 665.352941176 190 665.352941176 231.772151899 624.809381981 c 128,-1,11
 273.544303797 584.265822785 273.544303797 584.265822785 369.772151899 528.132911392 c 128,-1,12
 466 472 466 472 510 433 c 0,13,14
 610 344.363636364 610 344.363636364 610 227.381818182 c 128,-1,15
 610 110.4 610 110.4 524.125 41.7 c 128,-1,16
 438.25 -27 438.25 -27 324 -27 c 0,17,18
 263 -27 263 -27 213.5 -10.5 c 128,-1,19
 164 6 164 6 156.5 6 c 128,-1,20
 149 6 149 6 132.5 -10.5 c 128,-1,21
 116 -27 116 -27 106 -27 c 2,22,-1
 89 -27 l 2,23,24
 83 -27 83 -27 74 81 c 128,-1,25
 65 189 65 189 65 209 c 128,-1,26
 65 229 65 229 68.5 231 c 128,-1,27
 72 233 72 233 80 233 c 128,-1,28
 88 233 88 233 93.5 228 c 128,-1,29
 99 223 99 223 103 215.5 c 128,-1,30
 107 208 107 208 109.5 200 c 128,-1,31
 112 192 112 192 122 170.5 c 0,32,33
 189.674418605 25 189.674418605 25 332 25 c 0,34,35
 394.727272727 25 394.727272727 25 432.863636364 71.6111111111 c 128,-1,36
 471 118.222222222 471 118.222222222 471 175.111111111 c 128,-1,37
 471 232 471 232 441 271 c 128,-1,38
 411 310 411 310 366.5 342 c 128,-1,39
 322 374 322 374 269.5 404.5 c 0,40,41
 68 521.561904762 68 521.561904762 68 665.437796128 c 0,42,43
 68 771.987951807 68 771.987951807 159.9 849.493975904 c 128,-1,44
 251.8 927 251.8 927 348.828571429 927 c 128,-1,45
 445.857142857 927 445.857142857 927 492.67078106 905.858356941 c 128,-1,46
 539.484419263 884.716713881 539.484419263 884.716713881 547.242209632 870.170856941 c 128,-1,47
 555 855.625 555 855.625 555 776 c 2,48,-1
 555 684 l 2,0,1
EndSplineSet
Substitution2: "'ss15' Style Set 15 in Latin lookup 23 subtable" s.enl
Substitution2: "'hist' Historical Forms in Latin lookup 4 subtable" longs
Substitution2: "'smcp' Lowercase to Small Capitals in Latin lookup 3 subtable" S.sc
EndChar

StartChar: t
Encoding: 116 116 87
Width: 647
GlyphClass: 2
Flags: W
AnchorPoint: "Anchor-1" -240 0 basechar 0
LayerCount: 2
Fore
SplineSet
313 769 m 2,0,1
 307 769 307 769 307 760 c 2,2,-1
 307 208 l 2,3,4
 307 148.48 307 148.48 333.75 114.24 c 128,-1,5
 360.5 80 360.5 80 401.25 80 c 128,-1,6
 442 80 442 80 472.5 93.5 c 128,-1,7
 503 107 503 107 525.5 123 c 128,-1,8
 548 139 548 139 566 152.5 c 128,-1,9
 584 166 584 166 598 166 c 128,-1,10
 612 166 612 166 612 159 c 0,11,12
 612 135 612 135 607 128.5 c 0,13,14
 487.384615385 -27 487.384615385 -27 375.811710677 -27 c 0,15,16
 264.23880597 -27 264.23880597 -27 207.619402985 43.25 c 128,-1,17
 151 113.5 151 113.5 151 212 c 2,18,-1
 151 769 l 1,19,-1
 76 769 l 2,20,21
 47.75 769 47.75 769 46.375 787.166666667 c 128,-1,22
 45 805.333333333 45 805.333333333 52 810 c 0,23,24
 104.929292929 844.404040404 104.929292929 844.404040404 198 932 c 1,25,26
 208 943 208 943 225 965 c 128,-1,27
 242 987 242 987 274.697674419 1025 c 128,-1,28
 307.395348837 1063 307.395348837 1063 324.197674419 1063 c 128,-1,29
 341 1063 341 1063 341 1049 c 0,30,31
 341 1047.2 341 1047.2 307 918 c 1,32,33
 307 900.454545455 307 900.454545455 323 899 c 1,34,-1
 578 899 l 2,35,36
 622 899 622 899 622 775 c 0,37,38
 622 769 622 769 614 769 c 2,39,-1
 313 769 l 2,0,1
EndSplineSet
Substitution2: "'ss15' Style Set 15 in Latin lookup 23 subtable" t.enl
Substitution2: "'smcp' Lowercase to Small Capitals in Latin lookup 3 subtable" T.sc
EndChar

StartChar: u
Encoding: 117 117 88
Width: 1124
GlyphClass: 2
Flags: W
AnchorPoint: "Anchor-1" -10 0 basechar 0
LayerCount: 2
Fore
SplineSet
754 88 m 1,0,1
 749.2 104.8 749.2 104.8 741.1 99.4 c 128,-1,2
 733 94 733 94 675.5 65.25 c 0,3,4
 489 -28 489 -28 363.788135593 -28 c 128,-1,5
 238.576271186 -28 238.576271186 -28 184 52.5 c 0,6,7
 164 82 164 82 164 126 c 2,8,-1
 164 736 l 1,9,10
 161 765 161 765 137.5 785.5 c 0,11,12
 106.624615385 812.433846154 106.624615385 812.433846154 73.3123076923 814.393393665 c 128,-1,13
 40 816.352941176 40 816.352941176 40 834.494652406 c 128,-1,14
 40 852.636363636 40 852.636363636 56 857 c 2,15,-1
 285 923 l 2,16,17
 297 927 297 927 308.5 927 c 128,-1,18
 320 927 320 927 320 910 c 2,19,-1
 320 239 l 2,20,21
 320 168.966101695 320 168.966101695 382.25 130.983050847 c 128,-1,22
 444.5 93 444.5 93 540.655405405 93 c 128,-1,23
 636.810810811 93 636.810810811 93 714 152.5 c 0,24,25
 738 171 738 171 754 194 c 1,26,-1
 754 736 l 1,27,28
 751 765 751 765 727.5 785.5 c 0,29,30
 696.624615385 812.433846154 696.624615385 812.433846154 663.312307692 814.393393665 c 128,-1,31
 630 816.352941176 630 816.352941176 630 834.494652406 c 128,-1,32
 630 852.636363636 630 852.636363636 646 857 c 2,33,-1
 875 923 l 2,34,35
 887 927 887 927 898.5 927 c 128,-1,36
 910 927 910 927 910 907 c 2,37,-1
 910 197 l 1,38,39
 915 153 915 153 935 134 c 128,-1,40
 955 115 955 115 1000 115 c 1,41,-1
 1058 119 l 2,42,43
 1064 119 1064 119 1064 107.75 c 128,-1,44
 1064 96.5 1064 96.5 1049 89 c 1,45,-1
 783 -21 l 2,46,47
 771 -27 771 -27 762.5 -27 c 128,-1,48
 754 -27 754 -27 754 -2 c 2,49,-1
 754 88 l 1,0,1
EndSplineSet
Substitution2: "'ss15' Style Set 15 in Latin lookup 23 subtable" u.enl
Substitution2: "'smcp' Lowercase to Small Capitals in Latin lookup 3 subtable" U.sc
EndChar

StartChar: v
Encoding: 118 118 89
Width: 1036
GlyphClass: 2
Flags: W
AnchorPoint: "Anchor-1" -50 0 basechar 0
LayerCount: 2
Fore
SplineSet
1015 900 m 1,0,1
 1026 897.25 1026 897.25 1026 886.125 c 128,-1,2
 1026 875 1026 875 1023.13294798 869.98265896 c 128,-1,3
 1020.26589595 864.965317919 1020.26589595 864.965317919 979.002513194 858.852224177 c 128,-1,4
 937.739130435 852.739130435 937.739130435 852.739130435 920.369565217 835.369565217 c 128,-1,5
 903 818 903 818 889.5 796 c 128,-1,6
 876 774 876 774 866 750.5 c 128,-1,7
 856 727 856 727 847 708 c 1,8,-1
 574 2 l 1,9,10
 561.571428571 -27 561.571428571 -27 552 -27 c 2,11,-1
 473 -27 l 2,12,13
 462.625 -27 462.625 -27 451 4 c 2,14,-1
 186 721 l 2,15,16
 148.775389575 821.725416443 148.775389575 821.725416443 59 851 c 0,17,18
 52 853 52 853 42 854 c 0,19,20
 0 858.2 0 858.2 0 879.1 c 128,-1,21
 0 900 0 900 24 900 c 2,22,-1
 469 900 l 2,23,24
 477 900 477 900 477 884.5 c 128,-1,25
 477 869 477 869 466 864.5 c 0,26,27
 448.351648352 857.28021978 448.351648352 857.28021978 402 858.5 c 0,28,29
 327 860.473684211 327 860.473684211 327 798 c 1,30,-1
 333 774 l 1,31,-1
 536 219 l 1,32,33
 556.476190476 167.80952381 556.476190476 167.80952381 576 221.5 c 0,34,35
 578 227 578 227 601.5 287 c 0,36,37
 736.580152672 631.885496183 736.580152672 631.885496183 753.290076336 686.192748092 c 128,-1,38
 770 740.5 770 740.5 770 767.25 c 128,-1,39
 770 794 770 794 741.155555556 823.5 c 128,-1,40
 712.311111111 853 712.311111111 853 663.155555556 853 c 128,-1,41
 614 853 614 853 614 883 c 0,42,43
 614 900 614 900 636 900 c 2,44,-1
 1015 900 l 1,0,1
EndSplineSet
Substitution2: "'ss15' Style Set 15 in Latin lookup 23 subtable" v.enl
Substitution2: "'smcp' Lowercase to Small Capitals in Latin lookup 3 subtable" V.sc
EndChar

StartChar: w
Encoding: 119 119 90
Width: 1642
GlyphClass: 2
Flags: W
AnchorPoint: "Anchor-1" 260 0 basechar 0
LayerCount: 2
Fore
SplineSet
1601 900 m 1,0,1
 1612 897.25 1612 897.25 1612 886.125 c 128,-1,2
 1612 875 1612 875 1609.13294798 869.98265896 c 128,-1,3
 1606.26589595 864.965317919 1606.26589595 864.965317919 1565.00251319 858.852224177 c 128,-1,4
 1523.73913043 852.739130435 1523.73913043 852.739130435 1506.36956522 835.369565217 c 128,-1,5
 1489 818 1489 818 1475.5 796 c 128,-1,6
 1462 774 1462 774 1452 750.5 c 128,-1,7
 1442 727 1442 727 1433 708 c 1,8,-1
 1160 2 l 1,9,10
 1147.57142857 -27 1147.57142857 -27 1138 -27 c 2,11,-1
 1059 -27 l 2,12,13
 1048.625 -27 1048.625 -27 1037 4 c 2,14,-1
 815 605 l 1,15,-1
 582 2 l 1,16,17
 569.571428571 -27 569.571428571 -27 560 -27 c 2,18,-1
 481 -27 l 2,19,20
 470.625 -27 470.625 -27 459 4 c 2,21,-1
 194 721 l 2,22,23
 156.775389575 821.725416443 156.775389575 821.725416443 67 851 c 0,24,25
 60 853 60 853 50 854 c 0,26,27
 8 858.2 8 858.2 8 879.1 c 128,-1,28
 8 900 8 900 32 900 c 2,29,-1
 477 900 l 2,30,31
 485 900 485 900 485 884.5 c 128,-1,32
 485 869 485 869 474 864.5 c 0,33,34
 456.472527473 857.32967033 456.472527473 857.32967033 412 858.5 c 0,35,36
 339 860.421052632 339 860.421052632 339 798 c 1,37,-1
 341 774 l 1,38,-1
 544 219 l 1,39,40
 564.476190476 167.80952381 564.476190476 167.80952381 584 221.5 c 0,41,42
 586 227 586 227 667.296296296 431.866666667 c 128,-1,43
 748.592592593 636.733333333 748.592592593 636.733333333 772 721 c 1,44,45
 734.775389575 821.725416443 734.775389575 821.725416443 645 851 c 0,46,47
 638 853 638 853 628 854 c 0,48,49
 586 858.2 586 858.2 586 879.1 c 128,-1,50
 586 900 586 900 610 900 c 2,51,-1
 1055 900 l 2,52,53
 1063 900 1063 900 1063 884.5 c 128,-1,54
 1063 869 1063 869 1052 864.5 c 0,55,56
 1034.47252747 857.32967033 1034.47252747 857.32967033 990 858.5 c 0,57,58
 917 860.421052632 917 860.421052632 917 798 c 1,59,-1
 919 774 l 1,60,-1
 1122 219 l 1,61,62
 1142.47619048 167.80952381 1142.47619048 167.80952381 1162 221.5 c 0,63,64
 1164 227 1164 227 1188 287 c 0,65,66
 1311.33333333 595.333333333 1311.33333333 595.333333333 1333.66666667 667.916666667 c 128,-1,67
 1356 740.5 1356 740.5 1356 767.25 c 128,-1,68
 1356 794 1356 794 1327.15555556 823.5 c 128,-1,69
 1298.31111111 853 1298.31111111 853 1249.15555556 853 c 128,-1,70
 1200 853 1200 853 1200 883 c 0,71,72
 1200 900 1200 900 1222 900 c 2,73,-1
 1601 900 l 1,0,1
EndSplineSet
Substitution2: "'ss15' Style Set 15 in Latin lookup 23 subtable" w.enl
Substitution2: "'smcp' Lowercase to Small Capitals in Latin lookup 3 subtable" W.sc
EndChar

StartChar: x
Encoding: 120 120 91
Width: 1017
GlyphClass: 2
Flags: W
AnchorPoint: "Anchor-1" -70 0 basechar 0
LayerCount: 2
Fore
SplineSet
921 900 m 2,0,1
 929 900 929 900 929 884 c 128,-1,2
 929 868 929 868 921 864 c 1,3,4
 843.924101198 842.737683089 843.924101198 842.737683089 797.5 793.5 c 0,5,6
 781 776 781 776 761 752 c 2,7,-1
 568 520 l 1,8,9
 564 513.333333333 564 513.333333333 564 506.666666667 c 0,10,11
 564 495.438356164 564 495.438356164 650.766009852 389.655138673 c 128,-1,12
 737.532019704 283.871921182 737.532019704 283.871921182 891 91 c 0,13,14
 901.657439446 77.1453287197 901.657439446 77.1453287197 934.828719723 63.0726643599 c 128,-1,15
 968 49 968 49 980 40.5 c 128,-1,16
 992 32 992 32 992 18.25 c 128,-1,17
 992 4.5 992 4.5 980 0 c 1,18,-1
 586 0 l 2,19,20
 576 0 576 0 576 16 c 128,-1,21
 576 32 576 32 592.5 34.5 c 128,-1,22
 609 37 609 37 629.5 40 c 0,23,24
 683 47.8292682927 683 47.8292682927 683 81.5 c 0,25,26
 683 104.875 683 104.875 658 133 c 1,27,-1
 486 349 l 2,28,29
 478 360 478 360 473.5 366 c 128,-1,30
 469 372 469 372 456 372 c 128,-1,31
 443 372 443 372 435.5 361.5 c 128,-1,32
 428 351 428 351 420 343 c 1,33,-1
 263 154 l 2,34,35
 242 129.769230769 242 129.769230769 242 97.9240890688 c 128,-1,36
 242 66.0789473684 242 66.0789473684 283.441176471 47.5394736842 c 128,-1,37
 324.882352941 29 324.882352941 29 357 29 c 0,38,39
 364 29 364 29 364 14 c 256,40,41
 364 0 364 0 357 0 c 2,42,-1
 36 0 l 2,43,44
 20 0 20 0 20 18 c 256,45,46
 20 32.1707317073 20 32.1707317073 75.6821428571 57.9746515679 c 128,-1,47
 131.364285714 83.7785714286 131.364285714 83.7785714286 143 98 c 2,48,-1
 420 431 l 1,49,50
 419 433 419 433 416.5 436 c 128,-1,51
 414 439 414 439 405 450 c 128,-1,52
 396 461 396 461 377 484.5 c 128,-1,53
 358 508 358 508 276.335443038 608.601265823 c 128,-1,54
 194.670886076 709.202531646 194.670886076 709.202531646 105 821 c 0,55,56
 93.4819277108 833.957831325 93.4819277108 833.957831325 55.2409638554 850.528915663 c 128,-1,57
 17 867.1 17 867.1 17 880 c 1,58,59
 19 900 19 900 41 900 c 2,60,-1
 413 900 l 2,61,62
 421 900 421 900 420.5 887.5 c 128,-1,63
 420 875 420 875 405 871.5 c 128,-1,64
 390 868 390 868 372 862.5 c 0,65,66
 324 847.833333333 324 847.833333333 324 813 c 0,67,68
 324 790 324 790 333 781 c 1,69,-1
 488 589 l 2,70,71
 496 580 496 580 504.5 569.5 c 128,-1,72
 513 559 513 559 519.5 559 c 128,-1,73
 526 559 526 559 534 569 c 2,74,-1
 681 740 l 2,75,76
 706 768.846153846 706 768.846153846 706 797.923076923 c 128,-1,77
 706 827 706 827 690 838.5 c 128,-1,78
 674 850 674 850 654.5 855.5 c 128,-1,79
 635 861 635 861 619 866 c 128,-1,80
 603 871 603 871 603 885.5 c 128,-1,81
 603 900 603 900 614 900 c 2,82,-1
 921 900 l 2,0,1
EndSplineSet
Substitution2: "'ss15' Style Set 15 in Latin lookup 23 subtable" x.enl
Substitution2: "'smcp' Lowercase to Small Capitals in Latin lookup 3 subtable" X.sc
EndChar

StartChar: y
Encoding: 121 121 92
Width: 1082
GlyphClass: 2
Flags: W
AnchorPoint: "Anchor-1" 200 0 basechar 0
LayerCount: 2
Fore
SplineSet
1046 900 m 1,0,1
 1057 897.25 1057 897.25 1057 886.125 c 128,-1,2
 1057 875 1057 875 1055 871.5 c 128,-1,3
 1053 868 1053 868 1045.5 865.5 c 128,-1,4
 1038 863 1038 863 1024.5 861 c 128,-1,5
 1011 859 1011 859 981.821428571 853.571428571 c 128,-1,6
 952.642857143 848.142857143 952.642857143 848.142857143 929.924876847 813.192118227 c 128,-1,7
 907.206896552 778.24137931 907.206896552 778.24137931 881 716 c 1,8,-1
 411 -449 l 1,9,-1
 346 -587 l 2,10,11
 321.058823529 -640 321.058823529 -640 241 -640 c 0,12,13
 206 -640 206 -640 185 -617 c 128,-1,14
 164 -594 164 -594 164 -562.5 c 128,-1,15
 164 -531 164 -531 179.5 -516.5 c 128,-1,16
 195 -502 195 -502 216 -493 c 128,-1,17
 237 -484 237 -484 259.5 -476.5 c 128,-1,18
 282 -469 282 -469 309.855932203 -442.610169492 c 128,-1,19
 337.711864407 -416.220338983 337.711864407 -416.220338983 343 -403 c 0,20,21
 511 -27.4705882353 511 -27.4705882353 511 -10.2352941176 c 128,-1,22
 511 7 511 7 491 32 c 1,23,-1
 161 721 l 1,24,25
 123.775389575 821.725416443 123.775389575 821.725416443 34 851 c 0,26,27
 27 853 27 853 17 854 c 0,28,29
 -25 858.2 -25 858.2 -25 879.1 c 128,-1,30
 -25 900 -25 900 -1 900 c 2,31,-1
 444 900 l 2,32,33
 452 900 452 900 452 884.5 c 128,-1,34
 452 869 452 869 437.944444444 863.5 c 128,-1,35
 423.888888889 858 423.888888889 858 375.5 858 c 0,36,37
 299 858 299 858 299 798 c 1,38,-1
 308 774 l 1,39,-1
 567 219 l 1,40,41
 587.476190476 167.80952381 587.476190476 167.80952381 607 221.5 c 0,42,43
 609 227 609 227 632.5 287 c 0,44,45
 767.580152672 631.885496183 767.580152672 631.885496183 784.290076336 686.192748092 c 128,-1,46
 801 740.5 801 740.5 801 767.25 c 128,-1,47
 801 794 801 794 772.304347826 824 c 128,-1,48
 743.608695652 854 743.608695652 854 694.304347826 854 c 128,-1,49
 645 854 645 854 645 883 c 0,50,51
 645 900 645 900 667 900 c 2,52,-1
 1046 900 l 1,0,1
EndSplineSet
Substitution2: "'ss15' Style Set 15 in Latin lookup 23 subtable" y.enl
Substitution2: "'smcp' Lowercase to Small Capitals in Latin lookup 3 subtable" Y.sc
EndChar

StartChar: z
Encoding: 122 122 93
Width: 915
GlyphClass: 2
Flags: W
AnchorPoint: "Anchor-1" -130 0 basechar 0
LayerCount: 2
Fore
SplineSet
310.5 116 m 128,-1,1
 307 111 307 111 307 103.5 c 128,-1,2
 307 96 307 96 313 96 c 2,3,-1
 698 96 l 2,4,5
 760.6 96 760.6 96 808 175 c 0,6,7
 840.926829268 229.87804878 840.926829268 229.87804878 852.463414634 241.93902439 c 128,-1,8
 864 254 864 254 877.5 254 c 128,-1,9
 891 254 891 254 891 242 c 1,10,-1
 817 46 l 2,11,12
 815 42 815 42 809.75 21 c 0,13,14
 804.5 0 804.5 0 789 0 c 2,15,-1
 84 0 l 2,16,17
 62 0 62 0 62 20 c 0,18,19
 62 34.2 62 34.2 68 45 c 1,20,-1
 571 735 l 2,21,22
 581 749 581 749 588.5 759 c 128,-1,23
 596 769 596 769 597.5 781 c 128,-1,24
 599 793 599 793 465 793 c 2,25,-1
 260 793 l 2,26,27
 179.471698113 793 179.471698113 793 145 691.5 c 0,28,29
 136 665 136 665 124.333333333 627.5 c 128,-1,30
 112.666666667 590 112.666666667 590 96 590 c 0,31,32
 86 590 86 590 86 594 c 2,33,-1
 143 928 l 2,34,35
 145.666666667 940 145.666666667 940 159.233333333 940 c 0,36,37
 172.8 940 172.8 940 184.958823529 919.735294118 c 128,-1,38
 197.117647059 899.470588235 197.117647059 899.470588235 213.558823529 897.235294118 c 0,39,40
 288.842105263 887 288.842105263 887 418.921052632 887 c 128,-1,41
 549 887 549 887 840 893 c 1,42,43
 850 889.666666667 850 889.666666667 850 868.5 c 128,-1,44
 850 847.333333333 850 847.333333333 834 834 c 1,45,-1
 318 127 l 2,46,0
 314 121 314 121 310.5 116 c 128,-1,1
EndSplineSet
Substitution2: "'ss15' Style Set 15 in Latin lookup 23 subtable" z.enl
Substitution2: "'smcp' Lowercase to Small Capitals in Latin lookup 3 subtable" Z.sc
EndChar

StartChar: braceleft
Encoding: 123 123 94
Width: 1058
GlyphClass: 2
Flags: W
LayerCount: 2
Fore
SplineSet
837 -285 m 0,0,1
 850 -285 850 -285 850 -320.5 c 128,-1,2
 850 -356 850 -356 837 -356 c 2,3,-1
 803 -356 l 2,4,5
 618 -356 618 -356 475.5 -275 c 0,6,7
 309 -180.357894737 309 -180.357894737 309 8 c 0,8,9
 309 88 309 88 336 192.5 c 128,-1,10
 363 297 363 297 376 350 c 128,-1,11
 389 403 389 403 389 449 c 0,12,13
 389 653 389 653 235 664 c 1,14,15
 206 671.25 206 671.25 206 696.625 c 0,16,17
 206 745 206 745 235 745 c 0,18,19
 389 745 389 745 389 909 c 0,20,21
 389 966 389 966 376 1021 c 128,-1,22
 363 1076 363 1076 336 1183.06896552 c 128,-1,23
 309 1290.13793103 309 1290.13793103 309 1369.56896552 c 0,24,25
 309 1519.15652174 309 1519.15652174 440.610465116 1617.57826087 c 128,-1,26
 572.220930233 1716 572.220930233 1716 813 1716 c 0,27,28
 850 1716 850 1716 850 1686 c 0,29,30
 850 1645 850 1645 823 1645 c 0,31,32
 579.3 1645 579.3 1645 505.5 1483 c 0,33,34
 485 1438 485 1438 485 1347.90909091 c 128,-1,35
 485 1257.81818182 485 1257.81818182 503.5 1143.51683502 c 128,-1,36
 522 1029.21548822 522 1029.21548822 522 965.607744108 c 128,-1,37
 522 902 522 902 501 857 c 128,-1,38
 480 812 480 812 458 791 c 1,39,40
 442 772 442 772 428.5 759 c 128,-1,41
 415 746 415 746 400 731 c 128,-1,42
 385 716 385 716 385 702 c 256,43,44
 385 687 385 687 414.5 657.5 c 128,-1,45
 444 628 444 628 458 611.5 c 0,46,47
 522 536.071428571 522 536.071428571 522 460.717532468 c 128,-1,48
 522 385.363636364 522 385.363636364 503.5 262.010971787 c 128,-1,49
 485 138.65830721 485 138.65830721 485 41.829153605 c 0,50,51
 485 -175.468085106 485 -175.468085106 662.949792994 -245.512152561 c 0,52,53
 763.27027027 -285 763.27027027 -285 837 -285 c 0,0,1
EndSplineSet
EndChar

StartChar: bar
Encoding: 124 124 95
Width: 431
GlyphClass: 2
Flags: W
LayerCount: 2
Fore
SplineSet
150 1645 m 1,0,-1
 281 1645 l 1,1,-1
 281 -35 l 1,2,-1
 150 -35 l 1,3,-1
 150 1645 l 1,0,-1
EndSplineSet
EndChar

StartChar: braceright
Encoding: 125 125 96
Width: 1063
GlyphClass: 2
Flags: W
LayerCount: 2
Fore
SplineSet
823 745 m 1,0,1
 852 745 852 745 852 696.625 c 0,2,3
 852 671.25 852 671.25 823 664 c 1,4,5
 669 653 669 653 669 453 c 0,6,7
 669 403 669 403 682 350 c 128,-1,8
 695 297 695 297 722 190.862068966 c 128,-1,9
 749 84.724137931 749 84.724137931 749 11.3620689655 c 0,10,11
 749 -120.959459459 749 -120.959459459 674.587295691 -200.400049195 c 128,-1,12
 600.174591382 -279.84063893 600.174591382 -279.84063893 488.175530985 -317.920319465 c 128,-1,13
 376.176470588 -356 376.176470588 -356 255 -356 c 2,14,-1
 223 -356 l 2,15,16
 208 -356 208 -356 208 -320.5 c 128,-1,17
 208 -285 208 -285 221 -285 c 0,18,19
 294.72972973 -285 294.72972973 -285 365.864864865 -257 c 128,-1,20
 437 -229 437 -229 477.5 -195.5 c 0,21,22
 573 -116.50617284 573 -116.50617284 573 10.7469135802 c 128,-1,23
 573 138 573 138 554.5 262.018518519 c 128,-1,24
 536 386.037037037 536 386.037037037 536 425.518518519 c 0,25,26
 536 538.07860262 536 538.07860262 593.181818182 604 c 0,27,28
 614 628 614 628 643.5 657.5 c 128,-1,29
 673 687 673 687 673 702 c 256,30,31
 673 716 673 716 658 731 c 128,-1,32
 643 746 643 746 629.5 759 c 128,-1,33
 616 772 616 772 600 791 c 1,34,35
 578 812 578 812 557 857 c 128,-1,36
 536 902 536 902 536 964.357142857 c 128,-1,37
 536 1026.71428571 536 1026.71428571 554.5 1143.18877551 c 128,-1,38
 573 1259.66326531 573 1259.66326531 573 1348.83163265 c 128,-1,39
 573 1438 573 1438 552.5 1483 c 0,40,41
 478.7 1645 478.7 1645 235 1645 c 0,42,43
 208 1645 208 1645 208 1686 c 0,44,45
 208 1716 208 1716 245 1716 c 0,46,47
 394.5625 1716 394.5625 1716 478.28125 1687.5 c 128,-1,48
 562 1659 562 1659 619.5 1616 c 0,49,50
 749 1519.15652174 749 1519.15652174 749 1368 c 0,51,52
 749 1287.66666667 749 1287.66666667 722 1181.83333333 c 128,-1,53
 695 1076 695 1076 682 1021 c 128,-1,54
 669 966 669 966 669 907.764705882 c 128,-1,55
 669 849.529411765 669 849.529411765 701.507479862 807.460908414 c 128,-1,56
 734.014959724 765.392405063 734.014959724 765.392405063 823 745 c 1,0,1
EndSplineSet
EndChar

StartChar: asciitilde
Encoding: 126 126 97
Width: 1049
GlyphClass: 2
Flags: W
LayerCount: 2
Fore
SplineSet
958 781 m 1,0,1
 958 637.032258065 958 637.032258065 892.543209877 551.516129032 c 128,-1,2
 827.086419753 466 827.086419753 466 735 466 c 0,3,4
 683 466 683 466 639.5 487 c 128,-1,5
 596 508 596 508 518.432170543 560.746124031 c 0,6,7
 387.176470588 650 387.176470588 650 332.543478261 650 c 0,8,9
 212.396226415 650 212.396226415 650 209 470 c 1,10,-1
 90 470 l 1,11,12
 90 614.967741935 90 614.967741935 155.074074074 699.983870968 c 128,-1,13
 220.148148148 785 220.148148148 785 313 785 c 0,14,15
 373.727272727 785 373.727272727 785 427.427232855 765.945175439 c 128,-1,16
 481.127192982 746.890350877 481.127192982 746.890350877 588 669 c 1,17,18
 603 660 603 660 620 648 c 0,19,20
 686.583333333 601 686.583333333 601 731.442829457 601 c 128,-1,21
 776.302325581 601 776.302325581 601 808.151162791 645.177419355 c 128,-1,22
 840 689.35483871 840 689.35483871 840 781 c 1,23,-1
 958 781 l 1,0,1
EndSplineSet
EndChar

StartChar: cent
Encoding: 162 162 100
Width: 934
GlyphClass: 2
Flags: W
LayerCount: 2
Fore
SplineSet
395 142 m 1,0,1
 469.571428571 84 469.571428571 84 589.928571429 84 c 128,-1,2
 710.285714286 84 710.285714286 84 808.5 194 c 0,3,4
 837.964285714 227 837.964285714 227 843.982142857 227 c 128,-1,5
 850 227 850 227 857 221 c 128,-1,6
 864 215 864 215 864 203.5 c 128,-1,7
 864 192 864 192 858 186 c 1,8,9
 704.64 -27 704.64 -27 473 -27 c 0,10,11
 403 -27 403 -27 343 -4 c 1,12,-1
 217 -359 l 1,13,-1
 88 -359 l 1,14,-1
 236 59 l 1,15,16
 89.5510204082 186.346938776 89.5510204082 186.346938776 90.5393870846 425.531674472 c 0,17,18
 91.527753761 664.716410168 91.527753761 664.716410168 210.679314868 788.832619655 c 128,-1,19
 329.830875976 912.948829141 329.830875976 912.948829141 543 926 c 1,20,-1
 612 1120 l 1,21,-1
 742 1120 l 1,22,-1
 673 926 l 1,23,24
 810.44813278 915.004149378 810.44813278 915.004149378 850.5 826 c 0,25,26
 855 816 855 816 855 807 c 0,27,28
 855 737 855 737 774 737 c 0,29,30
 733.692307692 737 733.692307692 737 707.846153846 758 c 128,-1,31
 682 779 682 779 667 794 c 128,-1,32
 652 809 652 809 637 823 c 1,33,-1
 395 142 l 1,0,1
262 474.5 m 0,34,35
 262 348.739130435 262 348.739130435 306 255 c 1,36,-1
 520 861 l 1,37,38
 474.516853933 852.730337079 474.516853933 852.730337079 440 829 c 1,39,40
 262 728.875 262 728.875 262 474.5 c 0,34,35
EndSplineSet
EndChar

StartChar: sterling
Encoding: 163 163 101
Width: 1049
GlyphClass: 2
Flags: W
LayerCount: 2
Fore
SplineSet
560 225 m 1,0,1
 682 103 682 103 802 103 c 0,2,3
 874.6 103 874.6 103 930.5 181 c 0,4,5
 952 211 952 211 962.5 238 c 128,-1,6
 973 265 973 265 973 271 c 1,7,-1
 1013 271 l 1,8,9
 1007.39028777 170.025179856 1007.39028777 170.025179856 947.5 86 c 0,10,11
 866.957446809 -27 866.957446809 -27 718 -27 c 0,12,13
 645.38 -27 645.38 -27 567.5 39 c 0,14,15
 538 64 538 64 520 85.5 c 128,-1,16
 502 107 502 107 499 108 c 1,17,18
 441.597014925 21.8955223881 441.597014925 21.8955223881 356 -14 c 0,19,20
 325 -27 325 -27 292 -27 c 2,21,-1
 285 -27 l 2,22,23
 160.210526316 -27 160.210526316 -27 126 70.5 c 0,24,25
 116 99 116 99 116 134.5 c 0,26,27
 116 208.526315789 116 208.526315789 178.03125 260.763157895 c 128,-1,28
 240.0625 313 240.0625 313 322.300480769 313 c 128,-1,29
 404.538461538 313 404.538461538 313 463.5 276.5 c 0,30,31
 474 270 474 270 476 270 c 1,32,33
 481 292 481 292 481 345 c 0,34,35
 481 439.513513514 481 439.513513514 388 623 c 1,36,-1
 177 623 l 2,37,38
 153 623 153 623 153 639 c 2,39,-1
 153 663 l 2,40,41
 153 680 153 680 177 680 c 2,42,-1
 358 680 l 1,43,44
 282.715127701 826.805500982 282.715127701 826.805500982 268.357563851 895.402750491 c 128,-1,45
 254 964 254 964 254 1026 c 128,-1,46
 254 1088 254 1088 282 1155.5 c 128,-1,47
 310 1223 310 1223 357 1272.5 c 0,48,49
 458.121212121 1379 458.121212121 1379 598 1379 c 256,50,51
 739.428571429 1379 739.428571429 1379 847.214285714 1310.40909091 c 128,-1,52
 955 1241.81818182 955 1241.81818182 955 1147 c 0,53,54
 955 1103 955 1103 922 1083.5 c 0,55,56
 911 1077 911 1077 893.5 1077 c 128,-1,57
 876 1077 876 1077 861 1086 c 128,-1,58
 846 1095 846 1095 834.5 1110 c 128,-1,59
 823 1125 823 1125 813.5 1143.5 c 128,-1,60
 804 1162 804 1162 788 1190 c 0,61,62
 710.285714286 1326 710.285714286 1326 605.633053221 1326 c 0,63,64
 500.980392157 1326 500.980392157 1326 437.490196078 1270.17241379 c 128,-1,65
 374 1214.34482759 374 1214.34482759 374 1140.17241379 c 128,-1,66
 374 1066 374 1066 391 1005.5 c 128,-1,67
 408 945 408 945 433.5 890.5 c 128,-1,68
 459 836 459 836 488.5 785 c 128,-1,69
 518 734 518 734 542 680 c 1,70,-1
 731 680 l 2,71,72
 755 680 755 680 755 663 c 2,73,-1
 755 639 l 2,74,75
 755 623 755 623 731 623 c 2,76,-1
 565 623 l 1,77,78
 595 541.571428571 595 541.571428571 595 433.841269841 c 128,-1,79
 595 326.111111111 595 326.111111111 560 225 c 1,0,1
451 165 m 1,80,81
 380.230769231 257 380.230769231 257 290 257 c 0,82,83
 240.416666667 257 240.416666667 257 202.708333333 218.214285714 c 128,-1,84
 165 179.428571429 165 179.428571429 165 118.664285714 c 128,-1,85
 165 57.9 165 57.9 229 27.5 c 0,86,87
 249 18 249 18 294.010204082 18 c 0,88,89
 339.020408163 18 339.020408163 18 385.450882048 68.5576271186 c 128,-1,90
 431.881355932 119.115254237 431.881355932 119.115254237 451 165 c 1,80,81
EndSplineSet
EndChar

StartChar: currency
Encoding: 164 164 102
Width: 1049
GlyphClass: 2
Flags: W
LayerCount: 2
Fore
SplineSet
747 404 m 1,0,1
 649.742857143 330 649.742857143 330 528.343650794 330 c 128,-1,2
 406.944444444 330 406.944444444 330 306 409 c 1,3,-1
 114 218 l 1,4,-1
 52 280 l 1,5,-1
 246 473 l 1,6,7
 181 565.258064516 181 565.258064516 181 683.684587814 c 128,-1,8
 181 802.111111111 181 802.111111111 257 895 c 1,9,-1
 61 1093 l 1,10,-1
 124 1156 l 1,11,-1
 321 958 l 1,12,13
 416.294117647 1030 416.294117647 1030 532.147058824 1030 c 128,-1,14
 648 1030 648 1030 739 963 c 1,15,-1
 933 1157 l 1,16,-1
 995 1095 l 1,17,-1
 801 900 l 1,18,19
 884 801.710526316 884 801.710526316 884 684.309808612 c 128,-1,20
 884 566.909090909 884 566.909090909 810 466 c 1,21,-1
 997 278 l 1,22,-1
 935 216 l 1,23,-1
 747 404 l 1,0,1
352.428571429 502.588235294 m 128,-1,25
 425.857142857 427 425.857142857 427 531 427 c 256,26,27
 636 427 636 427 711 502 c 128,-1,28
 786 577 786 577 786 681.785714286 c 128,-1,29
 786 786.571428571 786 786.571428571 711.217391304 860.285714286 c 128,-1,30
 636.434782609 934 636.434782609 934 531 934 c 256,31,32
 425.434782609 934 425.434782609 934 352.217391304 859.705882353 c 128,-1,33
 279 785.411764706 279 785.411764706 279 681.794117647 c 128,-1,24
 279 578.176470588 279 578.176470588 352.428571429 502.588235294 c 128,-1,25
EndSplineSet
EndChar

StartChar: yen
Encoding: 165 165 103
Width: 1569
GlyphClass: 2
Flags: W
LayerCount: 2
Fore
SplineSet
312 535 m 2,0,1
 277 535 277 535 277 560 c 2,2,-1
 277 596 l 2,3,4
 277 621 277 621 312 621 c 2,5,-1
 635 621 l 1,6,-1
 286 1178 l 2,7,8
 189.978021978 1330.50549451 189.978021978 1330.50549451 96 1354 c 0,9,10
 91 1355 91 1355 78.2162162162 1357.90540541 c 0,11,12
 65.4324324324 1360.81081081 65.4324324324 1360.81081081 20.5 1368 c 0,13,14
 4 1370.64 4 1370.64 4 1390.32 c 128,-1,15
 4 1410 4 1410 19 1410 c 2,16,-1
 591 1410 l 2,17,18
 608 1410 608 1410 608 1390 c 128,-1,19
 608 1370 608 1370 591 1370 c 1,20,21
 523.777777778 1363.27777778 523.777777778 1363.27777778 502.388888889 1355.63888889 c 0,22,23
 452 1337.64285714 452 1337.64285714 452 1292 c 0,24,25
 452 1268 452 1268 464 1249 c 2,26,-1
 802 709 l 2,27,28
 813 693 813 693 815.5 688.5 c 128,-1,29
 818 684 818 684 826.576923077 684 c 128,-1,30
 835.153846154 684 835.153846154 684 853 713 c 2,31,-1
 1123 1172 l 1,32,33
 1135 1196 1135 1196 1150.5 1223.5 c 128,-1,34
 1166 1251 1166 1251 1166 1279.5 c 0,35,36
 1166 1352.66292135 1166 1352.66292135 1065.6 1366.2 c 0,37,38
 1030 1371 1030 1371 1027 1377 c 128,-1,39
 1024 1383 1024 1383 1024 1392 c 0,40,41
 1024 1410 1024 1410 1041 1410 c 2,42,-1
 1508 1410 l 2,43,44
 1522 1410 1522 1410 1522 1396 c 128,-1,45
 1522 1382 1522 1382 1517.5 1377 c 128,-1,46
 1513 1372 1513 1372 1505.5 1369.5 c 128,-1,47
 1498 1367 1498 1367 1489 1365.5 c 128,-1,48
 1480 1364 1480 1364 1450.5 1357 c 0,49,50
 1379.89437984 1340.24612403 1379.89437984 1340.24612403 1298.5 1246 c 0,51,52
 1289 1235 1289 1235 1288 1233 c 2,53,-1
 932 621 l 1,54,-1
 1278 621 l 2,55,56
 1313 621 1313 621 1313 596 c 2,57,-1
 1313 560 l 2,58,59
 1313 535 1313 535 1278 535 c 2,60,-1
 893 535 l 1,61,-1
 893 380 l 1,62,-1
 1278 380 l 2,63,64
 1313 380 1313 380 1313 355 c 2,65,-1
 1313 319 l 2,66,67
 1313 294 1313 294 1278 294 c 2,68,-1
 893 294 l 1,69,-1
 893 180 l 2,70,71
 893 126 893 126 923.5 95 c 128,-1,72
 954.049074819 63.9501206758 954.049074819 63.9501206758 1026.52453741 54.4967994683 c 128,-1,73
 1099 45.0434782609 1099 45.0434782609 1099 31 c 2,74,-1
 1099 20 l 2,75,76
 1099 0 1099 0 1065 0 c 2,77,-1
 526 0 l 2,78,79
 492 0 492 0 492 20 c 2,80,-1
 492 30 l 2,81,82
 492 45.625 492 45.625 521.5 49.3125 c 128,-1,83
 551 53 551 53 560 54 c 0,84,85
 636 62 636 62 667 91.5 c 128,-1,86
 698 121 698 121 698 180 c 2,87,-1
 698 294 l 1,88,-1
 312 294 l 2,89,90
 277 294 277 294 277 319 c 2,91,-1
 277 355 l 2,92,93
 277 380 277 380 312 380 c 2,94,-1
 698 380 l 1,95,-1
 698 511 l 2,96,97
 698 521.5 698 521.5 689 535 c 1,98,-1
 312 535 l 2,0,1
EndSplineSet
EndChar

StartChar: brokenbar
Encoding: 166 166 104
Width: 788
GlyphClass: 2
Flags: W
LayerCount: 2
Fore
SplineSet
459 1645 m 1,0,-1
 459 895 l 1,1,-1
 338 895 l 1,2,-1
 338 1645 l 1,3,-1
 459 1645 l 1,0,-1
459 717 m 1,4,-1
 459 -35 l 1,5,-1
 338 -35 l 1,6,-1
 338 717 l 1,7,-1
 459 717 l 1,4,-1
EndSplineSet
EndChar

StartChar: section
Encoding: 167 167 105
Width: 1114
GlyphClass: 2
Flags: W
LayerCount: 2
Fore
SplineSet
954 1430 m 0,0,1
 954 1355 954 1355 850 1355 c 0,2,3
 826 1355 826 1355 799 1380.5 c 128,-1,4
 772 1406 772 1406 739.5 1437 c 0,5,6
 653.532258065 1519 653.532258065 1519 574.516129032 1519 c 128,-1,7
 495.5 1519 495.5 1519 435 1475 c 0,8,9
 413 1459 413 1459 384 1436 c 1,10,11
 344 1369.33333333 344 1369.33333333 344 1324.62820513 c 128,-1,12
 344 1279.92307692 344 1279.92307692 371.531400966 1216.38907469 c 128,-1,13
 399.062801932 1152.85507246 399.062801932 1152.85507246 434 1107 c 1,14,15
 468 1047 468 1047 522.5 975 c 128,-1,16
 577 903 577 903 638 820.5 c 0,17,18
 793.833137485 609.742068155 793.833137485 609.742068155 872 449.5 c 0,19,20
 984 219.9 984 219.9 984 16.45 c 128,-1,21
 984 -187 984 -187 850 -354.5 c 0,22,23
 754.22300885 -474.221238938 754.22300885 -474.221238938 596.5 -533 c 0,24,25
 516 -563 516 -563 416 -570 c 1,26,27
 329.344827586 -570 329.344827586 -570 224.672413793 -521.817460317 c 128,-1,28
 120 -473.634920635 120 -473.634920635 120 -408 c 0,29,30
 120 -333 120 -333 224 -333 c 0,31,32
 249 -333 249 -333 275.5 -358.5 c 128,-1,33
 302 -384 302 -384 335 -415 c 0,34,35
 422.290322581 -497 422.290322581 -497 499.573732719 -497 c 128,-1,36
 576.857142857 -497 576.857142857 -497 653.928571429 -443.05 c 128,-1,37
 731 -389.1 731 -389.1 731 -308.095454545 c 128,-1,38
 731 -227.090909091 731 -227.090909091 648 -101.545454545 c 128,-1,39
 565 24 565 24 495 121 c 128,-1,40
 425 218 425 218 363.5 305.5 c 0,41,42
 223.577982765 504.576040782 223.577982765 504.576040782 156.788991382 662.611964053 c 128,-1,43
 90 820.647887324 90 820.647887324 90 1005.82394366 c 128,-1,44
 90 1191 90 1191 229.5 1377 c 0,45,46
 326.294520548 1506.05936073 326.294520548 1506.05936073 476.5 1563 c 0,47,48
 553 1592 553 1592 611 1592 c 0,49,50
 782.611111111 1592 782.611111111 1592 900.231988473 1512.10657387 c 0,51,52
 954 1475.58490566 954 1475.58490566 954 1430 c 0,0,1
811 -277 m 1,53,54
 888 -165.166666667 888 -165.166666667 888 16.2450248756 c 128,-1,55
 888 197.656716418 888 197.656716418 817.566837732 340.625523409 c 128,-1,56
 747.133675464 483.594330401 747.133675464 483.594330401 665.566837732 600.7971652 c 128,-1,57
 584 718 584 718 496.147281487 843.629387474 c 128,-1,58
 408.294562973 969.258774948 408.294562973 969.258774948 367 1049 c 1,59,60
 294.959183673 1149.85714286 294.959183673 1149.85714286 263 1299 c 1,61,62
 181 1153 181 1153 181 991 c 0,63,64
 181 882.947368421 181 882.947368421 217 792 c 1,65,66
 239.241747249 694.478492831 239.241747249 694.478492831 320.916791992 558.033123966 c 128,-1,67
 402.591836735 421.587755102 402.591836735 421.587755102 532.207683073 234.940936375 c 128,-1,68
 661.823529412 48.2941176471 661.823529412 48.2941176471 691.411764706 0.147058823529 c 0,69,70
 774.524088814 -135.096355258 774.524088814 -135.096355258 810 -277 c 1,71,-1
 811 -277 l 1,53,54
EndSplineSet
EndChar

StartChar: dieresis
Encoding: 168 168 106
Width: 700
GlyphClass: 2
Flags: W
LayerCount: 2
Fore
SplineSet
666 1240.5 m 0,0,1
 666 1150.51162791 666 1150.51162791 595.5 1121 c 0,2,3
 574 1112 574 1112 537.290322581 1112 c 0,4,5
 500.580645161 1112 500.580645161 1112 466.290322581 1145.21875 c 128,-1,6
 432 1178.4375 432 1178.4375 432 1227.71875 c 0,7,8
 432 1277 432 1277 466.5 1311.5 c 128,-1,9
 501 1346 501 1346 549.5 1346 c 0,10,11
 598 1346 598 1346 632 1312 c 128,-1,12
 666 1278 666 1278 666 1240.5 c 0,0,1
150 1112 m 256,13,14
 100 1112 100 1112 66.5 1145.5 c 128,-1,15
 33 1179 33 1179 33 1227.70967742 c 0,16,17
 33 1276.41935484 33 1276.41935484 66.703125 1311.20967742 c 128,-1,18
 100.40625 1346 100.40625 1346 150 1346 c 256,19,20
 199.59375 1346 199.59375 1346 233.296875 1311.20967742 c 128,-1,21
 267 1276.41935484 267 1276.41935484 267 1227.70967742 c 0,22,23
 267 1179 267 1179 233.5 1145.5 c 128,-1,24
 200 1112 200 1112 150 1112 c 256,13,14
EndSplineSet
EndChar

StartChar: copyright
Encoding: 169 169 107
Width: 1717
GlyphClass: 2
Flags: W
LayerCount: 2
Fore
SplineSet
90 723 m 256,0,1
 90 930.2 90 930.2 192.555555556 1104.54444444 c 128,-1,2
 295.111111111 1278.88888889 295.111111111 1278.88888889 469.455555556 1381.44444444 c 128,-1,3
 643.8 1484 643.8 1484 851 1484 c 256,4,5
 1058.2 1484 1058.2 1484 1232.54444444 1381.44444444 c 128,-1,6
 1406.88888889 1278.88888889 1406.88888889 1278.88888889 1509.44444444 1104.54444444 c 128,-1,7
 1612 930.2 1612 930.2 1612 723 c 256,8,9
 1612 515.8 1612 515.8 1509.44444444 341.455555556 c 128,-1,10
 1406.88888889 167.111111111 1406.88888889 167.111111111 1232.54444444 64.5555555556 c 128,-1,11
 1058.2 -38 1058.2 -38 851 -38 c 256,12,13
 643.8 -38 643.8 -38 469.455555556 64.5555555556 c 128,-1,14
 295.111111111 167.111111111 295.111111111 167.111111111 192.555555556 341.455555556 c 128,-1,15
 90 515.8 90 515.8 90 723 c 256,0,1
210 900 m 0,16,17
 186 815 186 815 186 723.5 c 0,18,19
 186 544.046511628 186 544.046511628 275.907381616 390.367615145 c 128,-1,20
 365.814763231 236.688718663 365.814763231 236.688718663 518.709707197 147.844359331 c 128,-1,21
 671.604651163 59 671.604651163 59 850 59 c 256,22,23
 1125 59 1125 59 1320 254 c 0,24,25
 1443 377 1443 377 1491 547 c 0,26,27
 1515 632 1515 632 1515 723.5 c 0,28,29
 1515 902.395348837 1515 902.395348837 1426.15564067 1055.2902928 c 128,-1,30
 1337.31128134 1208.18523677 1337.31128134 1208.18523677 1183.63238485 1298.09261838 c 128,-1,31
 1029.95348837 1388 1029.95348837 1388 850 1388 c 256,32,33
 671.604651163 1388 671.604651163 1388 515 1297 c 0,34,35
 284.232027387 1162.905097 284.232027387 1162.905097 210 900 c 0,16,17
1168 302 m 2,36,37
 1166 297 1166 297 1154 300 c 128,-1,38
 1142 303 1142 303 1124 303 c 128,-1,39
 1106 303 1106 303 1075 296 c 128,-1,40
 1044 289 1044 289 977.4375 274 c 128,-1,41
 910.875 259 910.875 259 837.9375 259 c 128,-1,42
 765 259 765 259 672.5 292.5 c 128,-1,43
 580 326 580 326 510 387.5 c 0,44,45
 358 521.042857143 358 521.042857143 358 734.352363823 c 128,-1,46
 358 947.661870504 358 947.661870504 506.198473282 1087.33093525 c 128,-1,47
 654.396946565 1227 654.396946565 1227 872 1227 c 0,48,49
 959 1227 959 1227 1041 1206.5 c 128,-1,50
 1123 1186 1123 1186 1144 1177 c 128,-1,51
 1165 1168 1165 1168 1173 1168 c 1,52,-1
 1193 1173 l 1,53,-1
 1213 1173 l 2,54,55
 1221 1173 1221 1173 1221 1162 c 2,56,-1
 1221 959 l 2,57,58
 1221 952 1221 952 1209.33333333 952 c 128,-1,59
 1197.66666667 952 1197.66666667 952 1192.09139785 960.85483871 c 128,-1,60
 1186.51612903 969.709677419 1186.51612903 969.709677419 1180 986 c 1,61,62
 1080 1182 1080 1182 889.810810811 1182 c 128,-1,63
 699.621621622 1182 699.621621622 1182 599.810810811 1066.59375 c 128,-1,64
 500 951.1875 500 951.1875 500 762.855654762 c 128,-1,65
 500 574.523809524 500 574.523809524 611.417322835 439.761904762 c 128,-1,66
 722.834645669 305 722.834645669 305 916.917322835 305 c 128,-1,67
 1111 305 1111 305 1240 520 c 1,68,69
 1241 524 1241 524 1248 524 c 2,70,-1
 1256 524 l 2,71,72
 1263 524 1263 524 1263 516.5 c 128,-1,73
 1263 509 1263 509 1259 501 c 2,74,-1
 1168 302 l 2,36,37
EndSplineSet
EndChar

StartChar: guillemotleft
Encoding: 171 171 109
Width: 791
GlyphClass: 2
Flags: W
LayerCount: 2
Fore
SplineSet
397 927 m 1,0,-1
 209 552 l 1,1,-1
 399 179 l 1,2,-1
 350 179 l 1,3,-1
 68 552 l 1,4,-1
 350 927 l 1,5,-1
 397 927 l 1,0,-1
679 927 m 1,6,-1
 491 552 l 1,7,-1
 681 179 l 1,8,-1
 632 179 l 1,9,-1
 350 552 l 1,10,-1
 632 927 l 1,11,-1
 679 927 l 1,6,-1
EndSplineSet
EndChar

StartChar: logicalnot
Encoding: 172 172 110
Width: 1049
GlyphClass: 2
Flags: W
LayerCount: 2
Fore
SplineSet
952 689 m 1,0,-1
 952 181 l 1,1,-1
 825 181 l 1,2,-1
 825 562 l 1,3,-1
 88 562 l 1,4,-1
 88 689 l 1,5,-1
 952 689 l 1,0,-1
EndSplineSet
EndChar

StartChar: registered
Encoding: 174 174 112
Width: 1702
GlyphClass: 2
Flags: W
LayerCount: 2
Fore
SplineSet
90 723 m 256,0,1
 90 930.2 90 930.2 192.555555556 1104.54444444 c 128,-1,2
 295.111111111 1278.88888889 295.111111111 1278.88888889 469.455555556 1381.44444444 c 128,-1,3
 643.8 1484 643.8 1484 851 1484 c 256,4,5
 1058.2 1484 1058.2 1484 1232.54444444 1381.44444444 c 128,-1,6
 1406.88888889 1278.88888889 1406.88888889 1278.88888889 1509.44444444 1104.54444444 c 128,-1,7
 1612 930.2 1612 930.2 1612 723 c 256,8,9
 1612 515.8 1612 515.8 1509.44444444 341.455555556 c 128,-1,10
 1406.88888889 167.111111111 1406.88888889 167.111111111 1232.54444444 64.5555555556 c 128,-1,11
 1058.2 -38 1058.2 -38 851 -38 c 256,12,13
 643.8 -38 643.8 -38 469.455555556 64.5555555556 c 128,-1,14
 295.111111111 167.111111111 295.111111111 167.111111111 192.555555556 341.455555556 c 128,-1,15
 90 515.8 90 515.8 90 723 c 256,0,1
210 900 m 0,16,17
 186 815 186 815 186 723.5 c 0,18,19
 186 544.046511628 186 544.046511628 275.907381616 390.367615145 c 128,-1,20
 365.814763231 236.688718663 365.814763231 236.688718663 518.709707197 147.844359331 c 128,-1,21
 671.604651163 59 671.604651163 59 850 59 c 256,22,23
 1125 59 1125 59 1320 254 c 0,24,25
 1443 377 1443 377 1491 547 c 0,26,27
 1515 632 1515 632 1515 723.5 c 0,28,29
 1515 902.395348837 1515 902.395348837 1426.15564067 1055.2902928 c 128,-1,30
 1337.31128134 1208.18523677 1337.31128134 1208.18523677 1183.63238485 1298.09261838 c 128,-1,31
 1029.95348837 1388 1029.95348837 1388 850 1388 c 256,32,33
 671.604651163 1388 671.604651163 1388 515 1297 c 0,34,35
 284.232027387 1162.905097 284.232027387 1162.905097 210 900 c 0,16,17
455 320 m 2,36,37
 450 320 450 320 450 332 c 2,38,-1
 450 339 l 2,39,40
 450 344 450 344 455 344 c 2,41,-1
 509 352 l 1,42,43
 570 366.352941176 570 366.352941176 570 422 c 2,44,-1
 570 1056 l 2,45,46
 570 1106.36363636 570 1106.36363636 528.5 1129 c 0,47,48
 504.666666667 1142 504.666666667 1142 476 1142 c 2,49,-1
 453 1142 l 2,50,51
 448 1142 448 1142 448 1147 c 2,52,-1
 448 1161 l 2,53,54
 448 1166 448 1166 455.5 1166 c 2,55,-1
 785 1175 l 1,56,-1
 845 1175 l 1,57,58
 952.192405063 1166.75443038 952.192405063 1166.75443038 1023.59620253 1097.4507446 c 128,-1,59
 1095 1028.14705882 1095 1028.14705882 1095 925 c 0,60,61
 1095 801.266666667 1095 801.266666667 953 735 c 1,62,-1
 1134 438 l 2,63,64
 1180.95833333 360.416666667 1180.95833333 360.416666667 1262 328 c 0,65,66
 1268 326.5 1268 326.5 1268 320 c 0,67,68
 1268 305 1268 305 1248 305 c 0,69,70
 1113.22222222 305 1113.22222222 305 1033.5 407.5 c 0,71,72
 1016 430 1016 430 999 459 c 1,73,-1
 843 702 l 1,74,-1
 701 709 l 1,75,-1
 696 709 l 2,76,77
 687 709 687 709 687 700 c 2,78,-1
 687 424 l 2,79,80
 687 375.625 687 375.625 731 360.5 c 0,81,82
 747 355 747 355 770 352 c 2,83,-1
 824 344 l 2,84,85
 829 344 829 344 829 339 c 2,86,-1
 829 325 l 2,87,88
 829 320 829 320 824 320 c 2,89,-1
 455 320 l 2,36,37
687 769 m 1,90,91
 688.722222222 738 688.722222222 738 699 738 c 2,92,-1
 761 734 l 1,93,94
 929.263157895 734 929.263157895 734 964 854 c 0,95,96
 975 892 975 892 975 940 c 0,97,98
 975 1035.28571429 975 1035.28571429 916.461538462 1089.64285714 c 128,-1,99
 857.923076923 1144 857.923076923 1144 765 1144 c 2,100,-1
 750 1144 l 1,101,-1
 720 1143 l 1,102,103
 687 1143 687 1143 687 1132 c 2,104,-1
 687 769 l 1,90,91
EndSplineSet
EndChar

StartChar: macron
Encoding: 175 175 113
Width: 699
GlyphClass: 2
Flags: W
LayerCount: 2
Fore
SplineSet
26 1322 m 1,0,-1
 673 1322 l 1,1,-1
 673 1193 l 1,2,-1
 26 1193 l 1,3,-1
 26 1322 l 1,0,-1
EndSplineSet
EndChar

StartChar: degree
Encoding: 176 176 114
Width: 1049
GlyphClass: 2
Flags: W
LayerCount: 2
Fore
SplineSet
368 1148 m 256,0,1
 368 1084 368 1084 414 1038 c 128,-1,2
 460 992 460 992 524 992 c 256,3,4
 588 992 588 992 634 1038 c 128,-1,5
 680 1084 680 1084 680 1148 c 256,6,7
 680 1212 680 1212 634.5 1257.5 c 0,8,9
 589 1303 589 1303 524 1303 c 256,10,11
 459 1303 459 1303 413.5 1257.5 c 0,12,13
 368 1212 368 1212 368 1148 c 256,0,1
295 1150 m 256,14,15
 295 1245 295 1245 362 1312 c 128,-1,16
 429 1379 429 1379 524 1379 c 256,17,18
 619 1379 619 1379 686 1312 c 128,-1,19
 753 1245 753 1245 753 1150 c 256,20,21
 753 1055.58064516 753 1055.58064516 686.285714286 987.790322581 c 0,22,23
 619.571428571 920 619.571428571 920 524 920 c 256,24,25
 428.428571429 920 428.428571429 920 361.714285714 987.790322581 c 0,26,27
 295 1055.58064516 295 1055.58064516 295 1150 c 256,14,15
EndSplineSet
EndChar

StartChar: plusminus
Encoding: 177 177 115
Width: 1049
GlyphClass: 2
Flags: W
LayerCount: 2
Fore
SplineSet
88 689 m 1,0,-1
 459 689 l 1,1,-1
 459 1056 l 1,2,-1
 594 1056 l 1,3,-1
 594 689 l 1,4,-1
 960 689 l 1,5,-1
 960 562 l 1,6,-1
 594 562 l 1,7,-1
 594 184 l 1,8,-1
 459 184 l 1,9,-1
 459 562 l 1,10,-1
 88 562 l 1,11,-1
 88 689 l 1,0,-1
88 127 m 1,12,-1
 960 127 l 1,13,-1
 960 0 l 1,14,-1
 88 0 l 1,15,-1
 88 127 l 1,12,-1
EndSplineSet
EndChar

StartChar: twosuperior
Encoding: 178 178 116
Width: 685
GlyphClass: 2
Flags: W
LayerCount: 2
Fore
SplineSet
51 552 m 2,0,1
 48 552 48 552 48 568 c 256,2,3
 48 585 48 585 77 615.5 c 128,-1,4
 106 646 106 646 152.5 689.5 c 128,-1,5
 199 733 199 733 280.086395233 809.726911619 c 0,6,7
 361.172790467 886.453823237 361.172790467 886.453823237 424.086395233 966.021029266 c 128,-1,8
 487 1045.58823529 487 1045.58823529 487 1117.57672634 c 128,-1,9
 487 1189.56521739 487 1189.56521739 437.711111111 1237.7826087 c 128,-1,10
 388.422222222 1286 388.422222222 1286 310.711111111 1286 c 128,-1,11
 233 1286 233 1286 195.5 1248 c 128,-1,12
 158 1210 158 1210 144.5 1185.5 c 128,-1,13
 131 1161 131 1161 122 1144 c 128,-1,14
 113 1127 113 1127 104 1117.5 c 128,-1,15
 95 1108 95 1108 82.5 1108 c 128,-1,16
 70 1108 70 1108 70 1112 c 0,17,18
 70 1216.93150685 70 1216.93150685 148.873333333 1297.96575342 c 128,-1,19
 227.746666667 1379 227.746666667 1379 348.096410256 1379 c 128,-1,20
 468.446153846 1379 468.446153846 1379 537.723076923 1310.77272727 c 128,-1,21
 607 1242.54545455 607 1242.54545455 607 1139.51082251 c 128,-1,22
 607 1036.47619048 607 1036.47619048 459 892 c 0,23,24
 417 851 417 851 333.046218487 772.836134454 c 128,-1,25
 249.092436975 694.672268908 249.092436975 694.672268908 214 653 c 1,26,-1
 519 653 l 2,27,28
 563.84 653 563.84 653 576.42 671.5 c 128,-1,29
 589 690 589 690 594 709 c 128,-1,30
 599 728 599 728 607 754 c 1,31,-1
 641 754 l 1,32,-1
 610 572 l 1,33,34
 605 557 605 557 595 552 c 1,35,-1
 51 552 l 2,0,1
EndSplineSet
EndChar

StartChar: threesuperior
Encoding: 179 179 117
Width: 661
GlyphClass: 2
Flags: W
LayerCount: 2
Fore
SplineSet
513 1239 m 0,0,1
 513 1144.57142857 513 1144.57142857 405 1052 c 1,2,3
 498.553651939 1048.33122934 498.553651939 1048.33122934 546.776825969 976.532281335 c 128,-1,4
 595 904.733333333 595 904.733333333 595 837.866666667 c 0,5,6
 595 714.210526316 595 714.210526316 489.1875 625.105263158 c 128,-1,7
 383.375 536 383.375 536 261.8625 536 c 128,-1,8
 140.35 536 140.35 536 71.5 590 c 0,9,10
 46 610 46 610 46 639.611111111 c 0,11,12
 46 669.222222222 46 669.222222222 54.4117647059 685.111111111 c 128,-1,13
 62.8235294118 701 62.8235294118 701 90.9117647059 701 c 128,-1,14
 119 701 119 701 139.5 684.5 c 128,-1,15
 160 668 160 668 184 647.5 c 0,16,17
 247.804878049 593 247.804878049 593 299.402439024 594.5 c 0,18,19
 388.731260545 597.096890817 388.731260545 597.096890817 430.865630272 660.298445409 c 128,-1,20
 473 723.5 473 723.5 473 810.25 c 0,21,22
 473 897 473 897 438 932 c 128,-1,23
 403 967 403 967 356.318181818 967 c 128,-1,24
 309.636363636 967 309.636363636 967 293.818181818 958 c 128,-1,25
 278 949 278 949 273 949 c 0,26,27
 240 949 240 949 240 968 c 0,28,29
 240 976 240 976 273 998 c 1,30,31
 373.504201681 1079.17647059 373.504201681 1079.17647059 400 1141 c 0,32,33
 412 1169 412 1169 412 1208 c 128,-1,34
 412 1247 412 1247 377 1270 c 128,-1,35
 342 1293 342 1293 294 1293 c 0,36,37
 177.769230769 1293 177.769230769 1293 111 1169 c 1,38,39
 95.6666666667 1169 95.6666666667 1169 82.8333333333 1172.5 c 128,-1,40
 70 1176 70 1176 70 1178 c 256,41,42
 70 1180 70 1180 71 1182.5 c 128,-1,43
 72 1185 72 1185 72.5 1188 c 128,-1,44
 73 1191 73 1191 75 1196 c 2,45,-1
 86 1223.5 l 2,46,47
 110.506976744 1284.76744186 110.506976744 1284.76744186 174.375710594 1331.88372093 c 128,-1,48
 238.244444444 1379 238.244444444 1379 324.622222222 1379 c 128,-1,49
 411 1379 411 1379 462 1341 c 128,-1,50
 513 1303 513 1303 513 1239 c 0,0,1
EndSplineSet
EndChar

StartChar: acute
Encoding: 180 180 118
Width: 700
GlyphClass: 2
Flags: W
LayerCount: 2
Fore
SplineSet
172 1096 m 2,0,1
 168 1100 168 1100 168 1102 c 256,2,3
 168 1104 168 1104 172 1108 c 2,4,-1
 385 1403 l 2,5,6
 420.807692308 1452 420.807692308 1452 455.903846154 1452 c 128,-1,7
 491 1452 491 1452 511.5 1429.5 c 128,-1,8
 532 1407 532 1407 532 1368.875 c 0,9,10
 532 1330.75 532 1330.75 477 1284 c 1,11,-1
 208 1067 l 2,12,13
 203 1064 203 1064 200 1064 c 128,-1,14
 197 1064 197 1064 194 1067 c 2,15,-1
 172 1096 l 2,0,1
EndSplineSet
EndChar

StartChar: uni00B5
Encoding: 181 181 119
Width: 1100
GlyphClass: 2
Flags: W
LayerCount: 2
Fore
SplineSet
745 -2 m 2,0,-1
 745 94 l 1,1,2
 742 98 742 98 737.5 98 c 2,3,-1
 731 98 l 2,4,5
 729 98 729 98 653.72555205 62.1987381703 c 0,6,7
 578.451104101 26.3974763407 578.451104101 26.3974763407 514.564837765 -0.301261829653 c 128,-1,8
 450.678571429 -27 450.678571429 -27 405.339285714 -27 c 128,-1,9
 360 -27 360 -27 311 -16 c 1,10,-1
 311 -564 l 2,11,12
 311 -580.142857143 311 -580.142857143 302 -584 c 2,13,-1
 167 -640 l 1,14,15
 158 -640 158 -640 156.5 -636.5 c 128,-1,16
 155 -633 155 -633 155 -619 c 2,17,-1
 155 879 l 2,18,19
 155 893 155 893 156.5 896.5 c 128,-1,20
 158 900 158 900 167 900 c 2,21,-1
 299 900 l 2,22,23
 308 900 308 900 309.5 896.5 c 128,-1,24
 311 893 311 893 311 879 c 2,25,-1
 311 219 l 2,26,27
 311 154.553846154 311 154.553846154 381.605263158 113.276923077 c 128,-1,28
 452.210526316 72 452.210526316 72 510.021929825 72 c 128,-1,29
 567.833333333 72 567.833333333 72 617.416666667 89.5 c 128,-1,30
 667 107 667 107 682.5 117 c 128,-1,31
 698 127 698 127 714 136 c 128,-1,32
 730 145 730 145 745 164 c 1,33,-1
 745 879 l 2,34,35
 745 893 745 893 746.5 896.5 c 128,-1,36
 748 900 748 900 757 900 c 2,37,-1
 889 900 l 2,38,39
 898 900 898 900 899.5 896.5 c 128,-1,40
 901 893 901 893 901 879 c 2,41,-1
 901 197 l 1,42,43
 906 153 906 153 926 134 c 128,-1,44
 946 115 946 115 991 115 c 1,45,-1
 1049 119 l 2,46,47
 1055 119 1055 119 1055 107.75 c 128,-1,48
 1055 96.5 1055 96.5 1040 89 c 1,49,-1
 774 -21 l 2,50,51
 762 -27 762 -27 753.5 -27 c 128,-1,52
 745 -27 745 -27 745 -2 c 2,0,-1
EndSplineSet
EndChar

StartChar: paragraph
Encoding: 182 182 120
Width: 1110
GlyphClass: 2
Flags: W
LayerCount: 2
Fore
SplineSet
915 -290 m 2,0,1
 915 -308 915 -308 898 -308 c 2,2,-1
 843 -308 l 2,3,4
 832 -308 832 -308 829.5 -301.5 c 128,-1,5
 827 -295 827 -295 827 -273 c 2,6,-1
 827 1516 l 1,7,-1
 661 1516 l 1,8,-1
 661 -275 l 2,9,10
 661 -294 661 -294 658.5 -301 c 128,-1,11
 656 -308 656 -308 645 -308 c 2,12,-1
 589 -308 l 2,13,14
 578 -308 578 -308 576 -299.5 c 128,-1,15
 574 -291 574 -291 574 -271 c 2,16,-1
 574 835 l 1,17,18
 446.105263158 841.090225564 446.105263158 841.090225564 385.052631579 855.045112782 c 0,19,20
 252.703703704 885.296296296 252.703703704 885.296296296 176.351851852 961.648148148 c 128,-1,21
 100 1038 100 1038 100 1189 c 0,22,23
 100 1460.63779528 100 1460.63779528 296.5 1538 c 0,24,25
 413.897895305 1584.21964382 413.897895305 1584.21964382 623 1589.5 c 0,26,27
 722 1592 722 1592 837 1592 c 2,28,-1
 1050 1592 l 2,29,30
 1075 1592 1075 1592 1075 1576 c 2,31,-1
 1075 1537 l 2,32,33
 1075 1521 1075 1521 1048 1521 c 2,34,-1
 915 1521 l 1,35,-1
 915 -290 l 2,0,1
EndSplineSet
EndChar

StartChar: periodcentered
Encoding: 183 183 121
Width: 520
GlyphClass: 2
Flags: W
LayerCount: 2
Fore
SplineSet
168.208333333 768.7 m 128,-1,1
 206.416666667 808 206.416666667 808 260 808 c 256,2,3
 313 808 313 808 351.5 769.5 c 128,-1,4
 390 731 390 731 390 675.944444444 c 0,5,6
 390 620.888888889 390 620.888888889 351.411764706 584.444444444 c 128,-1,7
 312.823529412 548 312.823529412 548 260 548 c 256,8,9
 206.588235294 548 206.588235294 548 168.294117647 585.2 c 0,10,11
 130 622.4 130 622.4 130 675.9 c 128,-1,0
 130 729.4 130 729.4 168.208333333 768.7 c 128,-1,1
EndSplineSet
EndChar

StartChar: cedilla
Encoding: 184 184 122
Width: 700
GlyphClass: 2
Flags: W
LayerCount: 2
Fore
SplineSet
156 -532 m 1,0,1
 100 -532 100 -532 100 -489 c 0,2,3
 100 -470 100 -470 114.5 -465 c 128,-1,4
 129 -460 129 -460 152.5 -456 c 128,-1,5
 176 -452 176 -452 222.603448276 -443.206896552 c 0,6,7
 269.206896552 -434.413793103 269.206896552 -434.413793103 312.603448276 -406.797805643 c 128,-1,8
 356 -379.181818182 356 -379.181818182 356 -329.718568665 c 128,-1,9
 356 -280.255319149 356 -280.255319149 305.870731707 -250.391074209 c 128,-1,10
 255.741463415 -220.526829268 255.741463415 -220.526829268 206 -215 c 1,11,-1
 380 0 l 1,12,-1
 481 0 l 1,13,-1
 349 -154 l 1,14,15
 420.701942398 -173.237106497 420.701942398 -173.237106497 454.850971199 -221.259178248 c 128,-1,16
 489 -269.28125 489 -269.28125 489 -305 c 1,17,18
 472.537735849 -499.254716981 472.537735849 -499.254716981 156 -532 c 1,0,1
EndSplineSet
EndChar

StartChar: onesuperior
Encoding: 185 185 123
Width: 661
GlyphClass: 2
Flags: W
LayerCount: 2
Fore
SplineSet
150 552 m 2,0,1
 146 552 146 552 146 576 c 128,-1,2
 146 600 146 600 152 600 c 0,3,4
 183 602 183 602 203 603 c 128,-1,5
 223 604 223 604 251.520477816 606.112627986 c 128,-1,6
 280.040955631 608.225255973 280.040955631 608.225255973 284 630 c 0,7,8
 286 641 286 641 286 658 c 2,9,-1
 286 1243 l 2,10,11
 286 1244 286 1244 227.909090909 1202.85227273 c 0,12,13
 169.818181818 1161.70454545 169.818181818 1161.70454545 131 1152 c 1,14,15
 124.666666667 1152 124.666666667 1152 115.833333333 1167.5 c 128,-1,16
 107 1183 107 1183 107 1185 c 128,-1,17
 107 1187 107 1187 130.5 1202.66666667 c 0,18,19
 154 1218.33333333 154 1218.33333333 217.581395349 1271.31782946 c 128,-1,20
 281.162790698 1324.30232558 281.162790698 1324.30232558 330 1379 c 1,21,-1
 405 1379 l 2,22,23
 417 1379 417 1379 417 1368 c 2,24,-1
 417 660.5 l 2,25,26
 417 626 417 626 429.222222222 615 c 128,-1,27
 441.444444444 604 441.444444444 604 481.472222222 604 c 128,-1,28
 521.5 604 521.5 604 532 601 c 0,29,30
 535 599.5 535 599.5 535 575.75 c 128,-1,31
 535 552 535 552 530 552 c 2,32,-1
 150 552 l 2,0,1
EndSplineSet
EndChar

StartChar: ordmasculine
Encoding: 186 186 124
Width: 761
GlyphClass: 2
Flags: W
LayerCount: 2
Fore
SplineSet
124.698863636 1436.20114943 m 128,-1,1
 220.397727273 1533 220.397727273 1533 353.262082027 1533 c 128,-1,2
 486.126436782 1533 486.126436782 1533 585.563218391 1438.9673913 c 128,-1,3
 685 1344.93478261 685 1344.93478261 685 1205.7458004 c 128,-1,4
 685 1066.55681818 685 1066.55681818 591.286516854 971.778409091 c 128,-1,5
 497.573033708 877 497.573033708 877 356.143659711 877 c 128,-1,6
 214.714285714 877 214.714285714 877 121.857142857 974.126436782 c 128,-1,7
 29 1071.25287356 29 1071.25287356 29 1205.32758621 c 128,-1,0
 29 1339.40229885 29 1339.40229885 124.698863636 1436.20114943 c 128,-1,1
204.747474747 1020.39655172 m 128,-1,9
 266.494949495 915 266.494949495 915 383 915 c 0,10,11
 473.544117647 915 473.544117647 915 520.772058824 986.366666667 c 128,-1,12
 568 1057.73333333 568 1057.73333333 568 1131.36666667 c 0,13,14
 568 1270.54098361 568 1270.54098361 501.065 1380.2704918 c 128,-1,15
 434.13 1490 434.13 1490 336.292941176 1490 c 128,-1,16
 238.455882353 1490 238.455882353 1490 190.727941176 1417.87777778 c 128,-1,17
 143 1345.75555556 143 1345.75555556 143 1235.7743295 c 128,-1,8
 143 1125.79310345 143 1125.79310345 204.747474747 1020.39655172 c 128,-1,9
EndSplineSet
EndChar

StartChar: guillemotright
Encoding: 187 187 125
Width: 791
GlyphClass: 2
Flags: W
LayerCount: 2
Fore
SplineSet
441 927 m 1,0,-1
 723 552 l 1,1,-1
 441 179 l 1,2,-1
 392 179 l 1,3,-1
 582 552 l 1,4,-1
 394 927 l 1,5,-1
 441 927 l 1,0,-1
159 927 m 1,6,-1
 441 552 l 1,7,-1
 159 179 l 1,8,-1
 110 179 l 1,9,-1
 300 552 l 1,10,-1
 112 927 l 1,11,-1
 159 927 l 1,6,-1
EndSplineSet
EndChar

StartChar: questiondown
Encoding: 191 191 129
Width: 778
GlyphClass: 2
Flags: W
LayerCount: 2
Fore
SplineSet
688 -428 m 0,0,1
 688 -514 688 -514 518.563106796 -514 c 128,-1,2
 349.126213592 -514 349.126213592 -514 237.063106796 -404.071428571 c 128,-1,3
 125 -294.142857143 125 -294.142857143 125 -125 c 0,4,5
 125 108.849315068 125 108.849315068 366 231 c 0,6,7
 391 243 391 243 422 253.5 c 128,-1,8
 453 264 453 264 481 278.5 c 0,9,10
 547 312.678571429 547 312.678571429 547 373 c 0,11,12
 547 409.888888889 547 409.888888889 517.5 462.333333333 c 0,13,14
 488 514.777777778 488 514.777777778 488 525.272727273 c 0,15,16
 488 543 488 543 505.207317073 543 c 128,-1,17
 522.414634146 543 522.414634146 543 541.207317073 509.5 c 0,18,19
 608.63253012 389.307228916 608.63253012 389.307228916 615 332 c 1,20,-1
 617 305 l 1,21,22
 617 196.113924051 617 196.113924051 527.5 144 c 0,23,24
 488 121 488 121 439 105.5 c 128,-1,25
 390 90 390 90 333.064890282 66.6420062696 c 0,26,27
 276.129780564 43.2840125392 276.129780564 43.2840125392 224.064890282 -21.5314631182 c 128,-1,28
 172 -86.3469387755 172 -86.3469387755 172 -153.173469388 c 128,-1,29
 172 -220 172 -220 196 -258 c 128,-1,30
 220 -296 220 -296 286.666666667 -324 c 128,-1,31
 353.333333333 -352 353.333333333 -352 580 -352 c 1,32,33
 688 -364 688 -364 688 -428 c 0,0,1
625 811.5 m 128,-1,35
 625 764.580645161 625 764.580645161 591.78125 730.290322581 c 128,-1,36
 558.5625 696 558.5625 696 510 696 c 256,37,38
 462.4375 696 462.4375 696 429.21875 730.290322581 c 128,-1,39
 396 764.580645161 396 764.580645161 396 811.5 c 0,40,41
 396 858.419354839 396 858.419354839 429.703125 893.209677419 c 128,-1,42
 463.40625 928 463.40625 928 510 928 c 256,43,44
 557.59375 928 557.59375 928 591.296875 893.209677419 c 0,45,34
 625 858.419354839 625 858.419354839 625 811.5 c 128,-1,35
EndSplineSet
Substitution2: "'smcp' Lowercase to Small Capitals in Latin lookup 3 subtable" questiondown.sc
EndChar

StartChar: AE
Encoding: 198 198 136
Width: 1930
GlyphClass: 2
Flags: W
AnchorPoint: "Anchor-1" 435 0 basechar 0
LayerCount: 2
Fore
SplineSet
518 0 m 2,0,-1
 16 0 l 2,1,2
 4 0 4 0 2 5 c 128,-1,3
 0 10 0 10 0 23.4318181818 c 128,-1,4
 0 36.8636363636 0 36.8636363636 18.7 44.5136363636 c 128,-1,5
 37.4 52.1636363636 37.4 52.1636363636 69.2 58.0818181818 c 128,-1,6
 101 64 101 64 117.5 76.5 c 128,-1,7
 134 89 134 89 147 106 c 128,-1,8
 160 123 160 123 171.5 144 c 128,-1,9
 183 165 183 165 252.5 275.5 c 128,-1,10
 322 386 322 386 416 539 c 128,-1,11
 510 692 510 692 580 806 c 0,12,13
 746.470588235 1077.1092437 746.470588235 1077.1092437 805.235294118 1175.98319328 c 128,-1,14
 864 1274.85714286 864 1274.85714286 864 1305.26190476 c 128,-1,15
 864 1335.66666667 864 1335.66666667 836 1354.33333333 c 128,-1,16
 808 1373 808 1373 769 1373 c 2,17,-1
 661 1373 l 2,18,19
 658 1373 658 1373 653 1378.5 c 128,-1,20
 648 1384 648 1384 648 1390 c 0,21,22
 648 1410 648 1410 666 1410 c 2,23,-1
 1697 1410 l 2,24,25
 1715 1410 1715 1410 1723 1403 c 128,-1,26
 1731 1396 1731 1396 1733 1374 c 2,27,-1
 1751 1085 l 2,28,29
 1751 1075 1751 1075 1736 1075 c 128,-1,30
 1721 1075 1721 1075 1714.5 1084 c 0,31,32
 1707.60843373 1093.54216867 1707.60843373 1093.54216867 1698.39996155 1156.68597795 c 128,-1,33
 1689.19148936 1219.82978723 1689.19148936 1219.82978723 1664.28288341 1261.98281269 c 128,-1,34
 1639.37427746 1304.13583815 1639.37427746 1304.13583815 1576 1315 c 1,35,-1
 1159 1315 l 2,36,37
 1146 1315 1146 1315 1146 1302 c 2,38,-1
 1146 784 l 2,39,40
 1146 774 1146 774 1156 774 c 2,41,-1
 1502 774 l 2,42,43
 1626 774 1626 774 1626 930 c 0,44,45
 1626 938 1626 938 1634 938 c 2,46,-1
 1658 938 l 2,47,48
 1666 938 1666 938 1666 930 c 2,49,-1
 1666 502 l 2,50,51
 1666 494 1666 494 1658 494 c 2,52,-1
 1634 494 l 2,53,54
 1626 494 1626 494 1626 502 c 0,55,56
 1626 649.816326531 1626 649.816326531 1540.5 672.5 c 0,57,58
 1516 679 1516 679 1489 679 c 2,59,-1
 1156 679 l 2,60,61
 1146 679 1146 679 1146 669 c 2,62,-1
 1146 183 l 2,63,64
 1146 108.35 1146 108.35 1215 98 c 0,65,66
 1235 95 1235 95 1257 95 c 2,67,-1
 1590 95 l 2,68,69
 1692.52631579 95 1692.52631579 95 1750 186 c 0,70,71
 1791.36082474 251.487972509 1791.36082474 251.487972509 1800 335 c 0,72,73
 1803 363 1803 363 1830 363 c 0,74,75
 1842 363 1842 363 1842 350 c 1,76,-1
 1809 14 l 1,77,78
 1803.4 2.27373675443e-13 1803.4 2.27373675443e-13 1795 0 c 2,79,-1
 680 0 l 2,80,81
 650 0 650 0 650 20.6363636364 c 128,-1,82
 650 41.2727272727 650 41.2727272727 688 44.1363636364 c 128,-1,83
 726 47 726 47 774 48 c 0,84,85
 951 51.6875 951 51.6875 951 178 c 2,86,-1
 951 623 l 1,87,-1
 631 623 l 2,88,89
 604.692307692 623 604.692307692 623 581.5 589.5 c 0,90,91
 577 583 577 583 576 582 c 2,92,-1
 311 143 l 1,93,94
 308 134 308 134 308 116 c 0,95,96
 308 78.8181818182 308 78.8181818182 388 57 c 0,97,98
 433.6 44.5636363636 433.6 44.5636363636 512 41 c 1,99,100
 536 36.2 536 36.2 536 18.1 c 128,-1,101
 536 0 536 0 518 0 c 2,0,-1
635 750 m 1,102,103
 626 733.125 626 733.125 626 729 c 0,104,105
 626 716 626 716 658 716 c 2,106,-1
 951 716 l 1,107,-1
 951 1185 l 1,108,109
 944 1204 944 1204 940 1204 c 0,110,111
 931.428571429 1204 931.428571429 1204 916.136160714 1195.765625 c 128,-1,112
 900.84375 1187.53125 900.84375 1187.53125 897 1176 c 1,113,-1
 635 750 l 1,102,103
EndSplineSet
EndChar

StartChar: Ccedilla
Encoding: 199 199 137
Width: 1566
GlyphClass: 2
Flags: W
LayerCount: 2
Fore
SplineSet
564 -532 m 1,0,1
 508 -532 508 -532 508 -489 c 0,2,3
 508 -470 508 -470 523 -465 c 128,-1,4
 538 -460 538 -460 561 -456 c 128,-1,5
 584 -452 584 -452 630.603448276 -443.206896552 c 128,-1,6
 677.206896552 -434.413793103 677.206896552 -434.413793103 720.603448276 -406.797805643 c 128,-1,7
 764 -379.181818182 764 -379.181818182 764 -329.718568665 c 128,-1,8
 764 -280.255319149 764 -280.255319149 713.870731707 -250.391074209 c 128,-1,9
 663.741463415 -220.526829268 663.741463415 -220.526829268 614 -215 c 1,10,-1
 772 -19 l 1,11,12
 484.777542186 16.1279264953 484.777542186 16.1279264953 294.888771093 210.213134518 c 128,-1,13
 105 404.298342541 105 404.298342541 105 696 c 0,14,15
 105 914.764705882 105 914.764705882 212 1091 c 0,16,17
 368.4 1348.6 368.4 1348.6 682 1427 c 0,18,19
 782 1452 782 1452 882.5 1452 c 0,20,21
 1019.46153846 1452 1019.46153846 1452 1207 1406 c 0,22,23
 1263.8592233 1392.05339806 1263.8592233 1392.05339806 1303.4750662 1377.02669903 c 128,-1,24
 1343.09090909 1362 1343.09090909 1362 1352 1362 c 1,25,-1
 1382 1370 l 1,26,-1
 1413 1370 l 2,27,28
 1425 1370 1425 1370 1425 1353 c 2,29,-1
 1425 1042 l 2,30,31
 1425 1032 1425 1032 1406.8 1032 c 128,-1,32
 1388.6 1032 1388.6 1032 1385.8 1036.5 c 128,-1,33
 1383 1041 1383 1041 1380 1047.5 c 128,-1,34
 1377 1054 1377 1054 1373.5 1061 c 128,-1,35
 1370 1068 1370 1068 1366.5 1074 c 128,-1,36
 1363 1080 1363 1080 1362 1083 c 0,37,38
 1211.5 1384 1211.5 1384 907 1384 c 0,39,40
 632.142857143 1384 632.142857143 1384 477.071428571 1209.15436242 c 128,-1,41
 322 1034.30872483 322 1034.30872483 322 745.473806861 c 128,-1,42
 322 456.638888889 322 456.638888889 492.507633588 249.819444444 c 128,-1,43
 663.015267176 43 663.015267176 43 956 43 c 0,44,45
 1115.69565217 43 1115.69565217 43 1247.12258378 138.206911083 c 128,-1,46
 1378.54951538 233.413822166 1378.54951538 233.413822166 1454 371 c 0,47,48
 1456.4 377 1456.4 377 1466 377 c 2,49,-1
 1479 377 l 2,50,51
 1489 377 1489 377 1489 364.9 c 128,-1,52
 1489 352.8 1489 352.8 1483 342 c 2,53,-1
 1345 38 l 1,54,55
 1340.33333333 31 1340.33333333 31 1332 31 c 1,56,57
 1277.328585 45.2621082621 1277.328585 45.2621082621 1215.6642925 31.6310541311 c 128,-1,58
 1154 18 1154 18 1051.8125 -4.5 c 128,-1,59
 949.625 -27 949.625 -27 887 -27 c 2,60,-1
 866 -27 l 1,61,-1
 757 -154 l 1,62,63
 828.701942398 -173.237106497 828.701942398 -173.237106497 862.850971199 -221.259178248 c 128,-1,64
 897 -269.28125 897 -269.28125 897 -305 c 1,65,66
 880.537735849 -499.254716981 880.537735849 -499.254716981 564 -532 c 1,0,1
EndSplineSet
EndChar

StartChar: Eth
Encoding: 393 393 146
AltUni2: 0000d0.ffffffff.0 000110.ffffffff.0
Width: 1664
GlyphClass: 2
Flags: W
AnchorPoint: "Anchor-1" 180 0 basechar 0
LayerCount: 2
Fore
SplineSet
77 44 m 2,0,1
 259 44 259 44 259 160 c 2,2,-1
 259 664 l 1,3,-1
 60 664 l 2,4,5
 39 664 39 664 39 689 c 2,6,-1
 39 725 l 2,7,8
 39 750 39 750 60 750 c 2,9,-1
 259 750 l 1,10,-1
 259 1256 l 2,11,12
 259 1312.2195122 259 1312.2195122 215.888888889 1340.6097561 c 0,13,14
 172.777777778 1369 172.777777778 1369 119 1369 c 2,15,-1
 55 1369 l 2,16,17
 47 1369 47 1369 47 1377 c 2,18,-1
 47 1405 l 2,19,20
 47 1413 47 1413 55 1413 c 2,21,-1
 77 1413 l 1,22,-1
 398 1420 l 2,23,24
 456 1422 456 1422 523.5 1422 c 2,25,-1
 649 1422 l 2,26,27
 823.428571429 1422 823.428571429 1422 910.714285714 1409 c 128,-1,28
 998 1396 998 1396 1082.5 1378.5 c 128,-1,29
 1167 1361 1167 1361 1262.5 1299 c 128,-1,30
 1358 1237 1358 1237 1427.5 1149 c 0,31,32
 1576 960.971223022 1576 960.971223022 1576 744.345424595 c 0,33,34
 1576 527.719626168 1576 527.719626168 1462.5 358 c 0,35,36
 1302.9666435 119.445448228 1302.9666435 119.445448228 986 33 c 0,37,38
 887 6 887 6 784 0 c 1,39,-1
 55 0 l 2,40,41
 47 0 47 0 47 8 c 2,42,-1
 47 36 l 2,43,44
 47 44 47 44 55 44 c 2,45,-1
 77 44 l 2,0,1
803 689 m 2,46,47
 803 664 803 664 782 664 c 2,48,-1
 454 664 l 1,49,-1
 454 125 l 2,50,51
 454 51.3902439024 454 51.3902439024 593 48 c 0,52,53
 634 47 634 47 679 47 c 0,54,55
 998.413793103 47 998.413793103 47 1180.70689655 226.203389831 c 0,56,57
 1363 405.406779661 1363 405.406779661 1363 702.835465302 c 0,58,59
 1363 1000.26415094 1363 1000.26415094 1194.68644068 1187.63207547 c 0,60,61
 1026.37288136 1375 1026.37288136 1375 751 1375 c 2,62,-1
 479 1375 l 2,63,64
 454 1375 454 1375 454 1348 c 2,65,-1
 454 750 l 1,66,-1
 782 750 l 2,67,68
 803 750 803 750 803 725 c 2,69,-1
 803 689 l 2,46,47
EndSplineSet
EndChar

